<?xml version="1.0" encoding="UTF-8" standalone="no"?>
<!-- Created with Inkscape (http://www.inkscape.org/) -->
<svg xmlns:rdf="http://www.w3.org/1999/02/22-rdf-syntax-ns#" xmlns="http://www.w3.org/2000/svg" version="1.1" xmlns:cc="http://creativecommons.org/ns#" xmlns:dc="http://purl.org/dc/elements/1.1/" viewBox="0 0 256 256">
 <metadata>
  <rdf:RDF>
   <cc:Work rdf:about="">
    <dc:format>image/svg+xml</dc:format>
    <dc:type rdf:resource="http://purl.org/dc/dcmitype/StillImage"/>
    <dc:title/>
   </cc:Work>
  </rdf:RDF>
 </metadata>
 <g transform="translate(-64.85717,-42.21936)">
  <g transform="translate(-118.57143,-345)">
   <path fill="#f5f9f5" d="m183.43,515.22,0-128,128,0,128,0,0,128,0,128-128,0-128,0,0-128z"/>
   <path fill="#007e0d" d="m183.43,515.22,0-128,128,0,128,0,0,128,0,128-9.2625,0-9.2625,0-14.737-14.762-14.738-14.762,0-51.538c0-38.752-0.29771-51.836-1.2-52.738-0.7706-0.7706-4.7182-1.2-11.032-1.2-14.284,0-17.818-1.8404-27.472-14.304-2.6766-3.4556-5.1283-5.681-6.0593-5.5-1.3941,0.27108-11.029,21.857-12.664,28.374-0.68998,2.7491-0.0153,4.3191,15.441,35.931,17.374,35.532,25.987,53.641,25.987,54.637,0,0.47449-4.6125,0.86103-10.25,0.85897-14.525-0.005-15.246-0.54229-23.21-17.285-16.459-34.602-28.592-58.711-29.548-58.711-0.97057,0-7.7156,13.403-28.039,55.715-9.6625,20.116-9.857,20.276-24.703,20.282-5.7529,0.002-10.25-0.4098-10.25-0.93883,0-0.95459,6.5139-14.561,29.429-61.471,9.6996-19.857,12.523-26.518,12.081-28.5-1.4126-6.323-11.17-28.59-12.653-28.875-0.97242-0.18727-3.8376,2.5476-7.4413,7.1031-8.8101,11.137-10.51,12-24.915,12.647l-12,0.53922-0.5,52.238-0.5,52.238-14.988,15.012-14.987,15.012h-9.2625-9.2625zm137.46-19.392-9.3962-0.16126s-9.7967-0.17045-9.7967,0.29709c0,2.364,0.29974,10.848,0.29974,10.848,6.8186,0.0415,11.812,0.13275,18.932-0.0914zm-0.11435-2.8934c0.11777-0.017,0.57271-8.4893,0.77882-13.714l0.37473-9.5h-10.5-10.5l0.91044,23.429s-0.0729,0.0714,9.5896,0.0714c7.429,0,9.3464-0.28571,9.3464-0.28571zm-65.576-11.964c2.868-3.4375,7.9755-9.7591,11.35-14.048,4.3543-5.5343,7.54-8.5099,10.974-10.25,4.8077-2.4362,5.0258-2.4519,34.056-2.4519,35.36,0,34.183-0.33685,44.904,12.842,8.8086,10.828,8.767,10.777,12.877,15.908l3.4036,4.25h8.7256c7.0342,0,8.8433-0.30663,9.3326-1.5818,0.33385-0.86998,0.60699-18.109,0.60699-38.309,0-27.808-0.30356-37.14-1.25-38.428-1.1609-1.5793-6.8078-1.682-79.25-1.4411l-78,0.25933-0.26147,39.75-0.26148,39.75h8.7896,8.7896zm49.594-30.703c-16.107-3.842-18.15-27.246-2.9808-34.134,7.2395-3.2876,14.374-2.0834,20.461,3.4538,10.051,9.1426,5.6556,26.901-7.5677,30.573-4.2181,1.1714-5.399,1.1842-9.9126,0.10752zm-39.163,178.65c-7.8498-7.8639-13.957-14.614-13.57-15,1.3682-1.3682,18.949-0.71897,24.404,0.90116,4.7823,1.4202,6.9434,3.1302,18.932,14.98l13.533,13.377-14.513,0.0195-14.513,0.0195-14.272-14.298zm61.831,0.88164c11.988-11.85,14.149-13.56,18.932-14.98,5.4556-1.6201,23.036-2.2693,24.404-0.90116,0.38613,0.38612-5.7206,7.1361-13.57,15l-14.272,14.298-14.513-0.0195-14.513-0.0195,13.533-13.377z"/>
  </g>
 </g>
</svg>
