<?xml version="1.0" encoding="UTF-8" standalone="no"?>
<!-- Created with Inkscape (http://www.inkscape.org/) -->
<svg xmlns:rdf="http://www.w3.org/1999/02/22-rdf-syntax-ns#" xmlns="http://www.w3.org/2000/svg" version="1.1" xmlns:cc="http://creativecommons.org/ns#" xmlns:dc="http://purl.org/dc/elements/1.1/" viewBox="0 0 442.58 591.04">
 <metadata>
  <rdf:RDF>
   <cc:Work rdf:about="">
    <dc:format>image/svg+xml</dc:format>
    <dc:type rdf:resource="http://purl.org/dc/dcmitype/StillImage"/>
    <dc:title/>
   </cc:Work>
  </rdf:RDF>
 </metadata>
 <g transform="translate(-150.71068,-66.5894)">
  <g transform="translate(8.6432142,-135.98708)">
   <path fill="#a3d8d8" d="m177.68,792.24c-0.4125-1.0075-0.75-28.25-0.75-60.538v-58.706l2.25-4.4619c1.7805-3.5309,3.3447-4.9836,7.4964-6.9619l5.2464-2.5,0.004-31.128c0.003-26.874,0.21508-31.303,1.5514-32.412,1.632-1.3545,1.3775-1.3442,110.45-4.4672,29.975-0.85823,68.225-1.9771,85-2.4863,74.201-2.2524,120.84-3.2813,122.36-2.6991,2.2141,0.84963,2.1345,4.1849-0.804,33.692-1.3419,13.475-2.7477,28.198-3.124,32.718l-0.68415,8.2178,4.8763-0.53668c5.9931-0.6596,12.917,2.5072,15.558,7.1155,1.998,3.4868,22.818,85.106,22.818,89.452,0,1.5967-0.4011,3.9581-0.89133,5.2475-0.98347,2.5867-9.729,13.338-19.958,24.536-11.751,12.863-8.5459,7.7037,4.8061-7.7374,8.9292-10.326,13.278-16.169,13.983-18.787,0.90925-3.3767-0.14147-8.4475-9.4456-45.585-5.7578-22.982-11.197-43.321-12.088-45.198-0.89039-1.8764-3.1824-4.3778-5.0933-5.5589-2.8837-1.7822-4.4807-2.0561-9.3932-1.6106-3.2553,0.29518-6.1465,0.16814-6.4249-0.28232s1.1065-17.113,3.0776-37.027c2.3305-23.546,3.2425-36.549,2.6078-37.184-0.6347-0.6347-13.689-0.58513-37.328,0.14174-19.994,0.61477-50.527,1.5556-67.852,2.0907-17.325,0.53514-71.55,2.119-120.5,3.5198s-89.562,2.7399-90.25,2.9759c-0.95409,0.32747-1.25,6.2006-1.25,24.81,0,30.06-0.69271,39.681-2.9044,40.337-3.996,1.1848-8.2087,3.8611-9.8273,6.2432-1.63,2.3989-1.8074,7.4497-2.2683,64.602-0.275,34.1-0.8375,61.176-1.25,60.168zm30.28-59.484c-0.0201-40.488-0.38375-61.976-1.0706-63.259-1.9113-3.5713,2.4494-4.0544,33.666-3.7291,16.066,0.16738,29.445,0.53949,29.731,0.82691,0.28657,0.28743-6.7013,19.637-15.529,43-9.9277,26.275-16.103,44.008-16.189,46.49-0.11507,3.3056,1.2556,6.4754,7.7831,18,4.3575,7.6933,8.5768,15.008,9.3762,16.255,1.1884,1.8536,1.2024,2.1657,0.0772,1.7116-0.75689-0.30551-5.1374-7.1757-9.7344-15.267-9.6577-16.999-10.625-20.821-7.2855-28.773,1.1409-2.7164,6.3909-16.639,11.667-30.939,5.2757-14.3,11.366-30.579,13.535-36.175,2.1684-5.596,3.9425-10.884,3.9425-11.75,0-1.3979-3.2949-1.5754-29.25-1.5757l-29.25-0.00034,0.29318,61.512c0.19183,40.249-0.0569,62.113-0.71959,63.25-0.69182,1.1875-1.0224-17.693-1.0432-59.577zm73.189,41.67c-5.6208-9.8961-10.22-18.928-10.22-20.071,0-1.1428,6.1363-18.477,13.636-38.52,13.461-35.974,13.629-36.523,13.047-42.748-0.55051-5.8953-0.44537-6.3447,1.6138-6.8968,4.0068-1.0744,67.705-0.68723,69.781,0.42409,1.5365,0.82231,1.7335,1.4409,0.93426,2.9343-0.55699,1.0408-1.0127,3.846-1.0127,6.2338s4.9514,29.076,11.003,59.306c6.0518,30.231,10.829,55.419,10.616,55.974-0.66645,1.7396-1.185-0.65311-12.607-58.171-8.955-45.095-11.021-57.082-10.471-60.75l0.68525-4.5696h-34.503-34.503l0.11472,6.75c0.10812,6.3615-0.67518,8.8454-13.611,43.159-7.5489,20.025-13.725,36.711-13.725,37.081,0,0.36939,4.6726,8.8536,10.384,18.854,5.711,10,10.085,18.367,9.7196,18.593-0.36525,0.22574-5.2629-7.6864-10.884-17.582zm200.78,17.43c0-0.62942,7.425-9.7843,16.5-20.344s16.5-19.654,16.5-20.209c0-0.55484-4.0849-17.425-9.0776-37.488-7.7262-31.049-8.9776-37.206-8.4062-41.361l0.6714-4.8816h-49.594c-35.147,0-49.594,0.31775-49.594,1.0908,0,0.59991,5.4215,28.098,12.048,61.106,6.6263,33.009,11.857,60.53,11.623,61.159-0.60899,1.6403-0.53476,1.9859-13.703-63.788-9.3065-46.486-11.714-60.112-10.733-60.735,1.4884-0.94476,95.032-1.1301,99.695-0.19752,2.4646,0.49292,3.0137,0.99901,2.4412,2.25-2.3635,5.1645-1.2741,12.007,7.5009,47.114,6.8464,27.391,8.6412,35.957,7.8569,37.5-0.559,1.1-7.7733,9.875-16.032,19.5-18.496,21.556-17.697,20.686-17.697,19.284zm-281.81-200.86c-1.2377-0.86689-7.5826-8.2046-14.1-16.306-15.55-19.33-14.179-18.132-19.979-17.445-9.3292,1.1049-17.767-3.58-21.714-12.056-3.0177-6.481-3.0177-11.753,0-18.234,7.6341-16.395,30.562-16.395,38.196,0,2.8155,6.0468,2.9802,9.5975,0.76346,16.461l-1.6387,5.074,11.889,14.728c17.505,21.686,18.296,23.213,14.074,27.18-2.7502,2.5837-4.461,2.7203-7.4908,0.59815zm6.6053-1.6238c2.6934-2.6934,0.96536-5.9496-11.218-21.139-16.665-20.776-16.078-19.8-14.147-23.535,0.89719-1.735,1.5651-5.5246,1.5651-8.8804,0-11.126-8.2273-19.245-19.5-19.245-11.394,0-19.5,8.1065-19.5,19.5,0,11.931,8.3829,19.819,20.715,19.49,3.1818-0.0847,6.2899-0.11721,6.9068-0.0722,0.61686,0.0451,5.3419,5.3592,10.5,11.809,17.157,21.454,18.815,23.273,21.215,23.273,1.245,0,2.8035-0.54,3.4635-1.2zm187.32-18.675c-1.1422-0.74857-1.2543-4.601-0.64767-22.265,0.40724-11.858,1.1873-21.916,1.7537-22.61,1.5906-1.949,49.102-1.7801,51.064,0.18162,1.3161,1.316,10.711,37.118,10.711,40.817,0,0.88902-0.7875,1.8472-1.75,2.1293s-12.1,0.77583-24.75,1.0972c-12.65,0.32136-25.7,0.80267-29,1.0696-3.3,0.26691-6.6216,0.078-7.3812-0.41991zm60.524-3.4884c0.85663-0.85192-0.0474-5.8478-3.6092-19.946-2.6137-10.345-5.165-19.222-5.6696-19.727-1.0254-1.0254-48.171-1.4904-49.176-0.48504-0.83626,0.83626-2.466,39.353-1.7447,41.233,0.47364,1.2343,4.7908,1.3432,29.805,0.75225,19.643-0.46408,29.627-1.0645,30.394-1.8277zm20.967,0.5408c-1.3782-2.2299-11.593-45.056-11.072-46.416,0.60477-1.576,42.282-22.761,44.777-22.761,2.2051,0,2.4042,1.9609,3.7418,36.84,0.80229,20.921,0.842,30.661,0.12792,31.375-1.4915,1.4915-36.691,2.3932-37.576,0.96264zm35.946-2.5503c0.74157-0.79153,0.69339-9.4642-0.16179-29.127-0.66977-15.4-1.2575-29.688-1.306-31.75-0.0616-2.6202-0.53821-3.75-1.5819-3.75-0.82153,0-10.722,4.6074-22,10.239-15.275,7.6265-20.506,10.697-20.506,12.037,0,2.9805,10.053,42.084,11.163,43.422,1.3414,1.6162,32.793,0.63813,34.393-1.0696zm-115.28-58.83c-0.67057-0.83338-0.85631-6.5315-0.52194-16.013,0.4172-11.83,0.83569-14.998,2.1322-16.143,2.1222-1.8733,39.372-16.638,41.976-16.638,2.7202,0,31.318,35.613,30.916,38.5-0.19568,1.4053-2.9332,3.3382-9.2058,6.5l-8.9273,4.5-27.664,0.29377c-21.708,0.23053-27.888,0.0152-28.705-1zm64.812-5.3382c4.9767-2.4994,8.9052-4.9657,8.73-5.4806-0.64648-1.9-28.981-36.975-29.869-36.975-0.50626,0-9.8145,3.5636-20.685,7.919-15.006,6.0124-20.062,8.4803-21,10.25-0.79839,1.5066-1.2405,7.017-1.25,15.581l-0.0147,13.25h27.52,27.52l9.0485-4.5444zm24.377-16.206c-11.794-13.776-32.461-40.941-32.445-42.646,0.0533-5.5903,8.0207-48.074,9.2455-49.298,1.36-1.36,6.9817-3.5508,29.939-11.668,10.357-3.6619,11.868-3.9656,13.125-2.6383,1.1209,1.1842,1.7659,10.239,3.063,43,0.90372,22.825,1.6351,44.942,1.6252,49.149l-0.0179,7.6488-8.9088,4.6012c-4.8999,2.5307-9.8905,4.6012-11.09,4.6012-1.1998,0-3.2408-1.2375-4.5357-2.75zm14.035-3.0364,9-4.7136-0.15831-11c-0.20333-14.128-2.2194-67.494-2.9561-78.25-0.495-7.2267-0.79972-8.25-2.4568-8.25-2.6174,0-38.161,12.857-39.579,14.316-1.9214,1.9779-9.2898,47.826-8.0634,50.173,1.1273,2.1568,27.397,35.265,31.548,39.761,1.3966,1.5125,2.7925,2.7336,3.1021,2.7136s4.6129-2.1576,9.5629-4.75zm-101.84-28.95c-0.41354-0.68835,0.0304-14.202,1.9083-58.084,0.57873-13.524,0.97044-16.438,2.2768-16.94,1.3838-0.53102,11.662,2.7764,34.147,10.988,5.8824,2.1483,6.5285,2.6619,6.8004,5.4063,0.34418,3.4741-6.4706,44.45-7.5766,45.555-1.308,1.308-33.127,13.824-35.144,13.824-1.0789,0-2.1644-0.3375-2.4122-0.75zm19.333-6.776c7.975-3.1636,15.267-6.4769,16.204-7.363,2.5475-2.4092,9.416-43.92,7.5722-45.764-2.1514-2.1514-37.146-14.266-38.351-13.276-1.2224,1.0044-4.1196,68.677-3.0586,71.442,0.35769,0.93212,1.209,1.4739,1.8919,1.204,0.68286-0.26994,7.7666-3.0792,15.742-6.2427zm14-77.054c-11.275-4.1115-22.75-8.1522-25.5-8.9793-3.8375-1.1542-5.7333-2.4845-8.1541-5.7222-6.4361-8.608-9.3789-14.437-11.47-22.718-1.8158-7.1916-2.0624-10.32-1.602-20.322,0.49394-10.732,0.39117-11.763-1.115-11.181-6.6836,2.5832-24.211,3.3127-33.36,1.3884-11.33-2.3831-23.437-10.441-26.447-17.603-1.9759-4.7016-1.6955-12.689,0.60377-17.196,5.3352-10.458,20.991-17.26,39.544-17.181,16.879,0.0715,27.72,4.179,36.561,13.853,4.257,4.6579,5.1427,5.2034,6.9106,4.2572,1.1153-0.5969,2.0279-1.796,2.0279-2.6648,0-1.6697-18.856-27.616-22.238-30.6-1.0909-0.9625-3.3566-1.75-5.0348-1.75-4.5629,0-11.175-4.3175-13.224-8.6344-2.1988-4.6337-2.1203-12.769,0.15705-16.269,1.8736-2.8799,4.3252-5.0162,5.8122-5.0649,0.53487-0.0175,0.031,0.62763-1.1196,1.4336-1.1507,0.80597-2.8258,3.0115-3.7225,4.9011-4.7238,9.9546,1.6829,21.125,12.837,22.383l4.6956,0.52926,11.919,15.83c6.5552,8.7063,11.919,16.486,11.919,17.288,0,1.6823-4.625,5.6037-6.6092,5.6037-0.7367,0-2.0109-1.2985-2.8316-2.8855-6.7679-13.088-31.606-20.493-52.341-15.604-24.819,5.8514-34.022,24.918-18.575,38.482,11.453,10.056,31.37,13.399,49.634,8.332,3.1775-0.8816,6.0404-1.3397,6.3622-1.018,0.32169,0.3217,0.0844,3.4588-0.52725,6.9713-2.355,13.523-0.23362,27.063,6.1133,39.019,3.623,6.8244,10.578,14.704,12.978,14.704,0.8504,0,11.531,3.6,23.735,8s23.253,8,24.554,8c1.3012,0,12.41-3.5994,24.687-7.9988,12.276-4.3993,22.896-7.9993,23.598-8,0.70252-0.00067,3.1775-1.9834,5.5-4.4062l4.2227-4.4049,26.296-2.1007c16.919-1.3516,27.597-2.6446,29.946-3.626,9.7285-4.0648,15.231-12.272,15.249-22.746,0.0169-10.032-4.7421-18.038-13.302-22.377-5.0922-2.5812-5.4463-2.6179-19.188-1.9901-7.7,0.3518-17.933,0.93324-22.74,1.2921l-8.7397,0.65244-2.5438-5.7519c-14.329-32.401-52.027-48.372-86.357-36.585-4.8714,1.6726-9.3124,3.0411-9.8687,3.0411-0.55635,0-6.4309-7.2111-13.054-16.025l-12.043-16.025,2.1242-5.8326c1.833-5.0329,1.963-6.3663,0.94857-9.7254-0.64661-2.141-2.3303-5.1303-3.7416-6.6428-1.4112-1.5125-2.1761-2.75-1.6997-2.75,1.1151,0,4.6396,3.8686,6.0898,6.6843,1.5616,3.0321,1.3449,11.307-0.37504,14.316-0.78602,1.375-1.4451,2.8007-1.4646,3.1683-0.0691,1.3024,22.27,30.337,23.583,30.65,0.73344,0.17527,4.8319-0.93662,9.1077-2.4709,7.2214-2.5912,8.8762-2.7916,23.274-2.8187,13.644-0.0257,16.338,0.2513,22.5,2.3134,11.337,3.7938,19.285,8.7881,28.153,17.691,6.5164,6.5414,9.0003,9.9347,12.373,16.903l4.2198,8.718,4.6271-0.5616c2.5449-0.30888,11.677-1.0615,20.293-1.6724,19.803-1.4042,24.476-0.37357,31.882,7.0326,13.045,13.045,8.8278,35.684-7.9749,42.814-2.2605,0.95914-13.457,2.356-30.485,3.803l-26.912,2.2871-3.7221,4.0719c-2.0472,2.2396-4.218,4.0719-4.8241,4.0719s-11.702,3.825-24.658,8.5-24.324,8.4765-25.264,8.4477c-0.93911-0.0288-10.932-3.4163-22.207-7.5278zm48.917-53.442c-13.274-2.2555-20.345-17.746-13.461-29.492,7.4717-12.749,26.578-12.818,34.018-0.12188,3.5048,5.9805,3.5194,14.266,0.0354,20.211-4.1222,7.0341-12.37,10.8-20.592,9.4028zm9.7684-2.0415c3.7773-1.4272,8.079-5.6214,10.407-10.147,6.9662-13.543-7.0124-29.491-21.725-24.785-7.2309,2.3127-13.295,10.391-13.345,17.778-0.0793,11.848,13.574,21.344,24.663,17.154zm-12.665-5.6879c-4.3302-2.1756-8.0252-7.5524-8.0035-11.646,0.0379-7.1432,7.4804-14.602,14.57-14.602,6.4624,0,13.408,7.5175,13.412,14.516,0.004,6.8683-6.6145,13.486-13.483,13.483-1.6586-0.00086-4.5816-0.78836-6.4957-1.75zm11.95-0.52776c3.3622-1.7013,7.03-7.3886,7.03-10.901,0-7.2775-5.9141-13.813-12.5-13.813-6.3437,0-13.493,7.1488-13.493,13.493,0,8.6905,11.046,15.227,18.962,11.221z"/>
   <path fill="#57acab" d="m247.93,776.82c-7.9546-13.999-9.4773-17.372-9.3603-20.731,0.0864-2.4809,6.2635-20.219,16.189-46.489,8.8273-23.363,15.815-42.713,15.529-43-0.28657-0.28742-13.666-0.65953-29.731-0.82691-31.217-0.32523-35.578,0.1578-33.666,3.7291,0.69485,1.2983,0.96353,21.97,0.80922,62.259l-0.23103,60.316-0.64027-60.5c-0.35216-33.275-0.8107-61.85-1.019-63.5l-0.3787-3,32.381-0.26403c21.252-0.17328,32.81,0.092,33.629,0.77195,0.97076,0.80566-0.26353,4.9772-5.552,18.764-16.896,44.047-25.958,69.301-25.958,72.34,0,2.3253,2.6726,7.9412,9.0843,19.088,4.9964,8.6866,8.9339,16.236,8.75,16.777-0.18388,0.54099-4.6093-6.54-9.8343-15.736zm235.08,15.15c0.86843-1.0404,8.3412-9.7666,16.606-19.392,8.265-9.625,15.485-18.4,16.044-19.5,0.78421-1.5432-1.0105-10.109-7.8569-37.5-8.775-35.107-9.8644-41.95-7.5009-47.114,0.5725-1.251,0.0234-1.7571-2.4412-2.25-4.6616-0.93231-98.206-0.74737-99.694,0.1971-0.97988,0.622,1.5488,14.823,11.246,63.156,6.8805,34.294,12.297,62.566,12.038,62.825-0.25976,0.25976-0.68531-0.15462-0.94567-0.92084-0.85993-2.5307-24.752-121.34-24.915-123.89l-0.15902-2.5,52.441-0.25902c31.105-0.15363,52.817,0.11666,53.364,0.66436,0.56451,0.56451,0.41718,2.8985-0.37907,6.0053-1.28,4.9944-1.1416,5.7292,8.048,42.7,8.4582,34.028,9.2157,37.835,7.9381,39.889-2.3891,3.8413-31.287,37.143-33.412,38.504-1.8854,1.2073-1.9095,1.1723-0.42105-0.61094zm-102.9-56.22c-6.1977-31.169-11.248-58.388-11.223-60.487,0.025-2.0987,0.50113-4.6673,1.0581-5.708,0.79921-1.4933,0.60224-2.112-0.93426-2.9343-2.0765-1.1113-65.774-1.4984-69.781-0.42409-2.0591,0.55211-2.1643,1.0015-1.6138,6.8968,0.58133,6.2253,0.41384,6.774-13.047,42.748-7.4999,20.043-13.636,37.381-13.636,38.527,0,1.7261,10.349,21.047,18.19,33.959,1.0854,1.7875,1.5673,3.25,1.0709,3.25-0.74384,0-8.4166-12.938-19.639-33.115l-2.0104-3.6145,14.298-38.344c12.725-34.125,14.222-38.788,13.609-42.385-0.37883-2.223-0.76301-5.1667-0.85374-6.5417l-0.16495-2.5,37.438-0.26236c22.036-0.15442,37.819,0.1189,38.364,0.66436,0.56896,0.56896,0.43071,2.862-0.3581,5.9398-1.2386,4.8327-0.88052,7.0406,9.9465,61.336,6.1772,30.977,11.409,56.871,11.627,57.54,0.21751,0.66989,0.0655,1.4219-0.33772,1.6711-0.40326,0.24923-5.804-25.049-12.002-56.218zm-200.95-4.0531c-0.22424-58.61-0.17301-60.476,1.7454-63.58,1.7806-2.8811,5.7682-5.5938,10.119-6.8839,2.2117-0.65578,2.9044-10.276,2.9044-40.337,0-18.609,0.29591-24.482,1.25-24.81,0.6875-0.23597,41.3-1.5751,90.25-2.9759s103.18-2.9847,120.5-3.5198c17.325-0.53513,47.858-1.476,67.852-2.0907,23.639-0.72687,36.693-0.77644,37.328-0.14174,0.6347,0.6347-0.27726,13.638-2.6078,37.184-1.9711,19.914-3.356,36.577-3.0776,37.027,0.2784,0.45046,3.1696,0.5775,6.4249,0.28232,4.9124-0.44544,6.5094-0.17161,9.3932,1.6106,1.9109,1.181,4.2029,3.6825,5.0933,5.5589,0.89039,1.8764,6.3298,22.215,12.088,45.198,9.247,36.91,10.351,42.224,9.4587,45.537-0.67754,2.5162-4.9899,8.386-13.101,17.833-6.6503,7.7452-12.318,13.856-12.595,13.579-0.27692-0.27693,4.6622-6.4853,10.976-13.796,12.738-14.75,13.768-16.304,13.768-20.75,0-4.2783-20.654-85.866-22.419-88.56-0.78711-1.2013-3.1395-2.9948-5.2276-3.9857-3.1977-1.5174-4.5896-1.6373-8.8249-0.7601-2.7656,0.5728-5.3659,0.83968-5.7784,0.59306-1.0943-0.65426-0.93174-5.4936,0.75-22.321,0.825-8.255,2.175-21.763,3-30.018s1.5-17.039,1.5-19.52v-4.5111l-9.25,0.53522c-5.0875,0.29436-26.125,0.99099-46.75,1.548-20.625,0.55706-67.425,1.882-104,2.9443s-84.95,2.4229-107.5,3.0235-42.456,1.3131-44.236,1.5834l-3.236,0.49136-0.26399,31.599c-0.22452,26.874-0.48826,31.72-1.764,32.41-0.825,0.44609-3.1612,1.5462-5.1914,2.4447-7.6696,3.3942-7.2467-0.25056-7.8275,67.461l-0.51897,60.5-0.23103-60.382zm17.055-146.89c-2.6326-3.175-9.0068-11.05-14.165-17.5-5.1581-6.45-9.8831-11.764-10.5-11.809-0.61686-0.045-3.7249-0.0126-6.9068,0.0722-4.1708,0.11108-7.0628-0.46439-10.363-2.0622-13.891-6.7246-13.983-28.087-0.14909-34.784,13.708-6.6361,28.798,2.3246,28.798,17.101,0,3.3558-0.66789,7.1454-1.5651,8.8804-1.9315,3.735-2.5183,2.7587,14.147,23.535,12.184,15.189,13.912,18.446,11.218,21.139-2.6083,2.6083-5.6599,1.2811-10.514-4.5726zm9.5135,3.5726c0.66-0.66,1.2-1.7324,1.2-2.3832,0-0.65077-5.8937-8.5483-13.097-17.55-7.2034-9.0017-13.563-17.352-14.133-18.556-0.77322-1.6344-0.62187-3.2238,0.59709-6.2702,3.4684-8.6684,0.84585-17.886-6.4656-22.724-3.5098-2.3227-5.3346-2.8161-10.414-2.8161-5.1363,0-6.8384,0.47116-10.255,2.8385-11.643,8.0684-10.383,25.538,2.2844,31.67,3.9306,1.9028,5.6205,2.1512,10.932,1.607l6.2825-0.64366,7.8645,9.7641c21.867,27.148,22.495,27.773,25.204,25.064zm188.64-20.088c-0.72134-1.8798,0.90843-40.397,1.7447-41.233,1.0053-1.0053,48.151-0.54032,49.176,0.48504,0.50462,0.50462,3.056,9.3816,5.6696,19.727,3.5619,14.098,4.4659,19.094,3.6092,19.946-0.76746,0.76325-10.752,1.3636-30.394,1.8277-25.015,0.591-29.332,0.48205-29.805-0.75225zm43.807-1.3171c8.8422-0.33994,15.75-1.0217,15.75-1.5544,0-1.4485-8.9085-35.883-9.553-36.926-0.82234-1.3306-46.16-1.1877-46.985,0.14803-0.76255,1.2338-2.3777,38.045-1.7216,39.238,0.24202,0.44005,6.362,0.55266,13.6,0.25022,7.238-0.30243,20.248-0.82235,28.91-1.1554zm38.913-0.69821c-1.1102-1.3377-11.163-40.441-11.163-43.422,0-1.3392,5.2317-4.41,20.506-12.037,11.278-5.6313,21.178-10.239,22-10.239,1.0437,0,1.5203,1.1298,1.5819,3.75,0.0485,2.0625,0.63622,16.35,1.306,31.75,0.85518,19.663,0.90336,28.336,0.16179,29.127-1.5999,1.7077-33.051,2.6858-34.393,1.0696zm32.72-1.6032c1.171-0.74166,1.1967-5.3546,0.16737-30.118-1.217-29.279-1.484-31.975-3.1672-31.975-1.3885,0-38.646,18.807-39.276,19.826-0.4353,0.70434,8.016,36.508,9.8959,41.924,0.51364,1.4797,30.09,1.7935,32.38,0.34358zm-112.87-72.34c0.01-8.5639,0.45161-14.074,1.25-15.581,0.93785-1.7697,5.994-4.2376,21-10.25,10.87-4.3555,20.179-7.919,20.685-7.919,0.88841,0,29.222,35.075,29.869,36.975,0.17518,0.51488-3.7533,2.9812-8.73,5.4806l-9.0485,4.5444h-27.52-27.52l0.0147-13.25zm61.932,8.2769c4.3462-2.1852,8.1658-4.3997,8.488-4.921,0.32221-0.52134-2.467-4.6959-6.1983-9.2769-3.7312-4.5809-9.8482-12.266-13.593-17.079-3.745-4.8125-7.4465-8.75-8.2255-8.75-1.6484,0-38.507,14.689-39.599,15.782-0.96411,0.96411-2.2882,24.552-1.4943,26.621,0.53997,1.4072,3.7218,1.5978,26.667,1.5978h26.054l7.9022-3.9731zm27.888-16.777c-4.151-4.4956-30.421-37.604-31.548-39.761-1.2264-2.3464,6.142-48.195,8.0634-50.173,1.4179-1.4596,36.961-14.316,39.579-14.316,1.6571,0,1.9618,1.0233,2.4568,8.25,0.73676,10.756,2.7528,64.122,2.9561,78.25l0.15831,11-9,4.7136c-4.95,2.5924-9.2533,4.73-9.5629,4.75s-1.7056-1.2011-3.1021-2.7136zm12.06-3.1972c4.3178-2.1709,8.0722-4.5334,8.343-5.25,0.73772-1.9515-3.1046-91.742-3.9939-93.331-0.62147-1.1105-2.5731-0.731-10.256,1.9943-5.2186,1.8512-13.711,4.8661-18.873,6.6999-6.4254,2.2828-9.6477,3.9648-10.219,5.3341-0.84601,2.0268-7.8963,42.831-7.8963,45.701,0,0.85754,6.5757,9.8257,14.613,19.929,16.174,20.333,18.347,22.87,19.584,22.87,0.46634,0,4.3806-1.7762,8.6984-3.9472zm-99.528-29.54c-1.061-2.7651,1.8362-70.437,3.0586-71.442,1.2045-0.98968,36.199,11.125,38.351,13.276,1.8438,1.8438-5.0247,43.355-7.5722,45.764-1.407,1.3306-8.0483,4.1592-31.945,13.606-0.68286,0.26994-1.5342-0.27184-1.8919-1.204zm18.329-6.9813c7.8073-3.1319,14.61-6.2203,15.118-6.863,1.2009-1.5207,7.6119-41.119,6.9405-42.868-0.41424-1.0795-33.665-13.888-35.875-13.819-1.2126,0.0376-4.4296,67.319-3.3056,69.138,0.34602,0.55988,1.1461,0.81311,1.778,0.56274,0.63187-0.25037,7.5367-3.0177,15.344-6.1496zm12.305-77.103c-11.275-4.1071-22.161-7.9188-24.192-8.4706-6.884-1.8706-15.254-14.561-18.833-28.553-2.2359-8.7425-2.4799-15.843-0.86329-25.127,0.61168-3.5125,0.84894-6.6496,0.52725-6.9713-0.3217-0.3217-3.1847,0.13641-6.3622,1.018-13.749,3.8147-28.66,2.986-39.825-2.2131-14.963-6.9682-20.717-17.737-15.374-28.774,9.3043-19.22,51.756-23.558,70.352-7.1896,2.55,2.2446,5.3079,5.3796,6.1286,6.9666,0.82068,1.587,2.0949,2.8855,2.8316,2.8855,1.9842,0,6.6092-3.9214,6.6092-5.6037,0-0.80221-5.3634-8.5819-11.919-17.288l-11.919-15.83-4.6956-0.52926c-5.3178-0.5994-8.9044-2.8846-12.306-7.8411-2.9896-4.3558-2.6582-11.997,0.7263-16.75,3.0982-4.351,4.6269-4.0048,1.6548,0.37484-4.865,7.169-4.1452,13.974,2.0538,19.417,2.6715,2.3456,4.4264,3.05,7.5986,3.05,3.4968,0,4.6414,0.57098,7.517,3.75,5.26,5.815,23.289,30.487,23.289,31.87,0,1.6703-7.0455,7.3801-9.1065,7.3801-0.90796,0-2.1836-1.2862-2.8347-2.8581-0.65113-1.572-2.8432-4.4666-4.8713-6.4326-13.801-13.378-44.071-15.17-61.478-3.6402-19.878,13.167-9.4677,34.469,19.298,39.491,9.401,1.6412,15.108,1.243,25.784-1.7987,8.8639-2.5255,9.9858-1.9352,8.4068,4.4237-3.3133,13.343-1.8878,26.388,4.296,39.315,5.9303,12.396,7.9049,13.976,25.024,20.017,8.2394,2.9073,19.727,6.989,25.528,9.0703l10.547,3.7842,24.878-8.9117c22.242-7.9673,25.257-9.3135,28.453-12.703l3.5752-3.7912,25.5-1.9745c14.025-1.086,27.115-2.4245,29.089-2.9745,5.3625-1.4944,11.572-6.4482,14.104-11.253,3.422-6.4916,3.2251-16.701-0.44243-22.94-3.2748-5.5709-6.2837-8.0975-12.446-10.451-4.3171-1.6487-5.7883-1.6586-25.692-0.17192-23.219,1.7343-23.693,1.6583-25.092-4.0241-1.2732-5.1711-9.6633-17.13-16.258-23.172-7.4711-6.846-19.066-13.049-29.263-15.655-4.1942-1.0719-10.409-1.648-17.518-1.6239-9.967,0.0338-12.06,0.38594-21.937,3.691-10.45,3.4969-10.991,3.5771-12.603,1.8688-4.1068-4.3531-23.941-31.645-23.941-32.943,0-0.79265,0.72509-2.8434,1.6113-4.5571,2.111-4.0821,1.4154-12.028-1.3189-15.067-2.8377-3.1542-3.6583-4.7959-2.0944-4.1903,2.1188,0.82056,5.8445,6.959,6.4316,10.597,0.35098,2.1747-0.18286,5.2196-1.5,8.5558l-2.0449,5.1795,12.077,16.07c6.6426,8.8388,12.533,16.07,13.089,16.07,0.55634,0,4.9973-1.3685,9.8687-3.0411,34.33-11.787,72.028,4.1834,86.357,36.585l2.5438,5.7519,8.7397-0.65244c4.8068-0.35884,15.04-0.94028,22.74-1.2921,13.742-0.62783,14.096-0.59111,19.188,1.9901,8.5602,4.339,13.319,12.345,13.302,22.377-0.0177,10.473-5.52,18.681-15.249,22.746-2.3489,0.98143-13.027,2.2744-29.946,3.626l-26.296,2.1007-4.2227,4.4049c-2.3225,2.4227-4.7975,4.4055-5.5,4.4062-0.70251,0.00068-11.322,3.6007-23.598,8s-23.526,7.9753-25,7.9465c-1.4736-0.0288-11.904-3.4126-23.179-7.5197zm47.764-50.371c-13.458-4.3116-19.471-19.379-12.484-31.28,7.9623-13.563,27.791-13.93,35.987-0.66573,1.8241,2.9523,3.0421,6.5494,3.386,10,1.3806,13.852-13.71,26.168-26.889,21.946zm16.624-3.9876c8.4471-5.2206,11.311-17.788,6.0857-26.705-7.4404-12.696-26.547-12.628-34.018,0.12188-1.9574,3.34-2.598,5.8092-2.598,10.014,0,15.818,16.903,24.992,30.531,16.569zm-17.266-5.7793c-6.6416-3.2719-8.9159-10.835-5.1269-17.049,4.1367-6.7847,11.639-8.9809,17.816-5.2152,6.0583,3.6936,7.89,12.156,3.9098,18.062-3.9832,5.9106-10.026,7.4405-16.598,4.2025zm11.911-0.80702c7.1095-3.6764,7.8267-13.474,1.4164-19.349-3.2112-2.9429-4.1689-3.3008-7.5998-2.8406-5.2886,0.70935-8.7121,3.1339-10.514,7.4461-4.2621,10.201,6.7237,19.901,16.697,14.744z"/>
   <path fill="#059493" d="m179.7,733.34c0.30783-67.884,0.0152-65.291,7.7914-69.03,2.1645-1.0408,4.6105-2.2437,5.4355-2.6731,1.2765-0.66436,1.5393-5.4889,1.764-32.379l0.26399-31.599,3.236-0.49136c1.7798-0.27024,21.686-0.98276,44.236-1.5834,22.55-0.60061,70.925-1.9612,107.5-3.0235s83.375-2.3872,104-2.9443c20.625-0.55705,41.662-1.2537,46.75-1.548l9.25-0.53522v4.5111c0,2.4811-0.66328,11.153-1.474,19.27-0.81067,8.1175-2.1607,21.626-3,30.018-1.7072,17.071-1.8738,21.915-0.77605,22.571,0.4125,0.24662,3.0128-0.0203,5.7784-0.59306,4.2353-0.87721,5.6272-0.75732,8.8249,0.7601,2.0881,0.99086,4.4405,2.7844,5.2276,3.9857,1.765,2.6937,22.419,84.282,22.419,88.56,0,4.4283-1.0314,5.9946-13.471,20.457-6.1498,7.15-11.471,13.788-11.824,14.75-0.58218,1.5855-2.4551,1.747-19.924,1.7182-15.333-0.0253-18.967-0.28124-17.748-1.25,2.3901-1.8986,33.034-37.73,33.658-39.356,0.30557-0.7963-3.6346-18.305-8.7559-38.909-9.1502-36.812-9.2889-37.549-8.009-42.543,0.79625-3.1068,0.94358-5.4408,0.37907-6.0053-0.5477-0.5477-22.259-0.81799-53.364-0.66436l-52.441,0.25902,0.15902,2.5c0.28929,4.5481,24.37,122.46,25.374,124.25,0.91801,1.6324-0.0163,1.75-13.899,1.75-14.778,0-14.883-0.016-14.883-2.2551,0-1.2403-5.083-27.598-11.295-58.573-10.896-54.324-11.25-56.495-10.011-61.331,0.78881-3.0778,0.92706-5.3709,0.3581-5.9398-0.54546-0.54546-16.329-0.81878-38.364-0.66436l-37.438,0.26236,0.16495,2.5c0.0907,1.375,0.47491,4.3188,0.85374,6.5417,0.61298,3.597-0.88298,8.2568-13.594,42.344l-14.283,38.303,3.3486,6.1556c7.6487,14.06,17.204,30.178,18.075,30.489,0.51364,0.18334,0.93389,0.74584,0.93389,1.25,0,0.51852-7.1667,0.91667-16.5,0.91667-11.764,0-16.5-0.32993-16.5-1.1495,0-0.63225-4.05-8.1908-9-16.797-6.346-11.033-9-16.619-9-18.942,0-3.038,9.0586-28.284,25.942-72.299,4.791-12.49,6.472-17.999,5.7213-18.75-1.4899-1.4899-65.291-1.4745-66.212,0.016-0.36677,0.59345-0.16084,2.956,0.45763,5.25,0.75964,2.8177,1.2002,23.395,1.3578,63.421l0.23336,59.25-14-0.00001-14-0.00001,0.27315-60.234zm15.507-152.02c-3.7507-4.5375-10.358-12.644-14.684-18.014l-7.8645-9.7641-6.2825,0.64366c-5.3113,0.54416-7.0012,0.29574-10.932-1.607-12.667-6.132-13.927-23.602-2.2844-31.67,3.4161-2.3674,5.1182-2.8385,10.255-2.8385,5.0794,0,6.9042,0.49346,10.414,2.8161,7.3115,4.8385,9.934,14.056,6.4656,22.724-1.219,3.0465-1.3703,4.6359-0.59709,6.2702,0.56968,1.2041,6.9295,9.5544,14.133,18.556,7.2034,9.0017,13.097,16.899,13.097,17.55,0,1.5519-2.0693,3.5832-3.6502,3.5832-0.68763,0-4.319-3.7125-8.0697-8.25zm200.46-13.45c-0.65608-1.1929,0.95905-38.004,1.7216-39.238,0.82555-1.3358,46.163-1.4786,46.985-0.14803,0.64454,1.0429,9.553,35.478,9.553,36.926,0,0.53271-6.9078,1.2144-15.75,1.5544-8.6625,0.33303-21.672,0.85295-28.91,1.1554-7.238,0.30244-13.358,0.18983-13.6-0.25022zm81.763-3.5501c-1.8799-5.4157-10.331-41.219-9.8959-41.924,0.62961-1.0187,37.887-19.826,39.276-19.826,1.6831,0,1.9502,2.6964,3.1672,31.975,1.0293,24.764,1.0037,29.377-0.16737,30.118-2.2894,1.45-31.866,1.1361-32.38-0.34358zm-79.179-61.348c-0.79386-2.0688,0.53019-25.656,1.4943-26.621,1.0923-1.0923,37.951-15.782,39.599-15.782,0.77902,0,4.4805,3.9375,8.2255,8.75s9.862,12.498,13.593,17.079c3.7312,4.5809,6.5205,8.7555,6.1983,9.2769-0.3222,0.52134-4.1418,2.7358-8.488,4.921l-7.9022,3.9731h-26.054c-22.945,0-26.127-0.19064-26.667-1.5978zm88.963-20.652c-6.421-7.0079-31.287-39.235-31.287-40.549,0-2.8695,7.0503-43.674,7.8963-45.701,0.57158-1.3694,3.7938-3.0513,10.219-5.3341,5.1614-1.8338,13.654-4.8487,18.873-6.6999,7.6827-2.7253,9.6344-3.1048,10.256-1.9943,0.88923,1.589,4.7316,91.38,3.9939,93.331-0.46508,1.2303-15.227,9.1972-17.041,9.1972-0.46633,0-1.7756-1.0125-2.9094-2.25zm-86.714-32.632c-1.1239-1.8185,2.093-69.1,3.3056-69.138,2.21-0.0686,35.461,12.74,35.875,13.819,0.6714,1.7496-5.7396,41.348-6.9405,42.868-0.74048,0.93769-10.379,5.0549-30.462,13.013-0.63187,0.25037-1.432-0.003-1.778-0.56274zm40.427-80.164c-5.775-2.1635-16.575-6.0164-24-8.5622-15.673-5.3736-18.772-7.8843-24.48-19.83-6.2102-12.998-7.6389-26.016-4.3213-39.377,1.579-6.3589,0.45714-6.9492-8.4068-4.4237-10.676,3.0418-16.383,3.4399-25.784,1.7987-28.766-5.0219-39.176-26.325-19.298-39.491,17.407-11.53,47.677-9.7379,61.478,3.6402,2.0281,1.9659,4.2202,4.8606,4.8713,6.4326,0.65113,1.572,1.9268,2.8581,2.8347,2.8581,2.061,0,9.1065-5.7098,9.1065-7.3801,0-1.3832-18.029-26.055-23.289-31.87-2.8756-3.179-4.0202-3.75-7.517-3.75-8.0712,0-14.936-9.5656-12.297-17.135,0.63687-1.8269,2.158-4.7908,3.3803-6.5864,2.1765-3.1973,2.3774-3.2649,9.7224-3.2716,7.434-0.007,7.5256,0.0253,10.411,3.6416,3.6312,4.5509,4.5827,11.529,2.2003,16.136-0.88623,1.7138-1.6113,3.7645-1.6113,4.5571,0,1.2978,19.835,28.59,23.941,32.943,1.6117,1.7083,2.1525,1.6281,12.603-1.8688,9.8772-3.3051,11.97-3.6573,21.937-3.691,7.1097-0.0241,13.324,0.55197,17.518,1.6239,10.197,2.6061,21.792,8.8093,29.263,15.655,6.5943,6.0425,14.984,18.001,16.258,23.172,1.3991,5.6824,1.8727,5.7584,25.092,4.0241,19.904-1.4866,21.375-1.4768,25.692,0.17192,6.1618,2.3532,9.1707,4.8798,12.446,10.451,3.6676,6.239,3.8645,16.449,0.44243,22.94-2.5329,4.8049-8.742,9.7587-14.104,11.253-1.9738,0.55002-15.064,1.8886-29.089,2.9745l-25.5,1.9745-3.5752,3.7912c-3.1927,3.3856-6.1883,4.7259-28,12.528-13.434,4.8054-25.1,8.7068-25.925,8.67-0.825-0.0369-6.225-1.8372-12-4.0006zm53.7-55.572c6.7497-4.173,10.696-11.814,9.9526-19.271-1.1635-11.674-9.6854-19.567-21.153-19.591-24.43-0.051-29.137,34.04-5.736,41.537,4.8579,1.5564,11.888,0.44595,16.936-2.6752z"/>
   <path fill="#131414" d="m478.43,306.41c-6.5389-3.6165-8.7242-8.9673-6.1645-15.094,1.8017-4.3122,5.2252-6.7367,10.514-7.4461,3.4309-0.46019,4.3886-0.10223,7.5998,2.8406,4.4838,4.1091,5.6928,9.757,3.1437,14.686-2.7336,5.2863-10.147,7.7483-15.093,5.0127z"/>
  </g>
 </g>
</svg>
