<?xml version="1.0" encoding="UTF-8" standalone="no"?>
<!-- Created with Inkscape (http://www.inkscape.org/) -->
<svg xmlns:rdf="http://www.w3.org/1999/02/22-rdf-syntax-ns#" xmlns="http://www.w3.org/2000/svg" height="100%" width="100%" version="1.1" xmlns:cc="http://creativecommons.org/ns#" xmlns:dc="http://purl.org/dc/elements/1.1/" viewBox="0 0 702.00812 268.75071">
 <metadata>
  <rdf:RDF>
   <cc:Work rdf:about="">
    <dc:format>image/svg+xml</dc:format>
    <dc:type rdf:resource="http://purl.org/dc/dcmitype/StillImage"/>
    <dc:title/>
   </cc:Work>
  </rdf:RDF>
 </metadata>
 <g transform="translate(-23.740558,-231.09847)">
  <g transform="translate(5.0039518,-194.14684)">
   <g transform="translate(-16.173177,4.249951)">
    <g transform="translate(13.131983,-5.0507627)">
     <g transform="matrix(1.042428,0,0,1.042428,-82.736835,52.629365)">
      <g transform="matrix(1.0974678,0,0,1.0974678,-181.72994,51.941095)">
       <path fill="#1c1216" d="m331.7,424.38c-1.2695-2.372-0.96427-3.9027,0.67448-3.3826,1.0434,0.33116,2.2282-0.33287,4.3123-2.4169,4.0047-4.0046,10.931-5.6972,15.254-3.7275,3.8468,1.7527,1.5874,3.39-5.5569,4.027-6.4487,0.57502-8.9753,1.6804-10.765,4.7094-1.5119,2.5595-2.8301,2.8254-3.9191,0.79054zm-45.384-4.1323c-0.78815-0.59612-2.9475-1.0857-4.7985-1.088-4.6287-0.006-8.737-1.2607-9.6381-2.9444-1.1227-2.0978-1.8771-12.554-0.90574-12.554,0.43439,0,1.7426,0.9528,2.9071,2.1173s4.4291,3.1335,7.2545,4.3755c4.8712,2.1413,5.1491,2.3959,5.3677,4.9183,0.14294,1.6502,0.77352,2.9992,1.661,3.5535,1.6006,0.99955,1.9291,2.7656,0.50777,2.7294-0.50753-0.013-1.5676-0.51121-2.3558-1.1073zm32.101-2.9668c1.0877-1.3106,4.5037-1.1577,4.9567,0.22188,0.21016,0.63998-0.6485,0.92279-2.8018,0.92279-2.7212,0-2.9874-0.14146-2.1548-1.1447zm-33.616-15.951c0.28634-1.3572,1.067-3.6303,1.7347-5.0514,0.96384-2.0513,1.2542-2.2795,1.4088-1.1074,0.41976,3.1825-0.94313,8.1023-2.3179,8.367-1.1642,0.22421-1.2758-0.0743-0.82557-2.2083zm59.619-34.424c-2.5316-1.1011-5.3366-2.6353-6.2335-3.4093l-1.6307-1.4072,1.8041-0.69293c2.1308-0.81836,11.267-0.27461,14.17,0.84329,1.7792,0.68531,2.0287,1.1721,2.0188,3.9377-0.008,2.2661-0.20758,2.8453-0.7075,2.0546-0.55444-0.87699-0.8828-0.91457-1.6128-0.18455-1.3094,1.3094-2.6102,1.1192-7.808-1.1416zm-35.64-4.9655c-1.3464-1.6224-1.525-6.2401-0.22195-5.74,1.3828,0.53063,2.4454,2.6876,2.4454,4.9638,0,2.1365-0.8486,2.4328-2.2234,0.7762zm-20.693,61.648c-3.0563-3.3595-3.6448-3.6875-6.6441-3.7036-4.9329-0.0264-9.0409-1.1938-10.488-2.9806-1.0254-1.2658-1.2919-3.0244-1.2919-8.5261,0-3.8123,0.27321-6.9314,0.60714-6.9314s2.4527,0.99961,4.7085,2.2214c3.9394,2.1337,4.1586,2.1701,5.5508,0.92279,0.79719-0.71423,2.3917-3.624,3.5434-6.4662,4.0524-10.001,9.3438-17.013,17.109-22.675,7.9942-5.8281,9.2458-8.7917,5.2782-12.498-1.7602-1.6443-2.1207-2.3834-1.4764-3.0276,1.9985-1.9985,0.86098-4.4194-4.9002-10.429-6.6132-6.8981-7.9928-8.584-7.0241-8.584,0.38084,0,4.6353,3.6542,9.4545,8.1206,5.8578,5.4289,9.3235,8.1205,10.456,8.1205,1.1447,0,4.4653-2.6313,10.248-8.1205,4.7049-4.4663,8.9052-8.1206,9.3342-8.1206,1.0201,0-0.0391,1.3383-6.5019,8.215-9.6712,10.291-9.2458,10.749,10.299,11.088,16.436,0.28562,18.337,0.76204,19.49,4.8832,0.31098,1.1114,0.5654,12.684,0.5654,25.717,0,29.405,0.44679,28.061-9.597,28.873-6.2347,0.50418-8.4094,1.5065-10.762,4.9602-0.98357,1.4441-2.1205,2.6204-2.5265,2.6141-0.40603-0.007-1.899-1.6333-3.3177-3.6155l-2.5795-3.6039-11.968-0.52795c-15.394-0.67902-16.371-0.48152-20.323,4.1082-1.7336,2.013-3.3181,3.6579-3.5211,3.6552-0.20302-0.004-1.8781-1.6635-3.7224-3.6908zm2.246,4.5371c0-0.34966-1.4351-2.1768-3.1891-4.0603-3.1652-3.3989-3.2251-3.4245-8.0114-3.4245-3.7977,0-5.3553-0.35823-7.3307-1.686-2.432-1.6346-2.5196-1.8652-2.8775-7.5669-0.54516-8.6856,0.0414-31.35,0.81127-31.35,0.36585,0,0.66519,3.6357,0.66519,8.0794,0,7.3235,0.15537,8.2571,1.661,9.9791,0.91357,1.0449,2.7786,2.2138,4.1445,2.5976,2.2179,0.62322,2.6915,0.47754,4.4294-1.3625,1.0703-1.1332,3.3702-4.7095,5.1109-7.9473,4.1128-7.6501,8.2178-12.574,14.347-17.208,2.7289-2.0636,5.3317-4.4434,5.7841-5.2886,1.1847-2.2136,0.31055-4.6867-2.0538-5.8109-2.9246-1.3906-14.061-2.1051-22.934-1.4714-9.5373,0.68113-10.489,1.3553-10.489,7.4305,0,2.3493-0.3322,4.4767-0.73824,4.7276-0.4651,0.28743-0.73822-1.4415-0.73822-4.6732,0-8.9106,1.5608-9.6031,21.815-9.6783,11.876-0.0442,13.62-0.40192,13.62-2.7934,0-0.53766-2.9898-4.1535-6.6441-8.0351-3.6542-3.8816-6.6441-7.5278-6.6441-8.1027,0-2.4878,3.18-0.54324,10.973,6.7103,4.5829,4.2655,8.9527,8.0873,9.7108,8.493,1.1252,0.60219,2.1653,0.0786,5.6654-2.8515,2.358-1.974,4.9516-4.3483,5.7636-5.2763,2.7291-3.1188,10.064-8.8857,10.756-8.4575,1.5018,0.92818,0.41485,2.6623-5.9947,9.5641-3.8506,4.1463-6.5833,7.7007-6.4505,8.3902,0.33438,1.7364,3.2315,2.1293,16.453,2.2317,12.837,0.0994,16.891,0.80157,18.143,3.1423,2.3919,4.4693,2.771,48.383,0.46535,53.901-1.2863,3.0786-4.0091,4.3128-9.5148,4.3128-4.9768,0-7.9981,1.4557-10.493,5.0555-1.1682,1.6858-2.5378,3.065-3.0434,3.065-0.50564,0-1.8605-1.234-3.0109-2.7422-4.328-5.6743-3.3485-5.3784-17.803-5.3784h-13.075l-3.7787,4.0603c-3.4827,3.7422-5.5058,5.0005-5.5058,3.4246zm-3.3439-2.7232c-3.6549-3.9603-3.7784-4.0234-7.8879-4.0234-4.7718,0-7.2583-0.77257-9.4092-2.9234-1.4604-1.4604-1.5059-2.3155-1.5059-28.287,0-29.852-0.0808-29.356,5.0048-30.768,1.5106-0.41955,8.0618-0.79777,14.558-0.84051,12.255-0.0807,15.184-0.45077,15.695-1.9832,0.16583-0.49752-2.7163-4.0296-6.4048-7.849-6.3037-6.5275-7.8601-9.2303-5.9833-10.39,1.2455-0.76976,3.7284,1.0606,11.623,8.5685,4.2084,4.0023,8.2926,7.62,9.0761,8.0393,1.6007,0.85666,2.7307-0.0117,14.223-10.926,6.5633-6.2332,8.796-7.2247,9.243-4.1048,0.16055,1.1205-1.5869,3.5123-6.0904,8.3362-3.4736,3.7206-6.3156,7.4118-6.3156,8.2026s0.083,1.4692,0.18454,1.5075c0.10151,0.0383,7.1095,0.29088,15.573,0.56134l15.389,0.49173,1.7189,1.9984c2.4394,2.8359,2.8671,7.3983,2.8912,30.838,0.0288,27.999-0.20067,28.608-11.105,29.456l-6.4239,0.4995-3.3927,3.8475c-1.866,2.1161-3.7249,3.854-4.131,3.8619-0.40603,0.008-2.2861-1.7363-4.178-3.876l-3.4398-3.8903-11.969-0.23661c-13.753-0.27189-14.966,0.0337-18.827,4.7458-1.4612,1.7832-3.0498,3.2256-3.5301,3.2053-0.48034-0.0203-2.5442-1.8474-4.5864-4.0603zm-6.8392-28.57c0.64488-0.50753,3.0379-3.9698,5.3178-7.6939,4.1126-6.7177,8.339-11.54,15.768-17.991,2.124-1.8443,3.8617-3.7468,3.8617-4.2278,0-0.48097-0.89849-1.4635-1.9966-2.1834-1.7273-1.1324-3.8146-1.3089-15.476-1.3089-11.946,0-13.629,0.14964-14.798,1.3162-1.1231,1.1206-1.3539,2.9309-1.5529,12.181-0.12858,5.9755,0.0413,12.526,0.37717,14.556,0.53288,3.2196,0.94,3.856,3.1867,4.9819,3.0669,1.5369,3.7673,1.5857,5.3116,0.37026zm8.5198,30.733c-1.3183-1.4449-2.6552-3.0828-2.971-3.6398-0.76351-1.3469-5.2437-2.5381-9.5649-2.5432-2.815-0.004-3.964-0.42319-5.9058-2.158l-2.4109-2.1539-0.26752-9.4732c-0.14713-5.2103-0.0252-17.581,0.27102-27.491,0.69576-23.279-1.0874-21.232,18.81-21.586,10.652-0.1892,14.963-0.52099,15.646-1.2043,1.1562-1.1564,1.1809-1.1201-6.5908-9.6826-3.3497-3.6906-6.0853-6.9621-6.0791-7.2701,0.006-0.30798,0.30275-1.0202,0.65898-1.5827,1.2663-1.9995,4.3748-0.0618,12.882,8.03,4.699,4.4695,9.0558,8.1264,9.6818,8.1264s5.2053-3.8202,10.176-8.4895c8.9712-8.4267,11.638-9.9592,12.667-7.2785,0.62122,1.6189-1.0072,3.9645-7.4552,10.738-2.9709,3.121-5.4016,6.0054-5.4016,6.4098,0,1.2234,2.018,1.4715,16.241,1.9966,9.1152,0.33655,14.312,0.8367,15.626,1.5039,3.6138,1.8351,3.9297,4.3187,3.9336,30.924,0.004,22.059-0.12183,24.591-1.3237,26.793-1.5233,2.7901-3.7412,3.8406-8.1332,3.8521-6.8273,0.0179-8.5859,0.7145-11.433,4.5285-1.6082,2.1542-3.252,3.5839-4.1204,3.5839-0.80909,0-2.9648-1.6971-4.8995-3.8572l-3.4547-3.8572-10.547-0.28966c-12.883-0.35381-15.228,0.22515-18.951,4.6788-1.503,1.7981-3.1723,3.4379-3.7095,3.644-0.53722,0.20615-2.0553-0.80739-3.3736-2.2523zm-4.3518-37.931c5.1725-7.7256,6.9344-9.9592,12.541-15.899,2.9175-3.0908,5.1146-5.927,4.8823-6.3028-0.23222-0.37577-1.2169-0.6832-2.1882-0.6832-0.97128,0-3.6791-0.49832-6.0174-1.1074-2.5037-0.65214-7.5152-1.1073-12.191-1.1073-7.094,0-8.0208,0.15206-8.7037,1.4279-0.43737,0.81722-0.7642,6.588-0.7642,13.493,0,14.569,0.37338,15.55,5.7895,15.2,3.3332-0.21544,3.5366-0.36896,6.6511-5.0207zm2.6713,36.506c-3.5369-3.8325-3.8871-4.0235-7.3823-4.0275-5.7417-0.007-9.077-1.2253-10.718-3.9169-1.3508-2.2153-1.4354-3.9081-1.438-28.734l-0.004-26.38,2.0986-2.3487,2.0986-2.3487,14.845-0.43128c9.8423-0.28597,15.136-0.72324,15.71-1.2977,0.66221-0.66278-0.71715-2.5278-5.8697-7.9364-6.6659-6.9972-7.733-9.0132-5.6751-10.721,1.5908-1.3202,3.2525-0.16267,12.791,8.9102,4.6432,4.4165,8.8356,8.0299,9.3164,8.0299,0.48085,0,4.7315-3.6238,9.446-8.0529,9.7098-9.1222,11.259-10.195,12.835-8.8872,2.0314,1.6859,1.0196,3.6754-5.2148,10.254-5.2296,5.5182-7.1757,8.3954-6.0904,9.0045,0.10162,0.0569,6.6808,0.30852,14.621,0.55901,15.758,0.49714,17.574,0.97606,19.329,5.0973,0.58136,1.3646,0.86146,10.019,0.88984,27.492,0.0381,23.497-0.0646,25.663-1.3079,27.561-1.8309,2.7954-5.4358,4.1515-11.036,4.1515-5.14,0-5.7624,0.33257-9.3268,4.9831-1.3226,1.7256-2.8594,3.1375-3.4152,3.1375-0.55578,0-2.1058-1.3632-3.4446-3.0292-3.8397-4.7786-4.9454-5.0948-17.716-5.0652-12.587,0.0292-13.13,0.18538-17.217,4.9612-1.4751,1.7233-3.0713,3.1166-3.5472,3.0963s-2.5361-1.8474-4.5783-4.0603zm-1.8139-39.214c2.2498-3.3168,5.8256-7.8946,7.9462-10.173,3.8026-4.0856,4.5842-5.7751,3.097-6.6943-0.77727-0.48037-14.158-3.0763-19.65-3.8122-2.7376-0.36683-3.1216-0.22583-3.6439,1.3383-0.81918,2.453-0.39288,22.729,0.51347,24.422,0.59965,1.1205,1.427,1.3517,4.1967,1.1725,3.4223-0.22132,3.4823-0.27113,7.5403-6.2536zm1.4666,40.321c-3.2794-3.6588-3.3971-3.7155-9.1697-4.4162-6.9602-0.84488-8.9535-1.981-9.9836-5.6901-0.46862-1.6874-0.77234-13.064-0.77485-29.022l-0.004-26.247,2.4344-2.3595,2.4344-2.3595,12.884-0.01c13.002-0.01,16.206-0.32566,16.206-1.5957,0-0.38244-2.8237-3.8218-6.275-7.6431-3.4512-3.8213-6.275-7.4046-6.275-7.9629,0-1.4835,2.4521-3.4587,4.2938-3.4587,1.034,0,4.8201,3.1114,10.78,8.8588,5.0523,4.8723,9.3795,8.8588,9.616,8.8588,0.23652,0,4.494-3.8346,9.4609-8.5213,4.967-4.6867,9.7929-8.7125,10.724-8.9463,1.9549-0.49065,4.5867,1.4948,4.5867,3.4601,0,0.69663-2.891,4.3377-6.4245,8.0913-8.337,8.8563-8.325,8.8687,8.5957,8.8702,10.159,0.00073,12.661,0.21917,14.807,1.2919,4.7384,2.3679,4.7994,2.7738,4.7994,31.959,0,24.172-0.10636,26.401-1.3493,28.299-1.8747,2.8619-5.4612,4.1512-11.547,4.1512h-5.1926l-2.6547,3.6952c-1.5674,2.1818-3.4378,3.8917-4.5667,4.1751-1.6256,0.40801-2.3612-0.0357-4.9109-2.9624-3.7976-4.359-5.7672-4.9079-17.611-4.9079-10.751,0-12.142,0.44616-15.875,5.0913-3.2536,4.0492-4.8645,3.9242-9.0086-0.69933z"/>
      </g>
      <path opacity="0.98999999" stroke-linejoin="round" d="m127.28,478.09c0,19.608-12.44,37.057-30.977,43.45" transform="matrix(0.1091785,-0.9437944,0.77896558,0.09011104,-183.5298,504.82507)" stroke="#1a1a1a" stroke-linecap="round" stroke-miterlimit="4" stroke-width="5" fill="none"/>
      <path opacity="0.98999999" stroke-linejoin="round" d="m127.28,478.09c0,19.608-12.44,37.057-30.977,43.45" transform="matrix(0.16447678,-1.4218209,1.1685664,0.1351802,-376.62071,526.96423)" stroke="#1a1a1a" stroke-linecap="round" stroke-miterlimit="4" stroke-width="5" fill="none"/>
      <path opacity="0.98999999" stroke-linejoin="round" d="m127.28,478.09c0,19.608-12.44,37.057-30.977,43.45" transform="matrix(0.23326948,-2.0164999,1.6901378,0.19551579,-638.26139,553.12977)" stroke="#1a1a1a" stroke-linecap="round" stroke-miterlimit="4" stroke-width="5" fill="none"/>
     </g>
     <g stroke-width="2" font-size="119.24372864px" line-height="125%" font-family="&apos;M+ 2p light&apos;" transform="translate(0,196.68125)" font-style="normal" stroke="#000" font-stretch="normal" stroke-miterlimit="4" font-variant="normal" font-weight="normal" style="writing-mode:lr-tb;letter-spacing:0px;word-spacing:0px;" fill="#1a1a1a">
      <path d="m285.3,371.92,0-84.546,2.3872,0,0,87.049-3.8173,0-54.374-84.546-0.24018,0,0,84.546-2.3836,0,0-87.049,3.8137,0,54.378,84.546z"/>
      <path d="m314.08,298.1,0-13.115,2.3836,0,0,13.115zm0,76.318,0-62.005,2.3836,0,0,62.005z"/>
      <path d="m382.92,369.29,1.0735,2.147c-5.2475,2.7826-10.813,4.174-16.696,4.174-8.9035,0-16.098-2.9616-21.583-8.8847-5.4852-5.9231-8.2278-13.694-8.2278-23.313-0.00001-9.9369,2.6632-17.787,7.9895-23.55s12.6-8.6444,21.821-8.6445c5.8831,0.00006,11.448,1.3914,16.696,4.174l-1.0735,2.147c-5.0074-2.6249-10.215-3.9374-15.622-3.9374-8.5857,0.00006-15.303,2.6238-20.151,7.8712-4.8484,5.2475-7.2726,12.561-7.2726,21.94-0.00001,8.9035,2.5036,16.098,7.511,21.583,5.0073,5.4852,11.645,8.2278,19.913,8.2278,5.4076,0,10.615-1.3113,15.622-3.9338z"/>
      <path d="m405.55,366.97c-5.0073-5.7642-7.511-13.615-7.511-23.552-0.00001-9.9369,2.5042-17.787,7.5128-23.55,5.0085-5.763,11.846-8.6444,20.511-8.6445,8.6657,0.00006,15.502,2.8816,20.51,8.6445,5.0072,5.7631,7.5109,13.613,7.511,23.55-0.00007,9.937-2.5037,17.788-7.511,23.552-5.0074,5.7642-11.844,8.6463-20.51,8.6463-8.6658,0-15.504-2.8821-20.513-8.6463zm1.7322-1.7285c4.5706,5.3251,10.831,7.9877,18.781,7.9877s14.21-2.6632,18.781-7.9895c4.5706-5.3263,6.8559-12.6,6.8559-21.821-0.00006-9.2213-2.2854-16.495-6.8559-21.821-4.5707-5.3263-10.831-7.9894-18.781-7.9895-7.9501,0.00006-14.21,2.6632-18.781,7.9895-4.5706,5.3264-6.8559,12.6-6.8559,21.821-0.00001,9.2213,2.2853,16.496,6.8559,21.823z"/>
      <path d="m531.77,365.95,1.31,1.9105c-7.4722,5.1674-16.217,7.7511-26.234,7.7511-12.72,0-22.856-4.0545-30.408-12.163-7.5522-8.109-11.328-18.96-11.328-32.553-0.00001-13.753,3.7367-24.644,11.21-32.673,7.4733-8.0288,17.649-12.043,30.526-12.043,10.017,0.00009,18.762,2.5838,26.234,7.7511l-1.31,1.9068c-6.9967-4.8495-15.305-7.2743-24.924-7.2744-12.162,0.00008-21.76,3.7962-28.796,11.388-7.0355,7.5923-10.553,17.907-10.553,30.944-0.00001,12.877,3.5772,23.152,10.732,30.823,7.1543,7.6711,16.693,11.507,28.617,11.507,9.4614,0,17.769-2.4248,24.924-7.2744z"/>
      <path d="m591.93,360.71-0.23654,0c-2.067,4.6094-5.1675,8.246-9.3014,10.91-4.134,2.6638-8.9436,3.9957-14.429,3.9957-5.9632,0-10.733-1.6297-14.31-4.889-3.5772-3.2594-5.3658-7.5928-5.3658-13-0.00001-6.9942,3.1599-12.419,9.4797-16.276,6.3198-3.8561,15.283-5.7842,26.889-5.7842h7.1543v-0.59316c-0.00005-8.1101-1.3714-13.715-4.1139-16.816-2.7427-3.1004-7.7312-4.6506-14.966-4.6507-7.4722,0.00006-14.428,1.8681-20.866,5.6041l-1.1936-2.0269c6.8365-3.9738,14.19-5.9607,22.06-5.9607,7.87,0.00006,13.415,1.7492,16.636,5.2475,3.2205,3.4984,4.8308,9.6993,4.8308,18.603v22.653c-0.00006,5.5653,0.59553,11.131,1.7868,16.696h-2.3836c-1.0335-4.9297-1.5903-9.5003-1.6703-13.712zm-41.259-2.984c-0.00001,4.772,1.5502,8.5487,4.6507,11.33,3.1004,2.7814,7.3144,4.1722,12.642,4.1722,6.9166,0,12.62-2.2453,17.111-6.7358,4.4905-4.4906,6.7358-10.194,6.7358-17.111v-11.328h-7.1543c-10.81,0.00004-19.177,1.7092-25.1,5.1274-5.9231,3.4183-8.8847,8.2667-8.8847,14.545z"/>
      <path d="m652.9,315.99-1.0735,2.147c-6.3611-3.0228-12.761-4.5342-19.2-4.5342-5.6429,0.00006-10.134,1.1924-13.474,3.5772-3.3394,2.3848-5.0091,5.5653-5.0091,9.5415-0.00001,3.576,1.3119,6.4969,3.9356,8.7628s7.5528,4.1146,14.787,5.5459c7.6322,1.5114,13.177,3.6779,16.634,6.4993,3.457,2.8215,5.1856,6.617,5.1856,11.387-0.00005,5.1674-1.987,9.2419-5.9607,12.224-3.9739,2.9816-9.3402,4.4724-16.099,4.4724-7.312,0-14.267-1.9881-20.866-5.9644l1.1936-2.0269c6.1208,3.7361,12.678,5.6041,19.673,5.6041,6.0432,0,10.833-1.2718,14.371-3.8155,3.5371-2.5437,5.3057-6.0414,5.3057-10.493-0.00004-4.1339-1.5503-7.4133-4.6507-9.8381-3.1005-2.4248-8.1878-4.3128-15.262-5.6642-7.3145-1.4313-12.581-3.4382-15.801-6.0208-3.2193-2.5825-4.829-6.1396-4.829-10.671,0-4.6919,1.888-8.4486,5.6642-11.27,3.7761-2.8214,8.8434-4.2321,15.202-4.2322,6.9166,0.00006,13.674,1.5903,20.273,4.7708z"/>
      <path d="m709.59,371.56,0.83697,2.2635c-3.3382,1.1936-6.9154,1.7904-10.732,1.7904-6.1209,0-10.334-1.2718-12.64-3.8155s-3.4589-7.235-3.4589-14.074v-40.542h-14.905v-2.3836h14.905v-22.657h2.3836v22.657h25.637v2.3836h-25.637v40.542c-0.00002,6.361,0.97402,10.535,2.9221,12.522,1.9481,1.9869,5.5458,2.9804,10.793,2.9804,3.4182,0,6.7164-0.55556,9.8945-1.6667z"/>
     </g>
    </g>
   </g>
  </g>
 </g>
 <g style="word-spacing:0px;letter-spacing:0px;writing-mode:lr-tb;" font-family="&apos;M+ 2p light&apos;" transform="matrix(0.24912004,0,0,0.24912004,232.59442,127.67278)" font-style="normal" font-stretch="normal" font-size="72px" font-variant="normal" font-weight="normal" line-height="125%" fill="#000">
  <path d="m-325.73,290.29c0.93602,0.93607,1.404,2.0761,1.404,3.42-0.00001,1.344-0.46803,2.4719-1.404,3.3838-0.93605,0.91188-2.0761,1.3678-3.42,1.3678-1.344,0.00003-2.4723-0.45591-3.3849-1.3678-0.91261-0.91185-1.3689-2.0398-1.3689-3.3838-0.00001-1.344,0.45629-2.484,1.3689-3.42,0.91259-0.936,2.0409-1.404,3.3849-1.404,1.344,0.00003,2.484,0.46805,3.42,1.404zm21.742,21.709c0.93599,0.91114,1.404,2.0387,1.404,3.3827-0.00004,1.344-0.46769,2.484-1.403,3.42-0.93534,0.93604-2.0754,1.404-3.42,1.4041-1.3448-0.00001-2.4848-0.46802-3.42-1.4041-0.93534-0.93603-1.403-2.076-1.403-3.42-0.00003-1.344,0.46762-2.4719,1.403-3.3838,0.93527-0.91186,2.0753-1.3678,3.42-1.3678,1.3447,0.00001,2.4843,0.45631,3.419,1.3689zm21.709-21.709c0.91254,0.93607,1.3688,2.0761,1.3689,3.42-0.00007,1.344-0.45636,2.4719-1.3689,3.3838-0.91266,0.91188-2.041,1.3678-3.3849,1.3678-1.344,0.00003-2.4841-0.45591-3.42-1.3678-0.93609-0.91185-1.4041-2.0398-1.404-3.3838-0.00006-1.344,0.46796-2.484,1.404-3.42,0.93598-0.936,2.076-1.404,3.42-1.404,1.3439,0.00003,2.4722,0.46805,3.3849,1.404zm-21.709-21.744c0.93599,0.93609,1.404,2.0761,1.404,3.42-0.00004,1.344-0.46769,2.484-1.403,3.42-0.93534,0.93608-2.0754,1.4041-3.42,1.404-1.3448,0.00005-2.4848-0.46797-3.42-1.404-0.93534-0.93599-1.403-2.076-1.403-3.42-0.00003-1.344,0.46762-2.484,1.403-3.42,0.93527-0.93598,2.0753-1.404,3.42-1.404,1.3447,0.00005,2.4843,0.46807,3.419,1.404zm23.509-0.0374-25.055,25.058,25.055,25.055-1.8721,1.8721-25.055-25.055-25.055,25.055-1.8721-1.8721,25.055-25.055-25.055-25.058,1.8721-1.7996,25.055,24.985,25.055-24.985z"/>
  <path d="m-264.78,291.05,0-3.0234,18.936,0,0-12.456-20.232,0,0-3.096,20.232,0,0-10.081,3.5266,0,0,29.16c-0.00003,3.1201-0.14358,6.0242-0.43066,8.7122,0.67087-0.24022,1.6065-0.58812,2.807-1.0437,1.2004-0.45554,2.0167-0.75583,2.4488-0.90087l0.79101,3.0256c-1.7271,0.67092-3.887,1.4627-6.4797,2.3752-0.91263,5.5196-2.7488,9.9716-5.5086,13.356-2.7598,3.3845-6.8276,6.3483-12.204,8.8912l-2.0149-2.9509c4.5117-2.1123,8.0156-4.5004,10.512-7.1642,2.4961-2.6638,4.2722-6.2758,5.3284-10.836-6.4321,2.064-12.864,3.8159-19.296,5.2559l-0.72071-3.096c7.4883-1.6802,14.376-3.5764,20.663-5.6887,0.38523-2.688,0.57786-6.1435,0.57788-10.367v-0.0725zm60.768,13.896,0,3.096-22.32,0,0,16.849-3.5288,0,0-62.497,3.5288,0,0,10.081,21.599,0,0,3.096-21.599,0,0,12.599,20.303,0,0,3.0234-20.303,0,0,13.753z"/>
  <path d="m-170.46,266.57c-5.1358,10.223-12.648,19.271-22.537,27.143l-2.3027-2.5203c9.4556-7.3432,16.704-15.959,21.744-25.846zm14.111,0,3.096-1.2239c5.0405,9.8877,12.289,18.503,21.744,25.846l-2.3027,2.5203c-9.8892-7.872-17.402-16.92-22.537-27.143zm4.177,31.32,2.9509-1.5842c6.1918,8.5444,11.856,17.353,16.994,26.424l-3.0256,1.4392c-1.919-3.2637-3.3106-5.6155-4.1748-7.0554-18.481,2.8315-36.145,4.5352-52.994,5.1108l-0.14282-3.096c2.3042-0.0952,5.8564-0.28711,10.657-0.57568,4.7036-10.992,8.8073-22.704,12.311-35.136l3.3113,1.0086c-3.5039,12.337-7.4158,23.641-11.736,33.913,11.665-0.81591,23.952-2.1841,36.864-4.1045-4.0313-6.3354-7.7029-11.783-11.015-16.343z"/>
  <path d="m-122.08,275.86,0-3.0234,38.303,0c-0.23881-3.9843-0.3582-7.801-0.35816-11.45h3.3838c-0.000046,4.4166,0.0959,8.2332,0.28784,11.45h19.727v3.0234h-19.512c0.43208,5.9034,1.1521,11.411,2.1599,16.523,1.0078,5.1123,2.0877,9.2765,3.2399,12.493,1.152,3.2161,2.3279,6,3.5277,8.3518,1.1996,2.3518,2.2437,4.0316,3.1322,5.0394,0.88837,1.0078,1.5486,1.5117,1.9808,1.5117,1.9672,0,3.4313-4.7996,4.3923-14.399l3.2388,0.86353c-1.1514,11.616-3.5992,17.424-7.3433,17.424-0.95953,0-2.0633-0.55225-3.3113-1.6567-1.2481-1.1045-2.6284-2.9165-4.1407-5.436-1.5125-2.5195-2.9286-5.5554-4.2484-9.1077-1.3199-3.5522-2.5317-8.0881-3.6354-13.608-1.1038-5.5195-1.8959-11.52-2.3763-18zm36.288,11.232,0,3.0234-14.328,0,0,25.271c7.248-1.5835,12.744-3.0469,16.488-4.3901l0.7207,2.8784c-8.6411,3.1201-20.761,5.8081-36.36,8.064l-0.43286-3.0234c4.7036-0.67236,10.08-1.6084,16.128-2.8081v-25.991h-14.328v-3.0234zm8.2068-22.968,1.5842-2.5928c4.0327,1.9673,8.2089,4.3675,12.529,7.2004l-1.7271,2.5203c-4.6085-2.9765-8.7371-5.3525-12.386-7.1279z"/>
  <path d="m-49.287,272.9c16.465,0.00005,34.897-1.4157,55.296-4.2473l0.36035,3.241c-10.225,1.3916-18.397,4.4634-24.516,9.2153-6.1194,4.752-9.1791,10.296-9.1791,16.631-0.000028,5.9048,2.1236,10.597,6.371,14.077,4.2473,3.4797,10.307,5.5558,18.179,6.2282l-0.35815,3.3113c-8.7364-0.67236-15.553-3.0604-20.449-7.1642-4.8963-4.1038-7.3444-9.4676-7.3444-16.092-0.000024-5.2324,1.716-9.9726,5.1482-14.221,3.4321-4.248,8.3159-7.6193,14.651-10.114l-0.07031-0.14502c-13.537,1.7286-26.233,2.5928-38.09,2.5928zm42.48,11.017,2.7378-1.5842c2.1108,3.2637,4.4384,7.2474,6.9829,11.951l-2.8081,1.3689c-2.3043-4.3198-4.6084-8.2317-6.9126-11.736zm9.5054-2.8806,2.8081-1.5842c2.7363,4.2246,5.1364,8.2808,7.2004,12.168l-2.8081,1.4392c-2.5447-4.61-4.9449-8.62-7.2007-12.03z"/>
  <path d="m43.414,287.16c-1.8955,1.919-2.8433,4.1986-2.8433,6.839-0.000023,2.6404,0.94773,4.9204,2.8433,6.8401,1.8955,1.9197,4.1872,2.8795,6.8752,2.8795,2.688,0.00002,4.9801-0.95982,6.8763-2.8795s2.8443-4.2,2.8444-6.8412c-0.000043-2.9267-0.89982-5.2782-2.6993-7.0543-1.7996-1.7761-4.1401-2.6642-7.0214-2.6642-2.688,0.00003-4.9798,0.96023-6.8752,2.8806zm-6.2996,6.7676c-0.000021-3.6489,1.2118-6.6852,3.6354-9.1088,2.4236-2.4235,5.484-3.6353,9.1813-3.6354,3.7426,0.00004,6.958,1.128,9.646,3.3838h0.14502c-0.04838-1.9687-0.14433-4.6325-0.28784-7.9915-0.000043-0.14497-0.01213-0.33724-0.03626-0.57678-0.02421-0.23946-0.0363-0.43172-0.03625-0.57678-14.112,0.62406-26.496,0.93608-37.151,0.93603v-3.0959c11.711,0.00004,24.071-0.2878,37.079-0.86353-0.1436-3.5039-0.21537-7.0561-0.21533-10.657h3.3838c-0.000045,4.6568,0.04829,8.1607,0.14502,10.512,6.7675-0.3354,13.535-0.74336,20.303-1.2239l0.21753,3.0256c-6.9127,0.47905-13.705,0.88701-20.377,1.2239-0.000046,0.19193,0.01204,0.47978,0.03625,0.86352,0.02412,0.38383,0.03621,0.67167,0.03626,0.86353,0.19185,6.3355,0.2878,11.087,0.28784,14.256,0.76753,2.5928,1.1513,5.617,1.1514,9.0725-0.000048,6.2402-2.004,11.376-6.0117,15.408-4.0078,4.032-9.7076,6.576-17.099,7.6322l-0.57568-3.3135c11.808-1.6318,18.456-7.0078,19.942-16.128,0.09664-0.57567,0.19332-1.2956,0.29004-2.1599h-0.14502c-2.688,3.3604-6.2637,5.0405-10.727,5.0405-3.7442,0.00001-6.8163-1.2239-9.2164-3.6716-2.4002-2.4477-3.6002-5.5195-3.6002-9.2153z"/>
  <path d="m96.765,321.47c-2.0391-2.0405-3.0586-4.5249-3.0586-7.4531-0.000005-2.9282,1.0199-5.4243,3.0597-7.4883s4.5238-3.0959,7.452-3.096c2.9282,0.00002,5.4243,1.032,7.4883,3.096,2.0639,2.064,3.0959,4.5601,3.0959,7.4883-0.00002,2.9282-1.032,5.4122-3.0959,7.452-2.064,2.0398-4.5601,3.0597-7.4883,3.0597-2.9282-0.00001-5.4126-1.0195-7.4531-3.0586zm2.0522-12.889c-1.4883,1.5117-2.2324,3.3237-2.2324,5.436-0.000008,2.1123,0.74413,3.9122,2.2324,5.3998s3.2882,2.2313,5.3998,2.2313,3.9236-0.74377,5.436-2.2313c1.5124-1.4876,2.2687-3.2875,2.2687-5.3998-0.00002-2.1123-0.75625-3.9243-2.2687-5.436-1.5125-1.5117-3.3245-2.2676-5.436-2.2676-2.1116,0.00001-3.9115,0.75587-5.3998,2.2676z"/>
  <path d="m199.26,305.88c-3.791-1.7285-7.2708-2.5928-10.439-2.5928-3.5523,0.00002-6.2644,0.6603-8.1365,1.9808-1.8721,1.3206-2.8081,3.1564-2.8081,5.5074-0.00002,2.5928,0.9481,4.6091,2.8444,6.0491,1.8962,1.4399,4.5963,2.1599,8.1002,2.1599,3.7924,0,6.4804-0.85217,8.064-2.5565,1.5835-1.7043,2.3752-4.548,2.3752-8.5309zm-0.0703-3.3838c-0.0484-1.8237-0.12088-4.656-0.21753-8.4968-0.0469-0.4321-0.0824-1.1041-0.10656-2.016-0.0242-0.91184-0.0363-1.5838-0.0363-2.016-8.4478,0.57718-16.992,0.86575-25.633,0.86572v-3.0256c9.3603,0.00003,17.881-0.26364,25.561-0.79102-0.0952-4.7036-0.14286-8.28-0.14282-10.729-9.7442,0.52885-19.176,0.79326-28.296,0.79322v-3.0234c10.32,0.00004,19.775-0.26436,28.367-0.79321,0.0483-3.2636,0.2402-6.8393,0.57569-10.727l3.386,0.0725c-0.33695,3.7427-0.52958,7.2225-0.57788,10.439,6.624-0.38374,13.537-1.0078,20.738-1.8721l0.28785,3.0234c-7.2012,0.81596-14.21,1.44-21.026,1.8721-0.00004,4.752,0.0241,8.3042,0.0725,10.657,4.56-0.33688,10.488-0.93673,17.785-1.7996l0.28784,3.0234c-5.7598,0.71927-11.76,1.3191-18,1.7996-0.00004,0.48049,0.012,1.1888,0.0363,2.1248,0.0241,0.93606,0.0597,1.6436,0.10656,2.1226,0.0483,1.2012,0.10873,2.9176,0.18128,5.1493,0.0725,2.2317,0.10872,3.8515,0.10876,4.8593,4.9907,2.4961,11.422,6.7683,19.294,12.817l-2.0149,2.5203c-7.1046-5.521-12.864-9.457-17.279-11.808v0.36036c-0.00004,4.9907-1.1042,8.6023-3.3124,10.835-2.2083,2.2324-5.7602,3.3486-10.656,3.3486-4.5132-0.00001-8.0178-0.9961-10.514-2.9883-2.4961-1.9922-3.7442-4.7644-3.7441-8.3166-0.00002-3.2637,1.2601-5.8315,3.7804-7.7036,2.5202-1.872,6.0128-2.8081,10.478-2.8081,3.2636,0.00001,6.7676,0.74415,10.512,2.2324z"/>
  <path d="m295.38,315.38,0.43066,3.096c-5.5679,1.0562-10.392,1.5842-14.471,1.5842-11.856,0-17.785-2.9275-17.785-8.7825-0.00003-4.081,3.3362-8.6894,10.009-13.825l2.2324,2.2324c-5.9048,4.6084-8.8572,8.4002-8.8572,11.375-0.00003,3.8892,4.8003,5.8337,14.401,5.8337,3.936,0,8.6162-0.50464,14.041-1.5139zm-1.8018-27.719c-8.3511,0.00004-16.967,0.9119-25.846,2.7356l-0.43286-3.096c9.2168-1.872,17.977-2.8081,26.279-2.8081zm-35.06-16.13c7.5366-0.57564,14.929-1.4399,22.177-2.5928l0.43066,3.096c-7.2481,1.1529-15.048,2.0413-23.399,2.6653-3.5039,14.064-8.4243,29.087-14.761,45.07l-3.1685-1.0064c6.145-15.504,10.945-30.096,14.401-43.776-5.1358,0.33549-9.6716,0.52739-13.608,0.57568v-3.1684c5.5678-0.0966,10.367-0.28853,14.399-0.57569,1.1528-4.5117,2.1614-8.9516,3.0256-13.32l3.3113,0.43066c-0.81594,4.1763-1.752,8.3768-2.8081,12.601z"/>
  <path d="m310.57,335.4,0-53.927c0-10.128,4.9438-15.192,14.832-15.192,4.5117,0.00005,8.1236,1.1639,10.836,3.4914,2.7121,2.3277,4.0682,5.316,4.0682,8.9648-0.00004,3.0235-0.96024,5.5793-2.8806,7.6674-1.9204,2.0882-4.5842,3.5402-7.9914,4.3561v0.14282c4.4165,0.72073,7.7764,2.2332,10.08,4.5374,2.3034,2.3042,3.4552,5.3042,3.4552,9-0.00003,5.1358-1.6678,9.0597-5.0032,11.772-3.3355,2.7122-8.2193,4.0682-14.651,4.0682-2.8799-0.00001-6.0242-0.40796-9.4329-1.2239v16.343zm3.3113-19.439c3.5039,0.91114,6.624,1.3667,9.3604,1.3667,10.944,0,16.416-4.3682,16.416-13.104-0.00003-4.0312-1.5121-7.0071-4.5362-8.9275-3.0242-1.9204-7.704-2.8806-14.039-2.8806h-3.096v-2.8059h3.096c5.2324,0.00003,9.2164-0.90011,11.952-2.7004,2.7356-1.8002,4.1034-4.4047,4.1034-7.8135-0.00003-2.9267-1.0558-5.2902-3.1674-7.0906-2.1116-1.8002-4.9201-2.7004-8.4254-2.7004-4.0313,0.00005-6.9829,0.94817-8.855,2.8444-1.8721,1.8963-2.8081,4.9084-2.8081,9.0363z"/>
  <path d="m356.45,299.47c-0.57716,9.2153-2.0171,17.519-4.3198,24.91l-2.8806-1.7996c2.7832-9.0234,4.1748-20.855,4.1748-35.495v-23.616h3.3135v17.782h9.4307v-18.503h3.1684v18.503h7.273v3.1685h-19.872v4.2495c-0.00001,1.8238-0.0484,4.3675-0.14502,7.6311h14.761v28.296h-3.241v-25.128zm27.791-12.313,2.9531-1.1514c2.5913,8.1607,5.975,14.929,10.151,20.305,4.8471-6.0967,8.4953-13.561,10.945-22.392h-25.706v3.6716c-0.00004,13.872-2.4478,25.776-7.3433,35.712l-2.6631-2.3049c2.351-5.0391,4.0426-10.283,5.0746-15.731,1.032-5.4485,1.5479-11.893,1.548-19.333v-21.023h34.273v3.096h-30.889v12.959h29.16v2.9531c-2.6397,9.7925-6.7193,18.12-12.239,24.983,4.3198,4.897,9.624,8.8572,15.913,11.881l-1.5139,2.8806c-6.6241-3.2168-12.144-7.2971-16.559-12.241-4.8003,5.2324-10.68,9.3127-17.64,12.241l-1.3689-2.9531c6.6723-2.8315,12.289-6.791,16.849-11.878-4.6084-5.8081-8.2566-13.033-10.945-21.674z"/>
  <path d="m424.2,272.9c16.465,0.00005,34.897-1.4157,55.296-4.2473l0.36035,3.241c-10.225,1.3916-18.397,4.4634-24.516,9.2153-6.1194,4.752-9.1791,10.296-9.1791,16.631-0.00003,5.9048,2.1236,10.597,6.371,14.077,4.2473,3.4797,10.307,5.5558,18.179,6.2282l-0.35816,3.3113c-8.7364-0.67236-15.553-3.0604-20.449-7.1642-4.8963-4.1038-7.3444-9.4676-7.3444-16.092-0.00002-5.2324,1.716-9.9726,5.1482-14.221,3.4321-4.248,8.3159-7.6193,14.651-10.114l-0.0703-0.14502c-13.537,1.7286-26.233,2.5928-38.09,2.5928zm42.48,11.017,2.7378-1.5842c2.1108,3.2637,4.4384,7.2474,6.9829,11.951l-2.8081,1.3689c-2.3042-4.3198-4.6084-8.2317-6.9126-11.736zm9.5054-2.8806,2.8081-1.5842c2.7363,4.2246,5.1364,8.2808,7.2004,12.168l-2.8081,1.4392c-2.5445-4.6069-4.9446-8.6147-7.2004-12.023z"/>
  <path d="m516.9,287.16c-1.8955,1.919-2.8433,4.1986-2.8433,6.839-0.00003,2.6404,0.94773,4.9204,2.8433,6.8401,1.8955,1.9197,4.1872,2.8795,6.8752,2.8795,2.688,0.00002,4.9801-0.95982,6.8764-2.8795,1.8962-1.9197,2.8443-4.2,2.8444-6.8412-0.00005-2.9267-0.89983-5.2782-2.6993-7.0543-1.7996-1.7761-4.1401-2.6642-7.0214-2.6642-2.688,0.00003-4.9798,0.96023-6.8752,2.8806zm-6.2996,6.7676c-0.00002-3.6489,1.2118-6.6852,3.6354-9.1088,2.4236-2.4235,5.484-3.6353,9.1813-3.6354,3.7426,0.00004,6.958,1.128,9.646,3.3838h0.14501c-0.0484-1.9687-0.14433-4.6325-0.28784-7.9915-0.00004-0.14497-0.0121-0.33724-0.0362-0.57678-0.0242-0.23946-0.0363-0.43172-0.0363-0.57678-14.112,0.62406-26.496,0.93608-37.151,0.93603v-3.0959c11.711,0.00004,24.071-0.2878,37.079-0.86353-0.14359-3.5039-0.21537-7.0561-0.21533-10.657h3.3838c-0.00005,4.6568,0.0483,8.1607,0.14502,10.512,6.7675-0.3354,13.535-0.74336,20.303-1.2239l0.21753,3.0256c-6.9126,0.47905-13.705,0.88701-20.377,1.2239-0.00004,0.19193,0.012,0.47978,0.0363,0.86352,0.0241,0.38383,0.0362,0.67167,0.0362,0.86353,0.19185,6.3355,0.2878,11.087,0.28784,14.256,0.76753,2.5928,1.1513,5.617,1.1514,9.0725-0.00005,6.2402-2.004,11.376-6.0117,15.408-4.0078,4.032-9.7076,6.576-17.099,7.6322l-0.57568-3.3135c11.808-1.6318,18.456-7.0078,19.942-16.128,0.0966-0.57567,0.19332-1.2956,0.29004-2.1599h-0.14502c-2.688,3.3604-6.2637,5.0405-10.727,5.0405-3.7442,0.00001-6.8163-1.2239-9.2164-3.6716-2.4002-2.4477-3.6002-5.5195-3.6002-9.2153z"/>
  <path d="m570.25,321.47c-2.0391-2.0405-3.0586-4.5249-3.0586-7.4531s1.0199-5.4243,3.0597-7.4883,4.5238-3.0959,7.452-3.096c2.9282,0.00002,5.4243,1.032,7.4883,3.096,2.0639,2.064,3.0959,4.5601,3.096,7.4883-0.00003,2.9282-1.032,5.4122-3.096,7.452s-4.5601,3.0597-7.4883,3.0597c-2.9282-0.00001-5.4126-1.0195-7.4531-3.0586zm2.0522-12.889c-1.4883,1.5117-2.2324,3.3237-2.2324,5.436-0.00001,2.1123,0.74413,3.9122,2.2324,5.3998s3.2882,2.2313,5.3998,2.2313,3.9236-0.74377,5.436-2.2313c1.5124-1.4876,2.2686-3.2875,2.2687-5.3998-0.00002-2.1123-0.75624-3.9243-2.2687-5.436s-3.3245-2.2676-5.436-2.2676c-2.1116,0.00001-3.9115,0.75587-5.3998,2.2676z"/>
  <path d="m654.89,276.07,1.7996-2.6631c4.8955,2.7349,9.5998,5.639,14.113,8.7122,6.7675-4.2729,12.768-8.9772,18-14.113h-40.968v-3.096h45.288v3.096c-5.9048,6.0967-12.457,11.425-19.657,15.985,0.48043,0.38383,1.4048,1.0437,2.773,1.9797,1.3681,0.93607,2.4118,1.6678,3.1311,2.1951h22.104v3.1684c-4.6085,5.7114-9.8167,10.704-15.625,14.977l-2.1599-2.5203c5.0405-3.6006,9.6005-7.7527,13.68-12.456h-24.192v24.407c-0.00004,3.4087-0.408,5.5331-1.2239,6.3732-0.81596,0.84008-2.8323,1.2601-6.0491,1.2601-2.3028,0-5.8543-0.12012-10.655-0.36035v-3.096c4.7036,0.24024,8.0874,0.36035,10.151,0.36036,2.0639-0.00001,3.2878-0.20398,3.6716-0.61194,0.38375-0.40796,0.57565-1.7164,0.57568-3.9254v-24.407h-30.959v-3.1684h35.279c-6.6709-4.7519-13.031-8.7839-19.079-12.096z"/>
  <path d="m749.93,283.92,0,7.3433c-0.00005,2.6397-0.0726,5.1116-0.21753,7.4158h18.505v-14.759zm0-2.9531,18.288,0,0-13.535-18.288,0zm-30.962,14.761,0,9.2878,16.561,0,0-9.2878zm0-11.881,0,9.0725,16.561,0,0-9.0725zm0-2.7356,16.561,0,0-8.7847-16.561,0zm45.936,39.529c1.6801,0,2.6524-0.19227,2.9169-0.57679,0.26435-0.38452,0.39655-1.6805,0.39661-3.8881v-14.471h-18.648c-0.67241,9.167-2.7122,16.726-6.1194,22.678l-2.8081-2.0149c2.2075-3.9844,3.7672-8.3763,4.6791-13.176,0.91183-4.7995,1.3678-11.112,1.3678-18.937v-25.919h24.84v51.768c-0.00007,3.4556-0.28791,5.5917-0.86353,6.4083-0.57574,0.81664-2.1358,1.225-4.6802,1.225-1.44,0-4.5118-0.12012-9.2153-0.36035l-0.0725-3.0959c4.2231,0.24023,6.9587,0.36035,8.2068,0.36035zm-21.454-12.674-33.337,0,0-2.9509,5.5437,0,0-32.689-5.1834,0,0-2.9509,5.1834,0,0-6.6973,3.3113,0,0,6.6973,16.561,0,0-6.6973,3.1685,0,0,6.6973,4.823,0,0,2.9509-4.823,0,0,32.689,4.7527,0zm-32.761,14.544c4.8955-3.9346,8.6638-8.2544,11.305-12.959l2.5906,1.6567c-2.5913,4.8472-6.5032,9.3354-11.736,13.465zm20.232-11.16,2.4478-1.8721c2.8798,3.0249,5.3042,6.1692,7.273,9.4329l-2.5928,1.6567c-1.9673-3.2168-4.3433-6.2893-7.1279-9.2175z"/>
  <path d="m796.44,265.2,3.5266,0c-0.00002,5.1841-0.21536,11.353-0.646,18.505-0.43215,7.1031-0.64821,12.935-0.64819,17.495-0.00002,12.097,4.4634,18.145,13.39,18.145,4.9453,0,9.6617-1.8962,14.149-5.6887,4.4875-3.7925,8.4598-9.3127,11.917-16.561l3.0959,1.5139c-3.6006,7.7754-7.9208,13.727-12.961,17.855-5.0398,4.1279-10.44,6.1919-16.202,6.1919-11.279,0-16.919-7.1521-16.919-21.456-0.00002-4.4634,0.21605-10.271,0.64819-17.423,0.43211-7.152,0.64818-13.344,0.6482-18.577z"/>
  <path d="m899.26,283.85c-0.38531,3.4087-0.43365,9.241-0.14502,17.497l0.0725,0.36035c-0.00005,0.23879-0.00005,0.53835,0,0.89868-0.00005,0.36037-0.00005,0.70827,0,1.0437,3.6474,2.064,8.5671,5.7363,14.759,11.017l-2.0874,2.4478c-5.1358-4.3198-9.3355-7.5359-12.599-9.6482v1.5117c-0.00005,4.6084-1.0203,7.9446-3.0608,10.009-2.0406,2.064-5.3409,3.0959-9.9009,3.096-4.4151-0.00001-7.8948-1.0082-10.439-3.0245-2.5445-2.0164-3.8167-4.7999-3.8166-8.3507-0.00002-3.2168,1.296-5.8213,3.8881-7.8135,2.592-1.9922,6.0479-2.9883,10.368-2.9883,3.1684,0.00002,6.2885,0.67239,9.3604,2.0171v-0.50537c-0.28716-8.351-0.21538-14.254,0.21533-17.71zm-3.7441-8.2068,0.86352-3.0982c7.1513,1.585,13.847,3.7933,20.087,6.6248l-1.2239,3.0234c-6.4322-2.8798-13.008-5.0632-19.727-6.55zm0.28784,29.806c-3.2652-1.6318-6.4571-2.4477-9.5757-2.4478-3.2168,0.00002-5.8092,0.70827-7.7772,2.1248s-2.952,3.2769-2.952,5.581c-0.00003,2.5913,0.94809,4.619,2.8444,6.0831,1.8962,1.4641,4.5245,2.1962,7.8849,2.1962,3.5508,0,6.0461-0.74414,7.4861-2.2324,1.4399-1.4883,2.1599-4.0803,2.1599-7.7761-0.00005-1.1997-0.0235-2.376-0.0703-3.5288zm-25.994-30.887c0.91257-3.312,1.897-7.3923,2.9531-12.241l3.3113,0.50537c-0.71926,3.5523-1.6553,7.3682-2.8081,11.448,4.4165-0.3354,8.9524-0.83931,13.608-1.5117l0.21753,3.096c-4.8487,0.6724-9.7449,1.2005-14.689,1.5842-3.2154,11.039-7.6311,22.775-13.247,35.207l-3.1684-1.1514c5.6162-12.527,9.9118-23.783,12.887-33.768-3.5039,0.19194-7.44,0.28788-11.808,0.28784v-3.096c4.9453,0.00005,9.1933-0.12007,12.744-0.36035z"/>
  <path d="m972.69,274.35,3.0959-1.4414c6.4804,10.513,10.345,23.041,11.593,37.584l-3.4563,0.21753c-1.2481-14.064-4.9922-26.184-11.232-36.36zm-36-2.5928c-1.0078,5.8565-1.5117,11.785-1.5117,17.785-0.00002,3.6958,0.34788,7.1997,1.0437,10.512,0.69578,3.312,1.5718,6.0359,2.6279,8.1716,1.0561,2.1358,2.1962,3.8276,3.42,5.0757,1.2239,1.248,2.3639,1.8721,3.42,1.8721,0.38376,0,0.81552-0.12011,1.2953-0.36035,0.47971-0.24023,1.0678-0.79211,1.7644-1.6556,0.6965-0.86352,1.3806-1.9552,2.0522-3.275,0.67161-1.3198,1.3916-3.204,2.1599-5.6525,0.76828-2.4485,1.4644-5.2804,2.0885-8.4957l3.3838,0.57568c-1.6319,8.2559-3.5757,14.04-5.8316,17.352s-4.5601,4.968-6.9126,4.968c-3.4087,0-6.601-2.736-9.5768-8.2079s-4.4638-12.432-4.4637-20.88c-0.00001-5.9516,0.52806-12.024,1.5842-18.218z"/>
  <path d="m1017.6,291.99,10.584,0,0-6.6248-10.584,0zm0,9.2153,10.584,0,0-6.6226-10.584,0zm-13.823-6.6226,0,6.6226,10.367,0,0-6.6226zm0-2.5928,10.367,0,0-6.6248-10.367,0zm-4.968-17.279,15.335,0,0-6.3369c-5.3276,0.48052-9.9836,0.79253-13.968,0.93603l-0.1428-3.0234c11.376-0.38374,21.672-1.5117,30.887-3.3838l0.5053,3.0234c-3.5523,0.71929-8.1607,1.4151-13.825,2.0874v6.6973h14.256v2.1599h9.145c0.095-2.9282,0.1428-7.7768,0.1428-14.546h3.3135c0,5.3292-0.073,10.178-0.2175,14.546h16.776v2.0149c-0.0001,10.368-0.096,18.432-0.2878,24.192-0.192,5.7598-0.612,10.152-1.2602,13.176-0.6482,3.0242-1.3803,4.9083-2.1961,5.6525-0.816,0.74414-2.0157,1.1162-3.5992,1.1162-2.064,0-5.1841-0.24024-9.3603-0.7207l0.072-3.2388c4.0795,0.479,6.9352,0.7185,8.5671,0.7185,0.7207,0,1.2971-0.22778,1.7293-0.68335,0.432-0.45556,0.8521-1.4154,1.2601-2.8795,0.4079-1.4641,0.7316-3.6123,0.9712-6.4446,0.2394-2.8323,0.4193-6.6123,0.5394-11.34,0.1201-4.7278,0.1801-10.571,0.1802-17.531v-0.93604h-13.463c-0.4806,11.328-1.5488,20.243-3.2047,26.747-1.6561,6.5039-4.2602,12.324-7.8124,17.459l-2.8081-1.7996c3.3603-4.8486,5.8326-10.393,7.4168-16.632,1.5842-6.2395,2.6158-14.831,3.0949-25.775h-9.6482v-2.45h-13.608v5.0405h13.753v21.529h-13.753v5.3987h13.753v2.8806h-13.753v6.4797c5.7598-0.71924,10.152-1.3433,13.177-1.8721l0.3604,2.8081c-10.8,1.8721-21.768,3.1685-32.904,3.8892l-0.21753-2.9531c5.4726-0.38379,10.849-0.8877,16.128-1.5117v-6.8401h-14.686v-2.8806h14.686v-5.3987h-13.68v-21.529h13.68v-5.0405h-15.335z"/>
  <path d="m1083.7,279.89,0,45-3.5266,0,0-38.52c-2.5928,4.9439-5.521,9.3596-8.7847,13.247l-1.9446-2.9509c7.9688-9.6489,13.561-21.145,16.776-34.488l3.3113,0.72071c-1.3433,5.9517-3.2871,11.616-5.8315,16.991zm50.473-8.209-22.968,0,0,14.328,20.806,0,0,3.0234-20.806,0,0,14.977,20.806,0,0,3.0959-20.806,0,0,17.785-3.6013,0,0-53.209-5.9765,0c-3.0718,7.4883-6.7435,14.112-11.015,19.872l-2.8081-2.0874c6.1918-8.3042,10.8-17.64,13.823-28.009l3.3134,0.7207c-0.6724,2.2559-1.3923,4.3917-2.1599,6.4072h31.392z"/>
  <path d="m1180.4,292.42c5.855-2.1592,12.19-3.8152,19.006-4.968l0.4328,3.096c-6.8643,1.2012-13.176,2.9056-18.936,5.113,0.4804,3.4087,0.7207,7.9446,0.7207,13.608h-3.4563c0-4.4634-0.1685-8.543-0.5054-12.239-5.0391,2.2559-8.9985,4.6677-11.878,7.2356-2.8799,2.5679-4.3198,4.908-4.3198,7.0203,0,5.1357,6.0718,7.7036,18.215,7.7036,5.2793,0,10.679-0.50391,16.2-1.5117l0.3603,3.1685c-5.0406,0.95947-10.561,1.4392-16.561,1.4392-14.593-0.00001-21.889-3.5281-21.889-10.584,0-2.8315,1.716-5.8553,5.1482-9.0714,3.4321-3.216,8.1965-6.1205,14.293-8.7133-0.5289-3.0718-1.2972-5.1837-2.3049-6.3358-1.0079-1.1521-2.3277-1.7281-3.9595-1.7282-2.3995,0.00004-5.5793,1.44-9.5395,4.3198-3.9602,2.8799-7.8841,6.8159-11.772,11.808l-2.7378-1.7996c6.5288-8.4477,11.377-16.392,14.546-23.832-5.1841,0.1436-10.633,0.21538-16.346,0.21533v-3.0234c5.4727,0.00005,11.329-0.12007,17.569-0.36035,1.3432-3.6474,2.4953-7.2473,3.4563-10.8l3.4541,0.79102c-1.0079,3.6958-2.0633,6.9844-3.1663,9.8657,9.5039-0.43208,18.696-1.152,27.576-2.1599l0.2153,3.0234c-9.936,1.1031-19.608,1.8706-29.015,2.3027-1.4883,3.6006-3.6006,7.681-6.3369,12.241l0.072,0.0725c4.9922-3.7441,9.1443-5.6162,12.456-5.6162,2.3994,0.00003,4.3191,0.75589,5.7591,2.2676,1.4399,1.5118,2.5202,3.9954,3.2409,7.4509z"/>
  <path d="m1236.9,287.16c-1.8955,1.919-2.8432,4.1986-2.8432,6.839s0.9477,4.9204,2.8432,6.8401,4.1873,2.8795,6.8753,2.8795c2.6879,0.00002,4.9801-0.95982,6.8763-2.8795s2.8444-4.2,2.8444-6.8412c0-2.9267-0.8998-5.2782-2.6993-7.0543-1.7996-1.7761-4.1401-2.6642-7.0214-2.6642-2.688,0.00003-4.9798,0.96023-6.8753,2.8806zm-6.2995,6.7676c0-3.6489,1.2118-6.6852,3.6354-9.1088,2.4235-2.4235,5.4839-3.6353,9.1812-3.6354,3.7427,0.00004,6.958,1.128,9.646,3.3838h0.1451c-0.048-1.9687-0.1444-4.6325-0.2879-7.9915,0-0.14497-0.012-0.33724-0.036-0.57678-0.024-0.23946-0.036-0.43172-0.036-0.57678-14.112,0.62406-26.496,0.93608-37.151,0.93603v-3.0959c11.711,0.00004,24.071-0.2878,37.079-0.86353-0.1436-3.5039-0.2154-7.0561-0.2153-10.657h3.3838c-0.0001,4.6568,0.048,8.1607,0.145,10.512,6.7675-0.3354,13.535-0.74336,20.303-1.2239l0.2175,3.0256c-6.9126,0.47905-13.705,0.88701-20.377,1.2239-0.0001,0.19193,0.012,0.47978,0.036,0.86352,0.024,0.38383,0.036,0.67167,0.036,0.86353,0.1919,6.3355,0.2878,11.087,0.2878,14.256,0.7676,2.5928,1.1514,5.617,1.1514,9.0725,0,6.2402-2.0039,11.376-6.0117,15.408-4.0079,4.032-9.7076,6.576-17.099,7.6322l-0.5757-3.3135c11.808-1.6318,18.456-7.0078,19.942-16.128,0.097-0.57567,0.1933-1.2956,0.29-2.1599h-0.145c-2.688,3.3604-6.2637,5.0405-10.727,5.0405-3.7441,0.00001-6.8163-1.2239-9.2164-3.6716-2.4002-2.4477-3.6002-5.5195-3.6002-9.2153z"/>
  <path d="m1299.2,268.58c11.568,0.00005,23.52-0.57563,35.855-1.727l0.7207,3.5266c-8.1124,6.5772-17.112,13.466-27,20.665l0.073,0.14283c5.1357-1.6318,10.008-2.4477,14.616-2.4478,6.6709,0.00003,11.495,1.4762,14.471,4.4286,2.9765,2.9524,4.4648,6.6361,4.4648,11.051,0,5.376-2.328,9.6962-6.984,12.961-4.656,3.2644-10.944,4.8966-18.865,4.8966-5.1841-0.00001-9.204-0.87598-12.06-2.6279-2.8557-1.752-4.2836-4.2122-4.2836-7.3806,0-2.3042,1.1518-4.3081,3.4552-6.0117,2.3035-1.7036,5.3515-2.5554,9.144-2.5554,3.6474,0.00002,6.5152,0.80385,8.6034,2.4115,2.0881,1.6077,3.1321,3.828,3.1322,6.661-0.0001,1.7754-0.408,3.7668-1.2239,5.9744,4.9438-0.76758,8.7839-2.4115,11.52-4.9318,2.7363-2.5202,4.1045-5.6283,4.1045-9.3241,0-8.4477-5.6404-12.672-16.921-12.672-4.128,0.00002-8.4357,0.81594-12.923,2.4478-4.4876,1.6319-9.8756,4.3916-16.164,8.2793l-1.8721-2.8081c14.736-9.6474,28.032-19.415,39.887-29.303l-0.07-0.14502c-12,1.1529-22.56,1.7293-31.68,1.7292zm20.591,50.401c0.9609-2.2075,1.4413-4.2473,1.4414-6.1194-0.0001-2.0171-0.7321-3.6017-2.1962-4.7538s-3.5402-1.7281-6.2281-1.7282c-2.8316,0.00001-5.0875,0.56434-6.7676,1.693-1.6802,1.1287-2.5203,2.4606-2.5203,3.9957,0,4.6567,4.3916,6.9851,13.175,6.9851,1.3931,0,2.425-0.0242,3.096-0.0725z"/>
  <path d="m1385.4,276.51,0,6.6951,29.16,0,0-6.6951zm0-2.8806,29.16,0,0-6.4797-29.16,0zm-19.224-9.936,3.3838,0,0,16.631,8.9275,0,0,2.9531-8.9275,0,0,27.503c3.1684-1.3432,6.2885-2.8074,9.3603-4.3923l1.0086,2.8081c-7.585,3.8408-14.833,6.8174-21.744,8.9297l-0.6482-3.0256c2.5445-0.76757,5.4243-1.7512,8.6397-2.9509v-28.872h-8.3518v-2.9531h8.3518zm15.84,0.57569,36,0,0,21.817-32.616,0-3.3837,0zm30.456,59.544c-2.3043-0.00001-5.1842-0.12012-8.6397-0.36036v-3.0234c3.1201,0.24023,5.7356,0.36035,7.8464,0.36035,3.0732,0,4.6333-6.5998,4.6802-19.8v-0.14502h-5.3987c-1.8237,4.4165-4.6557,8.9286-8.4957,13.536-3.8401,4.6077-7.7765,8.1837-11.809,10.728l-2.0874-2.4478c3.6474-2.2559,7.2711-5.4598,10.871-9.6119,3.5998-4.1521,6.3357-8.2203,8.2079-12.205h-9.7185c-2.3043,3.6489-5.4965,7.3814-9.5768,11.197-4.0804,3.8159-8.1362,6.876-12.167,9.1802l-1.9446-2.4478c3.5523-1.9688,7.1763-4.6212,10.872-7.9574,3.6958-3.3362,6.7199-6.6603,9.0725-9.9723h-9.8635c-2.209,1.7285-4.2972,3.145-6.2644,4.2495l-1.7996-2.5203c4.0313-2.1123,7.9665-5.2324,11.806-9.3604h-10.151v-2.8806h43.849v2.8806h-29.593c-1.3916,1.6802-2.9275,3.2879-4.6076,4.823h32.183v2.0896c-0.0001,8.5913-0.5757,14.687-1.727,18.287-1.1515,3.5998-2.9994,5.3998-5.5437,5.3998z"/>
  <path d="m1442.3,317.69,39.599,0,0-19.369-39.599,0zm43.055-22.392,0,29.305-3.4563,0,0-3.9595-39.599,0,0,3.9595-3.4563,0,0-29.305zm-54.433-12.311c10.657-5.8564,20.329-12.841,29.017-20.953h4.3198c8.688,8.1124,18.36,15.097,29.017,20.953l-1.5139,2.8806c-11.087-6.0483-20.975-13.2-29.663-21.456-8.688,8.2559-18.576,15.408-29.663,21.456zm11.738,2.8081,0-3.0234,38.878,0,0,3.0234z"/>
  <path d="m1545.5,265.42,2.8081-1.5117c1.9687,3.025,4.2729,6.9852,6.9126,11.881l-2.8081,1.4392c-2.4478-4.6069-4.752-8.5429-6.9126-11.808zm9.5053-2.8784,2.8081-1.5842c2.7348,4.2232,5.1343,8.2793,7.1983,12.168l-2.8059,1.4392c-2.5445-4.6084-4.9447-8.6162-7.2005-12.023zm-3.3837,21.096,3.0234-1.4414c5.0873,9.0733,9.383,17.761,12.887,26.064l-3.096,1.2239c-3.6475-8.5913-7.919-17.207-12.814-25.846zm-27.936-21.817,3.3838,0.28784c-0.5288,5.4727-1.273,10.657-2.2324,15.552,3.5039-0.24019,6.1677-0.36031,7.9914-0.36035,1.8721,0.00004,3.3842,0.0601,4.5363,0.18017,1.1521,0.12016,2.2082,0.3842,3.1685,0.79212,0.9601,0.408,1.6801,0.90018,2.1599,1.4766,0.4797,0.57646,0.8876,1.4524,1.2238,2.6279,0.3362,1.1756,0.5522,2.4712,0.6482,3.887s0.1439,3.2758,0.144,5.58c-0.0001,8.7847-1.38,15.901-4.1397,21.349-2.7598,5.4478-5.9158,8.1716-9.468,8.1716-2.8799,0-6.4322-1.9197-10.657-5.759l1.7996-2.7356c3.6489,3.4072,6.6013,5.1108,8.8572,5.1108,2.4477,0.00001,4.7515-2.4119,6.9115-7.2356,2.1599-4.8237,3.2398-11.292,3.2399-19.404-0.0001-1.8237-0.024-3.2757-0.073-4.3561-0.048-1.0803-0.2043-2.0764-0.468-2.9883-0.2637-0.91182-0.5515-1.5596-0.8635-1.9435-0.3121-0.38375-0.828-0.71956-1.548-1.0074-0.72-0.28781-1.4758-0.4559-2.2675-0.50428-0.7918-0.0483-1.8842-0.0725-3.2773-0.0725-1.8721,0.00004-4.7278,0.12016-8.5671,0.36036-3.0718,14.112-8.1358,27.744-15.192,40.896l-3.0234-1.3689c6.8159-12.768,11.711-25.871,14.686-39.311-4.5601,0.38383-9.4556,0.88773-14.686,1.5117l-0.2176-3.096c6.8643-0.76754,12.048-1.2956,15.552-1.5842,1.1044-5.2792,1.8969-10.631,2.3774-16.055z"/>
  <path d="m1594.6,261.82,3.4563,0c-0.0001,4.752,0.024,8.2801,0.072,10.584,9.3119-0.3354,19.583-1.1513,30.814-2.4478l0.2901,3.0234c-11.953,1.3916-22.297,2.2317-31.032,2.5203,0.1435,7.8238,0.2153,11.76,0.2153,11.808,4.1762-1.2964,8.5444-1.9445,13.104-1.9446,6.9111,0.00004,12.383,1.548,16.415,4.6439,4.0319,3.096,6.0479,7.2602,6.048,12.493-0.0001,5.0405-1.9202,9.3128-5.7602,12.817-3.8401,3.5039-9.0956,5.8074-15.766,6.9104l-0.6482-3.0234c5.9033-1.0078,10.511-2.9996,13.823-5.9755,3.312-2.9758,4.968-6.5519,4.9681-10.728-0.0001-3.2636-0.9962-6.0355-2.9883-8.3156-1.9923-2.28-4.7879-3.9005-8.387-4.8614-3.8877,8.8814-8.8678,15.998-14.94,21.35-6.0725,5.3518-11.701,8.0277-16.885,8.0277-2.8315,0-5.0632-0.85217-6.695-2.5565-1.6319-1.7043-2.4478-4.0441-2.4478-7.0192,0-3.9844,1.5121-7.8607,4.5363-11.629,3.0241-3.7683,7.0799-6.732,12.167-8.8912-0.097-2.9282-0.1926-7.2722-0.2878-13.032-4.2247,0.1436-8.6888,0.21537-13.392,0.21533v-3.096c6.0967,0.00005,10.561-0.0483,13.392-0.14502-0.048-2.351-0.073-5.9267-0.072-10.727zm21.311,26.857c-1.8237-0.19333-3.2871-0.29001-4.3901-0.29004-4.6084,0.00003-8.929,0.72-12.962,2.1599,0.2886,8.9766,0.553,15.673,0.7932,20.09,6.9111-5.3276,12.431-12.647,16.559-21.959zm-20.808,3.3113c-4.1279,1.9673-7.4037,4.4872-9.8272,7.5597-2.4236,3.0725-3.6354,6.2164-3.6354,9.4318,0,2.1123,0.516,3.7445,1.548,4.8966,1.0319,1.1521,2.5081,1.7282,4.4286,1.7282,2.496,0,5.28-0.91186,8.3518-2.7356-0.3839-7.6802-0.6724-14.64-0.8658-20.881z"/>
  <path d="m1663.8,263.33c-0.5289,7.0079-0.9368,14.616-1.2239,22.825h0.1428c1.9204-5.7612,4.7168-10.214,8.3892-13.357,3.6723-3.1435,7.716-4.7153,12.131-4.7153,5.2324,0.00005,9.3006,1.908,12.205,5.7239,2.904,3.816,4.356,9.2996,4.3561,16.451-0.0001,9.8892-2.7122,17.414-8.1365,22.574-5.4244,5.1599-13.92,8.2438-25.488,9.2516l-0.2878-3.241c10.512-0.95947,18.204-3.7313,23.076-8.3156,4.872-4.5842,7.308-11.34,7.3081-20.269-0.0001-6.1435-1.1401-10.811-3.4201-14.003-2.2801-3.1918-5.5558-4.7878-9.8273-4.7878-5.0405,0.00005-9.6247,2.844-13.753,8.532-4.128,5.688-6.408,13.068-6.8401,22.14h-3.3838c0-13.92,0.4563-26.881,1.3689-38.881z"/>
  <path d="m1752.7,305.88c-3.791-1.7285-7.2708-2.5928-10.439-2.5928-3.5523,0.00002-6.2644,0.6603-8.1365,1.9808-1.8721,1.3206-2.8081,3.1564-2.8081,5.5074,0,2.5928,0.9481,4.6091,2.8444,6.0491,1.8962,1.4399,4.5963,2.1599,8.1002,2.1599,3.7925,0,6.4804-0.85217,8.064-2.5565,1.5834-1.7043,2.3752-4.548,2.3752-8.5309zm-0.07-3.3838c-0.048-1.8237-0.1209-4.656-0.2175-8.4968-0.047-0.4321-0.083-1.1041-0.1066-2.016-0.024-0.91184-0.036-1.5838-0.036-2.016-8.4477,0.57718-16.992,0.86575-25.633,0.86572v-3.0256c9.3604,0.00003,17.881-0.26364,25.561-0.79102-0.095-4.7036-0.1428-8.28-0.1428-10.729-9.7442,0.52885-19.176,0.79326-28.296,0.79322v-3.0234c10.32,0.00004,19.775-0.26436,28.367-0.79321,0.048-3.2636,0.2402-6.8393,0.5757-10.727l3.386,0.0725c-0.337,3.7427-0.5296,7.2225-0.5779,10.439,6.624-0.38374,13.537-1.0078,20.738-1.8721l0.2879,3.0234c-7.2013,0.81596-14.21,1.44-21.026,1.8721,0,4.752,0.024,8.3042,0.072,10.657,4.56-0.33688,10.488-0.93673,17.785-1.7996l0.2878,3.0234c-5.7598,0.71927-11.76,1.3191-18,1.7996,0,0.48049,0.012,1.1888,0.036,2.1248,0.024,0.93606,0.06,1.6436,0.1066,2.1226,0.048,1.2012,0.1087,2.9176,0.1812,5.1493,0.072,2.2317,0.1088,3.8515,0.1088,4.8593,4.9907,2.4961,11.422,6.7683,19.294,12.817l-2.0149,2.5203c-7.1046-5.521-12.864-9.457-17.279-11.808v0.36036c0,4.9907-1.1042,8.6023-3.3124,10.835-2.2083,2.2324-5.7601,3.3486-10.656,3.3486-4.5132-0.00001-8.0179-0.9961-10.514-2.9883s-3.7442-4.7644-3.7442-8.3166c0-3.2637,1.2601-5.8315,3.7804-7.7036,2.5203-1.872,6.0128-2.8081,10.478-2.8081,3.2636,0.00001,6.7675,0.74415,10.512,2.2324z"/>
  <path d="m1812.9,287.16c-1.8955,1.919-2.8432,4.1986-2.8432,6.839s0.9477,4.9204,2.8432,6.8401,4.1873,2.8795,6.8753,2.8795c2.6879,0.00002,4.9801-0.95982,6.8763-2.8795s2.8444-4.2,2.8444-6.8412c0-2.9267-0.8998-5.2782-2.6993-7.0543-1.7996-1.7761-4.1401-2.6642-7.0214-2.6642-2.688,0.00003-4.9798,0.96023-6.8753,2.8806zm-6.2995,6.7676c0-3.6489,1.2118-6.6852,3.6354-9.1088,2.4235-2.4235,5.4839-3.6353,9.1812-3.6354,3.7427,0.00004,6.958,1.128,9.646,3.3838h0.1451c-0.048-1.9687-0.1444-4.6325-0.2879-7.9915,0-0.14497-0.012-0.33724-0.036-0.57678-0.024-0.23946-0.036-0.43172-0.036-0.57678-14.112,0.62406-26.496,0.93608-37.151,0.93603v-3.0959c11.711,0.00004,24.071-0.2878,37.079-0.86353-0.1436-3.5039-0.2154-7.0561-0.2153-10.657h3.3838c-0.0001,4.6568,0.048,8.1607,0.145,10.512,6.7675-0.3354,13.535-0.74336,20.303-1.2239l0.2175,3.0256c-6.9126,0.47905-13.705,0.88701-20.377,1.2239-0.0001,0.19193,0.012,0.47978,0.036,0.86352,0.024,0.38383,0.036,0.67167,0.036,0.86353,0.1919,6.3355,0.2878,11.087,0.2878,14.256,0.7676,2.5928,1.1514,5.617,1.1514,9.0725,0,6.2402-2.0039,11.376-6.0117,15.408-4.0079,4.032-9.7076,6.576-17.099,7.6322l-0.5757-3.3135c11.808-1.6318,18.456-7.0078,19.942-16.128,0.097-0.57567,0.1933-1.2956,0.29-2.1599h-0.145c-2.688,3.3604-6.2637,5.0405-10.727,5.0405-3.7441,0.00001-6.8163-1.2239-9.2164-3.6716-2.4002-2.4477-3.6002-5.5195-3.6002-9.2153z"/>
  <path d="m1866.2,321.47c-2.0391-2.0405-3.0586-4.5249-3.0586-7.4531s1.0199-5.4243,3.0597-7.4883c2.0397-2.064,4.5237-3.0959,7.452-3.096,2.9282,0.00002,5.4243,1.032,7.4883,3.096,2.0639,2.064,3.0959,4.5601,3.0959,7.4883s-1.032,5.4122-3.0959,7.452c-2.064,2.0398-4.5601,3.0597-7.4883,3.0597-2.9283-0.00001-5.4126-1.0195-7.4531-3.0586zm2.0522-12.889c-1.4883,1.5117-2.2324,3.3237-2.2324,5.436s0.7441,3.9122,2.2324,5.3998,3.2882,2.2313,5.3998,2.2313c2.1115,0,3.9235-0.74377,5.436-2.2313,1.5124-1.4876,2.2687-3.2875,2.2687-5.3998s-0.7563-3.9243-2.2687-5.436c-1.5125-1.5117-3.3245-2.2676-5.436-2.2676-2.1116,0.00001-3.9115,0.75587-5.3998,2.2676z"/>
 </g>
 <g style="word-spacing:0px;letter-spacing:0px;writing-mode:lr-tb;" font-family="&apos;M+ 2p light&apos;" transform="matrix(0.85953488,0,0,0.85953488,92.393274,-37.325114)" font-style="normal" font-stretch="normal" font-size="72px" font-variant="normal" font-weight="normal" line-height="125%" fill="#000">
  <path style="" d="m18.767,305.19c-6.8174,0.00005-12.23,2.16-16.238,6.4797-4.0078,4.3199-6.0117,10.128-6.0117,17.424-0.0000067,7.2481,2.0402,13.044,6.1205,17.388s9.4566,6.516,16.129,6.516c5.2309,0,10.055-1.4399,14.471-4.3198l1.3667,2.8081c-4.5586,3.0718-9.9104,4.6077-16.055,4.6077-7.7754-0.00001-14.003-2.4481-18.683-7.3444-4.6802-4.8962-7.0203-11.448-7.0203-19.656-0.0000031-8.3042,2.3159-14.88,6.9478-19.728,4.6318-4.8478,10.884-7.2718,18.756-7.2718,6.145,0.00005,11.497,1.5359,16.055,4.6077l-1.3667,2.8081c-4.3199-2.8798-9.1436-4.3198-14.471-4.3198z"/>
  <path style="" d="m48.386,355.37,0-54,3.4563,0,0,54z"/>
  <path style="" d="m69.621,309.29,0-7.919,3.4563,0,0,7.919zm0,46.081,0-37.439,3.4563,0,0,37.439z"/>
  <path style="" d="m103.6,320.17c-4.7036,0.00003-8.3753,1.4521-11.015,4.3561-2.6397,2.9041-3.9595,6.9481-3.9595,12.132-0.000007,4.9922,1.3799,9.0004,4.1396,12.025,2.7598,3.0242,6.3713,4.5363,10.835,4.5363,3.312,0,6.4804-0.79175,9.5054-2.3752l1.0789,2.7356c-3.3589,1.6802-6.9346,2.5203-10.727,2.5203-5.4727-0.00001-9.9009-1.7761-13.285-5.3284-3.3838-3.5522-5.0757-8.2566-5.0757-14.113-0.000003-6.0468,1.6318-10.798,4.8955-14.255,3.2637-3.4563,7.7519-5.1844,13.465-5.1844,3.7924,0.00004,7.3681,0.84013,10.727,2.5203l-1.0789,2.8081c-3.0249-1.5849-6.1934-2.3774-9.5054-2.3774z"/>
  <path style="" d="m128.49,301.37,0,32.904,0.14282,0,21.241-16.343,4.6802,0-23.328,17.855,23.689,19.584-4.6077,0-21.674-18.073-0.14282,0,0,18.073-3.3838,0,0-54z"/>
  <path style="" d="m194.59,305.69,0,13.68,14.832,0,0,2.8806-14.832,0,0,22.102c-0.00002,3.6006,0.52806,5.9769,1.5842,7.129s3,1.7282,5.8315,1.7282c2.2558,0,4.2956-0.36035,6.1194-1.081l0.72071,2.7378c-2.3042,0.81592-4.7044,1.2239-7.2004,1.2239-3.8877-0.00001-6.5995-0.82801-8.1354-2.484s-2.3038-4.5963-2.3038-8.8209v-22.535h-8.6396v-2.8806h8.6396v-13.68z"/>
  <path style="" d="m245.56,324.52c-2.4961-2.9516-5.8803-4.4275-10.152-4.4275-4.2722,0.00003-7.6564,1.4759-10.152,4.4275-2.4961,2.9517-3.7442,6.9954-3.7441,12.131-0.00001,5.1358,1.248,9.1798,3.7441,12.132,2.4961,2.9524,5.8802,4.4286,10.152,4.4286,4.2722,0,7.6564-1.4762,10.152-4.4286,2.4961-2.9524,3.7441-6.9964,3.7441-12.132-0.00004-5.1357-1.2481-9.1794-3.7441-12.131zm2.4478,26.317c-3.1201,3.5039-7.3202,5.2558-12.6,5.2559-5.28-0.00001-9.4801-1.752-12.6-5.2559-3.1201-3.5039-4.6802-8.232-4.6802-14.184-0.00001-5.9524,1.56-10.681,4.6802-14.184,3.1201-3.5039,7.3202-5.2558,12.6-5.2559,5.28,0.00004,9.4801,1.752,12.6,5.2559,3.1201,3.5039,4.6801,8.2321,4.6802,14.184-0.00004,5.9524-1.5601,10.681-4.6802,14.184z"/>
  <path style="" d="m286.32,324.45c-2.2324,2.9034-3.3486,6.9708-3.3486,12.203,0,5.2317,1.1162,9.2996,3.3486,12.204,2.2324,2.9041,5.2683,4.3561,9.1077,4.3561,3.6474,0,6.6112-1.392,8.8912-4.1759s3.42-6.7203,3.42-11.809v-1.1514c-0.00003-4.9438-1.128-8.8436-3.3838-11.699-2.2559-2.8557-5.2317-4.2835-8.9275-4.2836-3.8394,0.00003-6.8752,1.4524-9.1077,4.3572zm-2.5928,26.532c-2.7114-3.4087-4.0671-8.1852-4.0671-14.329,0-6.1443,1.344-10.92,4.032-14.328,2.688-3.4079,6.3838-5.1119,11.087-5.1119,6,0.00004,10.272,2.6397,12.817,7.919h0.14282v-23.759h3.3838v54h-3.2388l-0.0725-7.273h-0.14282c-2.4492,5.3291-6.7456,7.9936-12.889,7.9937-4.6553-0.00001-8.3394-1.7036-11.052-5.1108z"/>
  <path style="" d="m347.65,324.52c-2.4961-2.9516-5.8803-4.4275-10.152-4.4275-4.2722,0.00003-7.6564,1.4759-10.152,4.4275-2.4961,2.9517-3.7442,6.9954-3.7441,12.131-0.00001,5.1358,1.248,9.1798,3.7441,12.132,2.4961,2.9524,5.8802,4.4286,10.152,4.4286,4.2722,0,7.6564-1.4762,10.152-4.4286,2.4961-2.9524,3.7441-6.9964,3.7441-12.132-0.00004-5.1357-1.2481-9.1794-3.7441-12.131zm2.4478,26.317c-3.1201,3.5039-7.3202,5.2558-12.6,5.2559-5.28-0.00001-9.4801-1.752-12.6-5.2559-3.1201-3.5039-4.6802-8.232-4.6802-14.184-0.00001-5.9524,1.56-10.681,4.6802-14.184,3.1201-3.5039,7.3202-5.2558,12.6-5.2559,5.28,0.00004,9.4801,1.752,12.6,5.2559,3.1201,3.5039,4.6801,8.2321,4.6802,14.184-0.00004,5.9524-1.5601,10.681-4.6802,14.184z"/>
  <path style="" d="m365.03,317.93,9.8635,34.343,0.14501,0,9.5032-34.343,4.8252,0,9.5032,34.343,0.14502,0,9.8635-34.343,3.5991,0-11.303,37.439-4.6802,0-9.5054-34.128-0.14282,0-9.5054,34.128-4.6802,0-11.303-37.439z"/>
  <path style="" d="m437.3,320.17c-3.167,0.00003-6.0106,1.5121-8.5309,4.5362-2.5203,3.0242-3.7804,6.6002-3.7804,10.728v19.945h-3.3838v-37.439h3.2388l0.0725,7.919h0.14501c1.2964-2.6396,3.1084-4.7395,5.436-6.2996,2.3276-1.56,4.8838-2.34,7.6685-2.3401,4.3667,0.00004,7.582,1.2719,9.646,3.8156,2.0639,2.5437,3.0959,6.6237,3.096,12.24v22.104h-3.3113v-21.817c-0.00003-4.8955-0.78006-8.3514-2.3401-10.368-1.5601-2.0163-4.2122-3.0245-7.9563-3.0245z"/>
  <path style="" d="m465.06,355.37,0-54,3.4563,0,0,54z"/>
  <path style="" d="m507.97,324.52c-2.4961-2.9516-5.8803-4.4275-10.152-4.4275-4.2722,0.00003-7.6564,1.4759-10.152,4.4275-2.4961,2.9517-3.7442,6.9954-3.7441,12.131-0.00001,5.1358,1.248,9.1798,3.7441,12.132,2.4961,2.9524,5.8802,4.4286,10.152,4.4286,4.2722,0,7.6564-1.4762,10.152-4.4286,2.4961-2.9524,3.7441-6.9964,3.7441-12.132-0.00004-5.1357-1.2481-9.1794-3.7441-12.131zm2.4478,26.317c-3.1201,3.5039-7.3202,5.2558-12.6,5.2559-5.28-0.00001-9.4801-1.752-12.6-5.2559-3.1201-3.5039-4.6802-8.232-4.6802-14.184-0.00001-5.9524,1.56-10.681,4.6802-14.184,3.1201-3.5039,7.3202-5.2558,12.6-5.2559,5.28,0.00004,9.4801,1.752,12.6,5.2559,3.1201,3.5039,4.6801,8.2321,4.6802,14.184-0.00004,5.9524-1.5601,10.681-4.6802,14.184z"/>
  <path style="" d="m537.15,317.21c4.9922,0.00004,8.544,1.0679,10.656,3.2036,2.1116,2.1358,3.1673,5.7957,3.1674,10.98v13.896c-0.00003,3.3604,0.36032,6.7207,1.0811,10.081h-3.241c-0.52737-2.4478-0.81521-4.9197-0.86352-7.4158h-0.14283c-1.2964,2.4961-3.1806,4.4762-5.6525,5.9403-2.472,1.4641-5.2921,2.1962-8.4606,2.1962-3.5523-0.00001-6.3842-0.97229-8.4957-2.9169-2.1116-1.9446-3.1674-4.5729-3.1674-7.8849,0-4.2231,1.8721-7.5227,5.6162-9.8987s9.0476-3.564,15.91-3.564h4.032v-0.36035c-0.00003-4.2715-0.75588-7.2352-2.2676-8.8912-1.5118-1.656-4.2356-2.484-8.1716-2.484-4.6568,0.00003-8.8565,1.1038-12.599,3.3113l-0.79321-2.7356c4.0327-2.3042,8.4968-3.4563,13.392-3.4563zm-11.808,27.936c-0.00001,2.4961,0.80382,4.4879,2.4115,5.9755,1.6076,1.4876,3.7796,2.2313,6.516,2.2313,3.6006,0,6.7207-1.3319,9.3604-3.9957,2.6396-2.6638,3.9594-5.9872,3.9595-9.9701v-4.8252h-4.032c-5.8081,0.00002-10.296,0.93605-13.464,2.8081-3.1677,1.8721-4.7516,4.4641-4.7516,7.7761z"/>
  <path style="" d="m567.01,324.45c-2.2324,2.9034-3.3486,6.9708-3.3486,12.203,0,5.2317,1.1162,9.2996,3.3486,12.204,2.2324,2.9041,5.2683,4.3561,9.1077,4.3561,3.6474,0,6.6112-1.392,8.8912-4.1759s3.42-6.7203,3.42-11.809v-1.1514c-0.00003-4.9438-1.128-8.8436-3.3838-11.699-2.2559-2.8557-5.2317-4.2835-8.9275-4.2836-3.8394,0.00003-6.8752,1.4524-9.1077,4.3572zm-2.5928,26.532c-2.7114-3.4087-4.0671-8.1852-4.0671-14.329,0-6.1443,1.344-10.92,4.032-14.328,2.688-3.4079,6.3838-5.1119,11.087-5.1119,6,0.00004,10.272,2.6397,12.817,7.919h0.14282v-23.759h3.3838v54h-3.2388l-0.0725-7.273h-0.14282c-2.4492,5.3291-6.7456,7.9936-12.889,7.9937-4.6553-0.00001-8.3394-1.7036-11.052-5.1108z"/>
  <path style="" d="m604.87,355.37,0-9.3604,4.032,0,0,9.3604z"/>
 </g>
</svg>
