<?xml version="1.0" encoding="UTF-8" standalone="no"?>
<!-- Created with Inkscape (http://www.inkscape.org/) -->
<svg xmlns:rdf="http://www.w3.org/1999/02/22-rdf-syntax-ns#" xmlns="http://www.w3.org/2000/svg" version="1.1" xmlns:cc="http://creativecommons.org/ns#" xmlns:dc="http://purl.org/dc/elements/1.1/" viewBox="0 0 679.68 145.86">
 <metadata>
  <rdf:RDF>
   <cc:Work rdf:about="">
    <dc:format>image/svg+xml</dc:format>
    <dc:type rdf:resource="http://purl.org/dc/dcmitype/StillImage"/>
    <dc:title/>
   </cc:Work>
  </rdf:RDF>
 </metadata>
 <g transform="translate(-29.905859,-453.02477)">
  <g transform="translate(-16.173177,4.249951)">
   <g transform="translate(13.131983,-5.0507627)">
    <g transform="matrix(1.042428,0,0,1.042428,-82.736835,52.629365)">
     <g transform="matrix(1.0974678,0,0,1.0974678,-181.72994,51.941095)">
      <path fill="#1c1216" d="m331.7,424.38c-1.2695-2.372-0.96427-3.9027,0.67448-3.3826,1.0434,0.33116,2.2282-0.33287,4.3123-2.4169,4.0047-4.0046,10.931-5.6972,15.254-3.7275,3.8468,1.7527,1.5874,3.39-5.5569,4.027-6.4487,0.57502-8.9753,1.6804-10.765,4.7094-1.5119,2.5595-2.8301,2.8254-3.9191,0.79054zm-45.384-4.1323c-0.78815-0.59612-2.9475-1.0857-4.7985-1.088-4.6287-0.006-8.737-1.2607-9.6381-2.9444-1.1227-2.0978-1.8771-12.554-0.90574-12.554,0.43439,0,1.7426,0.9528,2.9071,2.1173s4.4291,3.1335,7.2545,4.3755c4.8712,2.1413,5.1491,2.3959,5.3677,4.9183,0.14294,1.6502,0.77352,2.9992,1.661,3.5535,1.6006,0.99955,1.9291,2.7656,0.50777,2.7294-0.50753-0.013-1.5676-0.51121-2.3558-1.1073zm32.101-2.9668c1.0877-1.3106,4.5037-1.1577,4.9567,0.22188,0.21016,0.63998-0.6485,0.92279-2.8018,0.92279-2.7212,0-2.9874-0.14146-2.1548-1.1447zm-33.616-15.951c0.28634-1.3572,1.067-3.6303,1.7347-5.0514,0.96384-2.0513,1.2542-2.2795,1.4088-1.1074,0.41976,3.1825-0.94313,8.1023-2.3179,8.367-1.1642,0.22421-1.2758-0.0743-0.82557-2.2083zm59.619-34.424c-2.5316-1.1011-5.3366-2.6353-6.2335-3.4093l-1.6307-1.4072,1.8041-0.69293c2.1308-0.81836,11.267-0.27461,14.17,0.84329,1.7792,0.68531,2.0287,1.1721,2.0188,3.9377-0.008,2.2661-0.20758,2.8453-0.7075,2.0546-0.55444-0.87699-0.8828-0.91457-1.6128-0.18455-1.3094,1.3094-2.6102,1.1192-7.808-1.1416zm-35.64-4.9655c-1.3464-1.6224-1.525-6.2401-0.22195-5.74,1.3828,0.53063,2.4454,2.6876,2.4454,4.9638,0,2.1365-0.8486,2.4328-2.2234,0.7762zm-20.693,61.648c-3.0563-3.3595-3.6448-3.6875-6.6441-3.7036-4.9329-0.0264-9.0409-1.1938-10.488-2.9806-1.0254-1.2658-1.2919-3.0244-1.2919-8.5261,0-3.8123,0.27321-6.9314,0.60714-6.9314s2.4527,0.99961,4.7085,2.2214c3.9394,2.1337,4.1586,2.1701,5.5508,0.92279,0.79719-0.71423,2.3917-3.624,3.5434-6.4662,4.0524-10.001,9.3438-17.013,17.109-22.675,7.9942-5.8281,9.2458-8.7917,5.2782-12.498-1.7602-1.6443-2.1207-2.3834-1.4764-3.0276,1.9985-1.9985,0.86098-4.4194-4.9002-10.429-6.6132-6.8981-7.9928-8.584-7.0241-8.584,0.38084,0,4.6353,3.6542,9.4545,8.1206,5.8578,5.4289,9.3235,8.1205,10.456,8.1205,1.1447,0,4.4653-2.6313,10.248-8.1205,4.7049-4.4663,8.9052-8.1206,9.3342-8.1206,1.0201,0-0.0391,1.3383-6.5019,8.215-9.6712,10.291-9.2458,10.749,10.299,11.088,16.436,0.28562,18.337,0.76204,19.49,4.8832,0.31098,1.1114,0.5654,12.684,0.5654,25.717,0,29.405,0.44679,28.061-9.597,28.873-6.2347,0.50418-8.4094,1.5065-10.762,4.9602-0.98357,1.4441-2.1205,2.6204-2.5265,2.6141-0.40603-0.007-1.899-1.6333-3.3177-3.6155l-2.5795-3.6039-11.968-0.52795c-15.394-0.67902-16.371-0.48152-20.323,4.1082-1.7336,2.013-3.3181,3.6579-3.5211,3.6552-0.20302-0.004-1.8781-1.6635-3.7224-3.6908zm2.246,4.5371c0-0.34966-1.4351-2.1768-3.1891-4.0603-3.1652-3.3989-3.2251-3.4245-8.0114-3.4245-3.7977,0-5.3553-0.35823-7.3307-1.686-2.432-1.6346-2.5196-1.8652-2.8775-7.5669-0.54516-8.6856,0.0414-31.35,0.81127-31.35,0.36585,0,0.66519,3.6357,0.66519,8.0794,0,7.3235,0.15537,8.2571,1.661,9.9791,0.91357,1.0449,2.7786,2.2138,4.1445,2.5976,2.2179,0.62322,2.6915,0.47754,4.4294-1.3625,1.0703-1.1332,3.3702-4.7095,5.1109-7.9473,4.1128-7.6501,8.2178-12.574,14.347-17.208,2.7289-2.0636,5.3317-4.4434,5.7841-5.2886,1.1847-2.2136,0.31055-4.6867-2.0538-5.8109-2.9246-1.3906-14.061-2.1051-22.934-1.4714-9.5373,0.68113-10.489,1.3553-10.489,7.4305,0,2.3493-0.3322,4.4767-0.73824,4.7276-0.4651,0.28743-0.73822-1.4415-0.73822-4.6732,0-8.9106,1.5608-9.6031,21.815-9.6783,11.876-0.0442,13.62-0.40192,13.62-2.7934,0-0.53766-2.9898-4.1535-6.6441-8.0351-3.6542-3.8816-6.6441-7.5278-6.6441-8.1027,0-2.4878,3.18-0.54324,10.973,6.7103,4.5829,4.2655,8.9527,8.0873,9.7108,8.493,1.1252,0.60219,2.1653,0.0786,5.6654-2.8515,2.358-1.974,4.9516-4.3483,5.7636-5.2763,2.7291-3.1188,10.064-8.8857,10.756-8.4575,1.5018,0.92818,0.41485,2.6623-5.9947,9.5641-3.8506,4.1463-6.5833,7.7007-6.4505,8.3902,0.33438,1.7364,3.2315,2.1293,16.453,2.2317,12.837,0.0994,16.891,0.80157,18.143,3.1423,2.3919,4.4693,2.771,48.383,0.46535,53.901-1.2863,3.0786-4.0091,4.3128-9.5148,4.3128-4.9768,0-7.9981,1.4557-10.493,5.0555-1.1682,1.6858-2.5378,3.065-3.0434,3.065-0.50564,0-1.8605-1.234-3.0109-2.7422-4.328-5.6743-3.3485-5.3784-17.803-5.3784h-13.075l-3.7787,4.0603c-3.4827,3.7422-5.5058,5.0005-5.5058,3.4246zm-3.3439-2.7232c-3.6549-3.9603-3.7784-4.0234-7.8879-4.0234-4.7718,0-7.2583-0.77257-9.4092-2.9234-1.4604-1.4604-1.5059-2.3155-1.5059-28.287,0-29.852-0.0808-29.356,5.0048-30.768,1.5106-0.41955,8.0618-0.79777,14.558-0.84051,12.255-0.0807,15.184-0.45077,15.695-1.9832,0.16583-0.49752-2.7163-4.0296-6.4048-7.849-6.3037-6.5275-7.8601-9.2303-5.9833-10.39,1.2455-0.76976,3.7284,1.0606,11.623,8.5685,4.2084,4.0023,8.2926,7.62,9.0761,8.0393,1.6007,0.85666,2.7307-0.0117,14.223-10.926,6.5633-6.2332,8.796-7.2247,9.243-4.1048,0.16055,1.1205-1.5869,3.5123-6.0904,8.3362-3.4736,3.7206-6.3156,7.4118-6.3156,8.2026s0.083,1.4692,0.18454,1.5075c0.10151,0.0383,7.1095,0.29088,15.573,0.56134l15.389,0.49173,1.7189,1.9984c2.4394,2.8359,2.8671,7.3983,2.8912,30.838,0.0288,27.999-0.20067,28.608-11.105,29.456l-6.4239,0.4995-3.3927,3.8475c-1.866,2.1161-3.7249,3.854-4.131,3.8619-0.40603,0.008-2.2861-1.7363-4.178-3.876l-3.4398-3.8903-11.969-0.23661c-13.753-0.27189-14.966,0.0337-18.827,4.7458-1.4612,1.7832-3.0498,3.2256-3.5301,3.2053-0.48034-0.0203-2.5442-1.8474-4.5864-4.0603zm-6.8392-28.57c0.64488-0.50753,3.0379-3.9698,5.3178-7.6939,4.1126-6.7177,8.339-11.54,15.768-17.991,2.124-1.8443,3.8617-3.7468,3.8617-4.2278,0-0.48097-0.89849-1.4635-1.9966-2.1834-1.7273-1.1324-3.8146-1.3089-15.476-1.3089-11.946,0-13.629,0.14964-14.798,1.3162-1.1231,1.1206-1.3539,2.9309-1.5529,12.181-0.12858,5.9755,0.0413,12.526,0.37717,14.556,0.53288,3.2196,0.94,3.856,3.1867,4.9819,3.0669,1.5369,3.7673,1.5857,5.3116,0.37026zm8.5198,30.733c-1.3183-1.4449-2.6552-3.0828-2.971-3.6398-0.76351-1.3469-5.2437-2.5381-9.5649-2.5432-2.815-0.004-3.964-0.42319-5.9058-2.158l-2.4109-2.1539-0.26752-9.4732c-0.14713-5.2103-0.0252-17.581,0.27102-27.491,0.69576-23.279-1.0874-21.232,18.81-21.586,10.652-0.1892,14.963-0.52099,15.646-1.2043,1.1562-1.1564,1.1809-1.1201-6.5908-9.6826-3.3497-3.6906-6.0853-6.9621-6.0791-7.2701,0.006-0.30798,0.30275-1.0202,0.65898-1.5827,1.2663-1.9995,4.3748-0.0618,12.882,8.03,4.699,4.4695,9.0558,8.1264,9.6818,8.1264s5.2053-3.8202,10.176-8.4895c8.9712-8.4267,11.638-9.9592,12.667-7.2785,0.62122,1.6189-1.0072,3.9645-7.4552,10.738-2.9709,3.121-5.4016,6.0054-5.4016,6.4098,0,1.2234,2.018,1.4715,16.241,1.9966,9.1152,0.33655,14.312,0.8367,15.626,1.5039,3.6138,1.8351,3.9297,4.3187,3.9336,30.924,0.004,22.059-0.12183,24.591-1.3237,26.793-1.5233,2.7901-3.7412,3.8406-8.1332,3.8521-6.8273,0.0179-8.5859,0.7145-11.433,4.5285-1.6082,2.1542-3.252,3.5839-4.1204,3.5839-0.80909,0-2.9648-1.6971-4.8995-3.8572l-3.4547-3.8572-10.547-0.28966c-12.883-0.35381-15.228,0.22515-18.951,4.6788-1.503,1.7981-3.1723,3.4379-3.7095,3.644-0.53722,0.20615-2.0553-0.80739-3.3736-2.2523zm-4.3518-37.931c5.1725-7.7256,6.9344-9.9592,12.541-15.899,2.9175-3.0908,5.1146-5.927,4.8823-6.3028-0.23222-0.37577-1.2169-0.6832-2.1882-0.6832-0.97128,0-3.6791-0.49832-6.0174-1.1074-2.5037-0.65214-7.5152-1.1073-12.191-1.1073-7.094,0-8.0208,0.15206-8.7037,1.4279-0.43737,0.81722-0.7642,6.588-0.7642,13.493,0,14.569,0.37338,15.55,5.7895,15.2,3.3332-0.21544,3.5366-0.36896,6.6511-5.0207zm2.6713,36.506c-3.5369-3.8325-3.8871-4.0235-7.3823-4.0275-5.7417-0.007-9.077-1.2253-10.718-3.9169-1.3508-2.2153-1.4354-3.9081-1.438-28.734l-0.004-26.38,2.0986-2.3487,2.0986-2.3487,14.845-0.43128c9.8423-0.28597,15.136-0.72324,15.71-1.2977,0.66221-0.66278-0.71715-2.5278-5.8697-7.9364-6.6659-6.9972-7.733-9.0132-5.6751-10.721,1.5908-1.3202,3.2525-0.16267,12.791,8.9102,4.6432,4.4165,8.8356,8.0299,9.3164,8.0299,0.48085,0,4.7315-3.6238,9.446-8.0529,9.7098-9.1222,11.259-10.195,12.835-8.8872,2.0314,1.6859,1.0196,3.6754-5.2148,10.254-5.2296,5.5182-7.1757,8.3954-6.0904,9.0045,0.10162,0.0569,6.6808,0.30852,14.621,0.55901,15.758,0.49714,17.574,0.97606,19.329,5.0973,0.58136,1.3646,0.86146,10.019,0.88984,27.492,0.0381,23.497-0.0646,25.663-1.3079,27.561-1.8309,2.7954-5.4358,4.1515-11.036,4.1515-5.14,0-5.7624,0.33257-9.3268,4.9831-1.3226,1.7256-2.8594,3.1375-3.4152,3.1375-0.55578,0-2.1058-1.3632-3.4446-3.0292-3.8397-4.7786-4.9454-5.0948-17.716-5.0652-12.587,0.0292-13.13,0.18538-17.217,4.9612-1.4751,1.7233-3.0713,3.1166-3.5472,3.0963s-2.5361-1.8474-4.5783-4.0603zm-1.8139-39.214c2.2498-3.3168,5.8256-7.8946,7.9462-10.173,3.8026-4.0856,4.5842-5.7751,3.097-6.6943-0.77727-0.48037-14.158-3.0763-19.65-3.8122-2.7376-0.36683-3.1216-0.22583-3.6439,1.3383-0.81918,2.453-0.39288,22.729,0.51347,24.422,0.59965,1.1205,1.427,1.3517,4.1967,1.1725,3.4223-0.22132,3.4823-0.27113,7.5403-6.2536zm1.4666,40.321c-3.2794-3.6588-3.3971-3.7155-9.1697-4.4162-6.9602-0.84488-8.9535-1.981-9.9836-5.6901-0.46862-1.6874-0.77234-13.064-0.77485-29.022l-0.004-26.247,2.4344-2.3595,2.4344-2.3595,12.884-0.01c13.002-0.01,16.206-0.32566,16.206-1.5957,0-0.38244-2.8237-3.8218-6.275-7.6431-3.4512-3.8213-6.275-7.4046-6.275-7.9629,0-1.4835,2.4521-3.4587,4.2938-3.4587,1.034,0,4.8201,3.1114,10.78,8.8588,5.0523,4.8723,9.3795,8.8588,9.616,8.8588,0.23652,0,4.494-3.8346,9.4609-8.5213,4.967-4.6867,9.7929-8.7125,10.724-8.9463,1.9549-0.49065,4.5867,1.4948,4.5867,3.4601,0,0.69663-2.891,4.3377-6.4245,8.0913-8.337,8.8563-8.325,8.8687,8.5957,8.8702,10.159,0.00073,12.661,0.21917,14.807,1.2919,4.7384,2.3679,4.7994,2.7738,4.7994,31.959,0,24.172-0.10636,26.401-1.3493,28.299-1.8747,2.8619-5.4612,4.1512-11.547,4.1512h-5.1926l-2.6547,3.6952c-1.5674,2.1818-3.4378,3.8917-4.5667,4.1751-1.6256,0.40801-2.3612-0.0357-4.9109-2.9624-3.7976-4.359-5.7672-4.9079-17.611-4.9079-10.751,0-12.142,0.44616-15.875,5.0913-3.2536,4.0492-4.8645,3.9242-9.0086-0.69933z"/>
     </g>
     <path opacity="0.98999999" stroke-linejoin="round" d="m127.28,478.09c0,19.608-12.44,37.057-30.977,43.45" transform="matrix(0.1091785,-0.9437944,0.77896558,0.09011104,-183.5298,504.82507)" stroke="#1a1a1a" stroke-linecap="round" stroke-miterlimit="4" stroke-width="5" fill="none"/>
     <path opacity="0.98999999" stroke-linejoin="round" d="m127.28,478.09c0,19.608-12.44,37.057-30.977,43.45" transform="matrix(0.16447678,-1.4218209,1.1685664,0.1351802,-376.62071,526.96423)" stroke="#1a1a1a" stroke-linecap="round" stroke-miterlimit="4" stroke-width="5" fill="none"/>
     <path opacity="0.98999999" stroke-linejoin="round" d="m127.28,478.09c0,19.608-12.44,37.057-30.977,43.45" transform="matrix(0.23326948,-2.0164999,1.6901378,0.19551579,-638.26139,553.12977)" stroke="#1a1a1a" stroke-linecap="round" stroke-miterlimit="4" stroke-width="5" fill="none"/>
    </g>
    <g style="writing-mode:lr-tb;letter-spacing:0px;word-spacing:0px;" stroke-width="2" font-family="&apos;M+ 2p light&apos;" transform="translate(0,196.68125)" line-height="125%" stroke="#000" font-stretch="normal" stroke-miterlimit="4" font-size="119.24372864px" font-variant="normal" font-weight="normal" font-style="normal" fill="#1a1a1a">
     <path d="m285.3,371.92,0-84.546,2.3872,0,0,87.049-3.8173,0-54.374-84.546-0.24018,0,0,84.546-2.3836,0,0-87.049,3.8137,0,54.378,84.546z"/>
     <path d="m314.08,298.1,0-13.115,2.3836,0,0,13.115zm0,76.318,0-62.005,2.3836,0,0,62.005z"/>
     <path d="m382.92,369.29,1.0735,2.147c-5.2475,2.7826-10.813,4.174-16.696,4.174-8.9035,0-16.098-2.9616-21.583-8.8847-5.4852-5.9231-8.2278-13.694-8.2278-23.313-0.00001-9.9369,2.6632-17.787,7.9895-23.55s12.6-8.6444,21.821-8.6445c5.8831,0.00006,11.448,1.3914,16.696,4.174l-1.0735,2.147c-5.0074-2.6249-10.215-3.9374-15.622-3.9374-8.5857,0.00006-15.303,2.6238-20.151,7.8712-4.8484,5.2475-7.2726,12.561-7.2726,21.94-0.00001,8.9035,2.5036,16.098,7.511,21.583,5.0073,5.4852,11.645,8.2278,19.913,8.2278,5.4076,0,10.615-1.3113,15.622-3.9338z"/>
     <path d="m405.55,366.97c-5.0073-5.7642-7.511-13.615-7.511-23.552-0.00001-9.9369,2.5042-17.787,7.5128-23.55,5.0085-5.763,11.846-8.6444,20.511-8.6445,8.6657,0.00006,15.502,2.8816,20.51,8.6445,5.0072,5.7631,7.5109,13.613,7.511,23.55-0.00007,9.937-2.5037,17.788-7.511,23.552-5.0074,5.7642-11.844,8.6463-20.51,8.6463-8.6658,0-15.504-2.8821-20.513-8.6463zm1.7322-1.7285c4.5706,5.3251,10.831,7.9877,18.781,7.9877s14.21-2.6632,18.781-7.9895c4.5706-5.3263,6.8559-12.6,6.8559-21.821-0.00006-9.2213-2.2854-16.495-6.8559-21.821-4.5707-5.3263-10.831-7.9894-18.781-7.9895-7.9501,0.00006-14.21,2.6632-18.781,7.9895-4.5706,5.3264-6.8559,12.6-6.8559,21.821-0.00001,9.2213,2.2853,16.496,6.8559,21.823z"/>
     <path d="m531.77,365.95,1.31,1.9105c-7.4722,5.1674-16.217,7.7511-26.234,7.7511-12.72,0-22.856-4.0545-30.408-12.163-7.5522-8.109-11.328-18.96-11.328-32.553-0.00001-13.753,3.7367-24.644,11.21-32.673,7.4733-8.0288,17.649-12.043,30.526-12.043,10.017,0.00009,18.762,2.5838,26.234,7.7511l-1.31,1.9068c-6.9967-4.8495-15.305-7.2743-24.924-7.2744-12.162,0.00008-21.76,3.7962-28.796,11.388-7.0355,7.5923-10.553,17.907-10.553,30.944-0.00001,12.877,3.5772,23.152,10.732,30.823,7.1543,7.6711,16.693,11.507,28.617,11.507,9.4614,0,17.769-2.4248,24.924-7.2744z"/>
     <path d="m591.93,360.71-0.23654,0c-2.067,4.6094-5.1675,8.246-9.3014,10.91-4.134,2.6638-8.9436,3.9957-14.429,3.9957-5.9632,0-10.733-1.6297-14.31-4.889-3.5772-3.2594-5.3658-7.5928-5.3658-13-0.00001-6.9942,3.1599-12.419,9.4797-16.276,6.3198-3.8561,15.283-5.7842,26.889-5.7842h7.1543v-0.59316c-0.00005-8.1101-1.3714-13.715-4.1139-16.816-2.7427-3.1004-7.7312-4.6506-14.966-4.6507-7.4722,0.00006-14.428,1.8681-20.866,5.6041l-1.1936-2.0269c6.8365-3.9738,14.19-5.9607,22.06-5.9607,7.87,0.00006,13.415,1.7492,16.636,5.2475,3.2205,3.4984,4.8308,9.6993,4.8308,18.603v22.653c-0.00006,5.5653,0.59553,11.131,1.7868,16.696h-2.3836c-1.0335-4.9297-1.5903-9.5003-1.6703-13.712zm-41.259-2.984c-0.00001,4.772,1.5502,8.5487,4.6507,11.33,3.1004,2.7814,7.3144,4.1722,12.642,4.1722,6.9166,0,12.62-2.2453,17.111-6.7358,4.4905-4.4906,6.7358-10.194,6.7358-17.111v-11.328h-7.1543c-10.81,0.00004-19.177,1.7092-25.1,5.1274-5.9231,3.4183-8.8847,8.2667-8.8847,14.545z"/>
     <path d="m652.9,315.99-1.0735,2.147c-6.3611-3.0228-12.761-4.5342-19.2-4.5342-5.6429,0.00006-10.134,1.1924-13.474,3.5772-3.3394,2.3848-5.0091,5.5653-5.0091,9.5415-0.00001,3.576,1.3119,6.4969,3.9356,8.7628s7.5528,4.1146,14.787,5.5459c7.6322,1.5114,13.177,3.6779,16.634,6.4993,3.457,2.8215,5.1856,6.617,5.1856,11.387-0.00005,5.1674-1.987,9.2419-5.9607,12.224-3.9739,2.9816-9.3402,4.4724-16.099,4.4724-7.312,0-14.267-1.9881-20.866-5.9644l1.1936-2.0269c6.1208,3.7361,12.678,5.6041,19.673,5.6041,6.0432,0,10.833-1.2718,14.371-3.8155,3.5371-2.5437,5.3057-6.0414,5.3057-10.493-0.00004-4.1339-1.5503-7.4133-4.6507-9.8381-3.1005-2.4248-8.1878-4.3128-15.262-5.6642-7.3145-1.4313-12.581-3.4382-15.801-6.0208-3.2193-2.5825-4.829-6.1396-4.829-10.671,0-4.6919,1.888-8.4486,5.6642-11.27,3.7761-2.8214,8.8434-4.2321,15.202-4.2322,6.9166,0.00006,13.674,1.5903,20.273,4.7708z"/>
     <path d="m709.59,371.56,0.83697,2.2635c-3.3382,1.1936-6.9154,1.7904-10.732,1.7904-6.1209,0-10.334-1.2718-12.64-3.8155s-3.4589-7.235-3.4589-14.074v-40.542h-14.905v-2.3836h14.905v-22.657h2.3836v22.657h25.637v2.3836h-25.637v40.542c-0.00002,6.361,0.97402,10.535,2.9221,12.522,1.9481,1.9869,5.5458,2.9804,10.793,2.9804,3.4182,0,6.7164-0.55556,9.8945-1.6667z"/>
    </g>
   </g>
  </g>
 </g>
</svg>
