<?xml version="1.0" encoding="UTF-8" standalone="no"?>
<!-- Created with Inkscape (http://www.inkscape.org/) -->

<svg
   xmlns:dc="http://purl.org/dc/elements/1.1/"
   xmlns:cc="http://creativecommons.org/ns#"
   xmlns:rdf="http://www.w3.org/1999/02/22-rdf-syntax-ns#"
   xmlns:svg="http://www.w3.org/2000/svg"
   xmlns="http://www.w3.org/2000/svg"
   xmlns:sodipodi="http://sodipodi.sourceforge.net/DTD/sodipodi-0.dtd"
   xmlns:inkscape="http://www.inkscape.org/namespaces/inkscape"
   width="400"
   height="200"
   id="svg5994"
   version="1.1"
   inkscape:version="0.48.4 r9939"
   sodipodi:docname="新規ドキュメント 11">
  <defs
     id="defs5996" />
  <sodipodi:namedview
     id="base"
     pagecolor="#ffffff"
     bordercolor="#666666"
     borderopacity="1.0"
     inkscape:pageopacity="0.0"
     inkscape:pageshadow="2"
     inkscape:zoom="1.4"
     inkscape:cx="191.56608"
     inkscape:cy="56.55036"
     inkscape:document-units="px"
     inkscape:current-layer="g6798"
     showgrid="false"
     fit-margin-top="0"
     fit-margin-left="0"
     fit-margin-right="0"
     fit-margin-bottom="0"
     inkscape:window-width="1366"
     inkscape:window-height="705"
     inkscape:window-x="-8"
     inkscape:window-y="-8"
     inkscape:window-maximized="1" />
  <metadata
     id="metadata5999">
    <rdf:RDF>
      <cc:Work
         rdf:about="">
        <dc:format>image/svg+xml</dc:format>
        <dc:type
           rdf:resource="http://purl.org/dc/dcmitype/StillImage" />
        <dc:title></dc:title>
      </cc:Work>
    </rdf:RDF>
  </metadata>
  <g
     inkscape:label="レイヤー 1"
     inkscape:groupmode="layer"
     id="layer1"
     transform="translate(-61.714292,-52.368604)">
    <g
       transform="matrix(1.6129034,0,0,1.6664887,-475.38254,-563.1693)"
       id="g6798"
       inkscape:export-xdpi="90"
       inkscape:export-ydpi="90">
      <rect
         y="369.36218"
         x="333"
         height="120"
         width="247.99997"
         id="rect2985-3-1"
         style="fill:#1a1a1a;fill-opacity:1;stroke:none" />
      <path
         inkscape:connector-curvature="0"
         id="path3076"
         d="m 479.21875,467.8125 -12.375,21.5625 31.40625,0 12.375,-21.5625 -31.40625,0 z m 62.84375,0 -12.375,21.5625 31.4375,0 12.375,-21.5625 -31.4375,0 z"
         style="fill:#ff6600;fill-opacity:1;stroke:none" />
      <path
         inkscape:connector-curvature="0"
         id="rect2985-7"
         d="m 353.5,467.8125 -12.375,21.5625 31.40625,0 12.375,-21.5625 -31.40625,0 z m 62.84375,0 -12.375,21.5625 31.4375,0 12.375,-21.5625 -31.4375,0 z"
         style="fill:#ff6600;fill-opacity:1;stroke:none" />
      <path
         inkscape:connector-curvature="0"
         id="path3067"
         d="m 479.21875,369.375 -12.375,21.5625 31.40625,0 12.375,-21.5625 -31.40625,0 z m 62.84375,0 -12.375,21.5625 31.4375,0 12.375,-21.5625 -31.4375,0 z"
         style="fill:#ff6600;fill-opacity:1;stroke:none" />
      <path
         inkscape:connector-curvature="0"
         id="rect2985-2-4"
         d="m 353.5,369.375 -12.375,21.5625 31.40625,0 12.375,-21.5625 -31.40625,0 z m 62.84375,0 -12.375,21.5625 31.4375,0 12.375,-21.5625 -31.4375,0 z"
         style="fill:#ff6600;fill-opacity:1;stroke:none" />
      <g
         transform="scale(0.71454826,1.3994856)"
         style="font-size:51.09047699px;font-style:normal;font-variant:normal;font-weight:normal;font-stretch:normal;line-height:125%;letter-spacing:0px;word-spacing:0px;fill:#f2f2f2;fill-opacity:1;stroke:none;font-family:HGSHeiseiMinchotaiW9;-inkscape-font-specification:HGSHeiseiMinchotaiW9"
         id="text3205-0">
        <path
           d="m 500.36331,283.6496 7.1846,0.79829 c 0.93131,0.13309 1.39698,0.46571 1.397,0.99786 -2e-5,0.39918 -0.46569,0.79833 -1.397,1.19743 l -0.79829,0.39915 0,5.38845 1.79615,0 2.99358,-3.5923 4.9893,3.99144 0,0.99786 -9.77903,0 0,6.78546 2.59443,0 3.19316,-3.5923 4.9893,3.99144 0,0.99786 -10.77689,0 0,5.98717 2.99358,0 1.79615,-3.39273 5.58802,3.5923 c 0.53216,0.26611 0.79826,0.59873 0.79829,0.99786 -3e-5,0.53221 -0.26613,0.93135 -0.79829,1.19743 l -0.79829,0.39915 0,11.17604 c -3e-5,1.19743 -0.59875,2.19529 -1.79615,2.99358 -1.06441,0.66524 -2.46142,0.99786 -4.19101,0.99786 -0.66527,0 -0.99789,-0.33262 -0.99787,-0.99786 -2e-5,-1.46353 -0.19959,-2.39486 -0.59871,-2.79401 -0.39917,-0.39914 -1.06441,-0.59871 -1.99572,-0.59872 l 0,7.58375 -6.38631,1.19743 0,-20.95508 -3.19316,0 0,15.56663 -5.98716,0.99786 0,-20.7555 5.38845,2.79401 3.79187,0 0,-5.98717 -11.37562,0 -0.59871,-1.397 1.99572,0 -0.99786,-0.59872 c 1.46352,-4.25751 2.46138,-9.24681 2.99358,-14.96791 l 6.98503,2.19529 c 0.53217,0.13309 0.79827,0.39918 0.79828,0.79829 -10e-6,0.53223 -0.33263,0.86485 -0.99786,0.99786 l -0.99786,0.19957 -1.79615,3.19316 3.99145,0 z m 26.74267,0.79829 6.58588,0.79829 c 0.79824,0.13309 1.19738,0.39918 1.19743,0.79829 -5e-5,0.39918 -0.26614,0.7318 -0.79829,0.99786 l -0.99786,0.39914 0,36.72128 c -4e-5,2.52792 -0.73181,4.05797 -2.19529,4.59016 -2.12881,0.79829 -3.72539,1.19743 -4.78973,1.19744 -0.79833,-1e-5 -1.19747,-0.46568 -1.19744,-1.39701 -3e-5,-1.33048 -0.19961,-2.19529 -0.59871,-2.59444 -0.66528,-0.66524 -2.12881,-1.06438 -4.39059,-1.19743 l 0,-1.39701 7.1846,0 z m -8.78118,5.38845 6.78546,0.79829 c 0.6652,0.13308 0.99782,0.39918 0.99786,0.79829 -4e-5,0.53222 -0.33266,0.86484 -0.99786,0.99786 l -0.79829,0.19957 0,24.74695 -5.98717,0.99786 z m -27.54096,10.7769 9.57947,0 0,-6.78546 -4.59016,0 c -1.59659,2.52795 -3.25969,4.78976 -4.98931,6.78546 z m 15.96578,19.55807 3.5923,0 0,-10.7769 -3.5923,0 z"
           style=""
           id="path6024" />
        <path
           d="m 554.44737,285.04661 c 0.93131,0.26613 1.39698,0.66528 1.397,1.19743 -2e-5,0.66528 -0.46569,1.06442 -1.397,1.19743 l -1.19744,0.19957 c -1.0644,2.9271 -2.26183,5.72111 -3.5923,8.38204 l 1.19744,0.19957 c 0.93132,0.13308 1.39699,0.39917 1.397,0.79829 -10e-6,0.53222 -0.26611,0.93136 -0.79829,1.19743 l -0.79828,0.39914 0,29.93583 -6.78546,1.39701 0,-25.1461 c -1.46353,1.86269 -2.92706,3.45927 -4.39059,4.78973 l -0.79829,-0.79828 c 1.86267,-3.85838 3.12663,-6.78544 3.79188,-8.78118 1.06437,-3.06008 2.26181,-8.58157 3.5923,-16.56449 z m 13.17176,0 c 1.1974,0.26613 1.79612,0.59875 1.79615,0.99786 -3e-5,0.53223 -0.39918,0.93137 -1.19743,1.19743 l -1.19744,0.39914 -2.79401,5.18888 12.17391,0 3.19315,-3.99144 5.58802,4.19101 0,1.19744 -15.96577,0 0,8.98074 5.78759,0 2.99358,-3.79187 5.18888,3.99145 0,1.19743 -13.97005,0 0,9.77904 7.58374,0 3.19315,-3.99145 5.38845,4.19102 0,1.19743 -16.16534,0 0,12.77262 -6.78546,1.39701 0,-34.12685 c -2.92708,4.78976 -6.25328,8.58163 -9.97861,11.37562 l -0.79828,-0.79829 c 3.85837,-5.588 6.7189,-13.17173 8.5816,-22.75123 z"
           style=""
           id="path6026" />
        <path
           d="m 598.95196,283.6496 7.1846,0.99786 c 0.79827,0.13309 1.19741,0.39919 1.19743,0.79829 -2e-5,0.53223 -0.33264,0.93138 -0.99786,1.19743 l -0.99786,0.39915 0,8.38203 2.1953,-3.39273 3.59229,2.99359 c 0.79827,-3.45922 1.46351,-7.18457 1.99573,-11.17605 l 7.38417,1.99573 c 1.06435,0.26613 1.59654,0.66527 1.59657,1.19743 -3e-5,0.53223 -0.53222,0.93137 -1.59657,1.19743 l -0.79829,0.19957 c -1.06442,2.26186 -2.19533,4.52367 -3.39273,6.78546 l 12.97219,0 1.79615,-2.99358 5.18888,3.39272 c 0.66519,0.39918 0.99781,0.79832 0.99786,1.19744 -5e-5,0.53222 -0.26615,0.93136 -0.79829,1.19743 l -1.19743,0.59871 c -5e-5,7.71681 -0.1331,14.63531 -0.39915,20.75551 -0.13309,3.19316 -0.59876,5.5215 -1.397,6.98503 -0.66529,1.33048 -1.86272,2.26181 -3.5923,2.79401 -1.86271,0.66523 -3.39277,0.99785 -4.59016,0.99786 -1.19747,-1e-5 -1.79619,-0.39915 -1.79615,-1.19743 -4e-5,-1.72963 -0.13308,-2.72749 -0.39915,-2.99359 -0.66527,-0.66524 -2.1288,-1.13091 -4.39058,-1.397 l 0,-1.39701 9.18032,0 c 0.79825,-7.45068 1.26391,-16.29837 1.397,-26.5431 l -0.39914,0 c -0.93138,7.18462 -3.12667,13.37135 -6.58588,18.56022 -3.59233,5.32192 -8.38206,9.84556 -14.3692,13.5709 l -0.79829,-0.99786 c 4.12447,-3.85839 7.51719,-8.44855 10.17818,-13.77048 2.66093,-5.32191 4.39056,-11.10949 5.18888,-17.36278 l -0.39915,0 c -0.93137,5.05585 -2.99361,9.71253 -6.18673,13.97006 -2.52794,3.32621 -5.58805,6.38631 -9.18032,9.18032 l -0.79829,-0.99787 c 2.79399,-3.45924 4.78971,-6.65239 5.98716,-9.57946 1.33046,-3.19314 2.59441,-7.38415 3.79187,-12.57305 l -0.19957,0 c -2.12879,3.32623 -4.45713,6.38633 -6.98502,9.18032 l -1.19744,-0.59871 c 1.59656,-3.19314 2.66094,-5.85409 3.19316,-7.98289 l -5.18888,0 0,10.7769 6.18674,-1.59658 0.19957,0.99786 -6.38631,3.79187 0,17.76193 -6.38631,1.19743 0,-15.7662 -3.99144,2.59443 -0.39915,0.99787 c -0.2661,0.79829 -0.59872,1.19743 -0.99786,1.19743 -0.39915,0 -0.79829,-0.46566 -1.19743,-1.39701 l -2.19529,-6.18673 8.78117,-2.1953 0,-12.1739 -2.59444,0 c -1.99572,4.78975 -3.72535,8.11595 -5.18887,9.97861 l -1.19744,-0.59872 c 0.79829,-3.32618 1.33048,-6.25324 1.59658,-8.78117 0.26609,-2.39484 0.39914,-5.58799 0.39915,-9.57947 l 6.98502,1.39701 z m -0.79829,7.98289 c -0.66525,1.8627 -1.13091,3.25971 -1.397,4.19101 l 2.19529,0 0,-4.39058 z"
           style=""
           id="path6028" />
        <path
           d="m 665.40949,287.2419 0,1.19743 -6.78546,0 0,8.38204 0.59872,0 1.59658,-2.59444 4.39059,2.59444 c 0.66521,0.39917 0.99783,0.79831 0.99786,1.19743 -3e-5,0.66527 -0.26613,1.06441 -0.79829,1.19743 l -0.79829,0.19957 0,28.33925 -5.18888,0.99786 0,-2.39486 -11.57518,0 0,2.59444 -5.18888,1.19743 0,-35.52385 4.39059,2.1953 0.79829,0 0,-8.38204 -5.7876,0 -0.59871,-1.397 15.7662,0 2.99358,-3.5923 z m 20.7555,-0.19957 c 0.93129,0.53223 1.39696,0.9979 1.39701,1.397 -5e-5,0.39918 -0.26614,0.7318 -0.79829,0.99786 l -0.79829,0.39915 0,16.36492 -6.78545,1.19743 0,-3.5923 -5.78759,0 0,17.16321 c -4e-5,0.93134 0.13301,1.53005 0.39914,1.79615 0.26606,0.2661 0.66521,0.39914 1.19743,0.39914 l 5.38845,0 c 1.19739,0 1.99568,-0.79828 2.39487,-2.39486 l 1.59658,-6.38631 1.397,0 c -0.26614,3.5923 -5e-5,5.78759 0.79829,6.58588 0.66519,0.66524 1.46348,1.06439 2.39487,1.19743 -0.3992,2.66096 -1.06444,4.45711 -1.99573,5.38845 -0.79833,0.79829 -2.06229,1.19743 -3.79187,1.19743 l -11.37561,0 c -1.86271,0 -3.12666,-0.33262 -3.79187,-0.99786 -0.66527,-0.66524 -0.99789,-2.06224 -0.99786,-4.19101 l 0,-24.34781 6.38631,3.19316 5.78759,0 0,-13.77048 -12.77262,0 -0.79829,-1.39701 13.57091,0 1.99572,-3.39273 z m -33.92727,9.77904 1.99573,0 0,-8.38204 -1.99573,0 z m -4.39058,14.76834 c 0.79828,-2.5279 1.19742,-5.72105 1.19743,-9.57947 l 0,-3.79187 -1.19743,0 z m 4.39058,-9.57947 c -10e-6,3.19318 -0.33263,5.52152 -0.99786,6.98503 -0.66525,1.46354 -1.79616,2.99359 -3.39272,4.59016 l 0,2.39486 11.57518,0 0,-4.78973 -3.19315,0 c -1.3305,2e-5 -1.99574,-0.66522 -1.99572,-1.99572 l 0,-10.97647 -1.99573,0 z m 5.58803,3.39273 c -2e-5,0.66526 0.26607,0.99788 0.79828,0.99786 l 0.79829,0 0,-8.18246 -1.59657,0 z m -9.97861,19.55807 11.57518,0 0,-7.58374 -11.57518,0 z"
           style=""
           id="path6030" />
        <path
           d="m 716.10083,285.04661 c 0.79826,0.13308 1.1974,0.39918 1.19743,0.79829 -3e-5,0.53223 -0.26612,0.93137 -0.79829,1.19743 l -0.99786,0.39914 c -0.79831,1.86271 -1.66312,3.65886 -2.59444,5.38845 l 16.56449,0 3.79188,-4.59016 5.78759,4.78973 0,1.19744 -26.74267,0 c -1.46355,2.92708 -3.12665,5.72109 -4.98931,8.38203 l 1.99572,1.19743 5.38845,0 0,-8.18246 7.58375,0.59872 c 0.9313,0.13308 1.39697,0.4657 1.397,0.99786 -3e-5,0.66527 -0.4657,1.13094 -1.397,1.397 l -0.79829,0.19958 0,4.9893 5.98716,0 1.99572,-3.5923 5.98717,3.79187 c 0.53215,0.26612 0.79824,0.66526 0.79829,1.19744 -5e-5,0.66526 -0.33267,1.0644 -0.99786,1.19743 l -0.79829,0.19957 0,14.3692 c -5e-5,1.59658 -0.79833,2.72749 -2.39487,3.39273 -1.86271,0.79828 -3.32624,1.19743 -4.39059,1.19743 -0.93137,0 -1.39704,-0.46567 -1.397,-1.39701 -4e-5,-1.46352 -0.13308,-2.39486 -0.39914,-2.79401 -0.53223,-0.66523 -1.59662,-1.19743 -3.19316,-1.59657 l 0,-1.39701 4.9893,0 0,-13.17176 -6.18673,0 0,23.94866 -6.78546,1.19743 0,-25.14609 -5.78759,0 0,19.55807 -6.78545,1.19743 0,-17.1632 c -2.66098,2.79402 -5.38846,5.18888 -8.18246,7.18459 l -0.99786,-1.19743 c 2.794,-3.06009 5.25539,-6.31977 7.38417,-9.77904 2.12875,-3.45922 3.85838,-7.05152 5.18887,-10.77689 l -12.1739,0 -0.59872,-1.39701 13.17177,0 c 1.06437,-3.06007 1.92918,-6.25322 2.59444,-9.57946 z"
           style=""
           id="path6032" />
        <path
           d="m 763.59901,283.84917 7.58375,0.79829 c 1.06435,0.13309 1.59654,0.46571 1.59657,0.99786 -3e-5,0.53223 -0.39917,0.93138 -1.19743,1.19744 l -1.19743,0.39914 0,4.39059 11.97433,0 2.39486,-2.59444 5.18888,3.5923 c 0.53214,0.26613 0.79824,0.66527 0.79829,1.19743 -5e-5,0.66527 -0.46572,0.99789 -1.39701,0.99786 l -0.79828,0 -5.18888,2.99359 1.19743,0.99786 0,0.99786 -17.96149,0 -5.7876,6.78545 16.16535,-0.19957 c -1.72966,-1.59656 -3.7919,-2.92704 -6.18674,-3.99144 l 0.39915,-1.19744 c 6.12017,1.19746 10.04509,2.52794 11.77476,3.99145 1.46348,1.19745 2.19525,2.59445 2.19529,4.19101 -4e-5,2.52793 -0.86486,3.79189 -2.59444,3.79187 -1.33052,2e-5 -2.26186,-0.73175 -2.79401,-2.19529 -0.39918,-0.79827 -0.93137,-1.72961 -1.59658,-2.79401 l -25.34566,3.99144 -0.19958,0.79829 c -0.13305,0.66525 -0.46567,0.99787 -0.99786,0.99786 -0.39915,10e-6 -0.73177,-0.39913 -0.99786,-1.19743 l -2.19529,-6.18674 8.78117,0 1.99573,-6.78545 -8.38204,0 c -0.5322,0.93136 -1.46353,1.39703 -2.79401,1.397 -1.19743,3e-5 -2.19529,-0.39912 -2.99358,-1.19743 -0.66524,-0.66521 -0.99786,-1.4635 -0.99786,-2.39487 0,-1.72959 1.19743,-2.99355 3.5923,-3.79187 1.59657,-0.53216 2.46138,-2.06221 2.59444,-4.59016 l 1.397,0 c 0.13304,0.66528 0.26609,1.46357 0.39915,2.39487 l 11.57518,0 z m -11.97433,14.56877 24.94653,0 2.79401,-3.39272 1.99572,1.397 1.397,-3.39273 -30.53454,0 c 0.13304,1.99576 -0.0665,3.7919 -0.59872,5.38845 z m 11.97433,12.77262 7.58375,0.79829 c 1.06435,0.13306 1.59654,0.46568 1.59657,0.99786 -3e-5,0.39916 -0.39917,0.73178 -1.19743,0.99786 l -1.19743,0.39915 0,2.59443 7.98289,0 2.79401,-3.39272 4.9893,3.79187 0,0.99786 -15.7662,0 0,7.78331 11.17604,0 3.19315,-3.79187 5.18888,3.99145 0,1.19743 -45.50245,0 -0.59872,-1.39701 19.75764,0 0,-7.78331 -14.16962,0 -0.59872,-1.39701 14.76834,0 z"
           style=""
           id="path6034" />
      </g>
    </g>
  </g>
</svg>
