<?xml version="1.0" encoding="UTF-8" standalone="no"?>
<!-- Created with Inkscape (http://www.inkscape.org/) -->
<svg xmlns:rdf="http://www.w3.org/1999/02/22-rdf-syntax-ns#" xmlns="http://www.w3.org/2000/svg" version="1.1" xmlns:cc="http://creativecommons.org/ns#" xmlns:dc="http://purl.org/dc/elements/1.1/" viewBox="0 0 400 200">
 <metadata>
  <rdf:RDF>
   <cc:Work rdf:about="">
    <dc:format>image/svg+xml</dc:format>
    <dc:type rdf:resource="http://purl.org/dc/dcmitype/StillImage"/>
    <dc:title/>
   </cc:Work>
  </rdf:RDF>
 </metadata>
 <g transform="translate(-61.714292,-52.368604)">
  <g transform="matrix(1.6129034,0,0,1.6664887,-475.38254,-563.1693)">
   <rect height="120" width="248" y="369.36" x="333" fill="#1a1a1a"/>
   <path d="m479.22,467.81-12.375,21.562,31.406,0,12.375-21.562-31.406,0zm62.844,0-12.375,21.562,31.438,0,12.375-21.562-31.438,0z" fill="#F60"/>
   <path d="m353.5,467.81-12.375,21.562,31.406,0,12.375-21.562-31.406,0zm62.844,0-12.375,21.562,31.438,0,12.375-21.562-31.438,0z" fill="#F60"/>
   <path d="m479.22,369.38-12.375,21.562,31.406,0,12.375-21.562-31.406,0zm62.844,0-12.375,21.562,31.438,0,12.375-21.562-31.438,0z" fill="#F60"/>
   <path d="m353.5,369.38-12.375,21.562,31.406,0,12.375-21.562-31.406,0zm62.844,0-12.375,21.562,31.438,0,12.375-21.562-31.438,0z" fill="#F60"/>
   <g style="letter-spacing:0px;word-spacing:0px;" font-weight="normal" transform="scale(0.71454826,1.3994856)" font-stretch="normal" line-height="125%" font-size="51.09047699px" font-variant="normal" font-family="HGSHeiseiMinchotaiW9" font-style="normal" fill="#f2f2f2">
    <path style="" d="m500.36,283.65,7.1846,0.79829c0.93131,0.13309,1.397,0.46571,1.397,0.99786-0.00002,0.39918-0.46569,0.79833-1.397,1.1974l-0.79829,0.39915v5.3884h1.7962l2.9936-3.5923,4.9893,3.9914v0.99786h-9.779v6.7855h2.5944l3.1932-3.5923,4.9893,3.9914v0.99786h-10.777v5.9872h2.9936l1.7962-3.3927,5.588,3.5923c0.53216,0.26611,0.79826,0.59873,0.79829,0.99786-0.00003,0.53221-0.26613,0.93135-0.79829,1.1974l-0.79829,0.39915v11.176c-0.00003,1.1974-0.59875,2.1953-1.7962,2.9936-1.0644,0.66524-2.4614,0.99786-4.191,0.99786-0.66527,0-0.99789-0.33262-0.99787-0.99786-0.00002-1.4635-0.19959-2.3949-0.59871-2.794-0.39917-0.39914-1.0644-0.59871-1.9957-0.59872v7.5838l-6.3863,1.1974v-20.955h-3.1932v15.567l-5.9872,0.99786v-20.756l5.3884,2.794h3.7919v-5.9872h-11.376l-0.59871-1.397h1.9957l-0.99786-0.59872c1.4635-4.2575,2.4614-9.2468,2.9936-14.968l6.985,2.1953c0.53217,0.13309,0.79827,0.39918,0.79828,0.79829-0.00001,0.53223-0.33263,0.86485-0.99786,0.99786l-0.99786,0.19957-1.7962,3.1932h3.9914zm26.743,0.79829,6.5859,0.79829c0.79824,0.13309,1.1974,0.39918,1.1974,0.79829-0.00005,0.39918-0.26614,0.7318-0.79829,0.99786l-0.99786,0.39914v36.721c-0.00004,2.5279-0.73181,4.058-2.1953,4.5902-2.1288,0.79829-3.7254,1.1974-4.7897,1.1974-0.79833-0.00001-1.1975-0.46568-1.1974-1.397-0.00003-1.3305-0.19961-2.1953-0.59871-2.5944-0.66528-0.66524-2.1288-1.0644-4.3906-1.1974v-1.397h7.1846zm-8.7812,5.3884,6.7855,0.79829c0.6652,0.13308,0.99782,0.39918,0.99786,0.79829-0.00004,0.53222-0.33266,0.86484-0.99786,0.99786l-0.79829,0.19957v24.747l-5.9872,0.99786zm-27.541,10.777,9.5795,0,0-6.7855-4.5902,0c-1.5966,2.528-3.2597,4.7898-4.9893,6.7855zm15.966,19.558,3.5923,0,0-10.777-3.5923,0z"/>
    <path style="" d="m554.45,285.05c0.93131,0.26613,1.397,0.66528,1.397,1.1974-0.00002,0.66528-0.46569,1.0644-1.397,1.1974l-1.1974,0.19957c-1.0644,2.9271-2.2618,5.7211-3.5923,8.382l1.1974,0.19957c0.93132,0.13308,1.397,0.39917,1.397,0.79829-0.00001,0.53222-0.26611,0.93136-0.79829,1.1974l-0.79828,0.39914v29.936l-6.7855,1.397v-25.146c-1.4635,1.8627-2.9271,3.4593-4.3906,4.7897l-0.79829-0.79828c1.8627-3.8584,3.1266-6.7854,3.7919-8.7812,1.0644-3.0601,2.2618-8.5816,3.5923-16.564zm13.172,0c1.1974,0.26613,1.7961,0.59875,1.7962,0.99786-0.00003,0.53223-0.39918,0.93137-1.1974,1.1974l-1.1974,0.39914-2.794,5.1889h12.174l3.1932-3.9914,5.588,4.191v1.1974h-15.966v8.9807h5.7876l2.9936-3.7919,5.1889,3.9914v1.1974h-13.97v9.779h7.5837l3.1932-3.9914,5.3884,4.191v1.1974h-16.165v12.773l-6.7855,1.397v-34.127c-2.9271,4.7898-6.2533,8.5816-9.9786,11.376l-0.79828-0.79829c3.8584-5.588,6.7189-13.172,8.5816-22.751z"/>
    <path style="" d="m598.95,283.65,7.1846,0.99786c0.79827,0.13309,1.1974,0.39919,1.1974,0.79829-0.00002,0.53223-0.33264,0.93138-0.99786,1.1974l-0.99786,0.39915v8.382l2.1953-3.3927,3.5923,2.9936c0.79827-3.4592,1.4635-7.1846,1.9957-11.176l7.3842,1.9957c1.0644,0.26613,1.5965,0.66527,1.5966,1.1974-0.00003,0.53223-0.53222,0.93137-1.5966,1.1974l-0.79829,0.19957c-1.0644,2.2619-2.1953,4.5237-3.3927,6.7855h12.972l1.7962-2.9936,5.1889,3.3927c0.66519,0.39918,0.99781,0.79832,0.99786,1.1974-0.00005,0.53222-0.26615,0.93136-0.79829,1.1974l-1.1974,0.59871c-0.00005,7.7168-0.1331,14.635-0.39915,20.756-0.13309,3.1932-0.59876,5.5215-1.397,6.985-0.66529,1.3305-1.8627,2.2618-3.5923,2.794-1.8627,0.66523-3.3928,0.99785-4.5902,0.99786-1.1975-0.00001-1.7962-0.39915-1.7962-1.1974-0.00004-1.7296-0.13308-2.7275-0.39915-2.9936-0.66527-0.66524-2.1288-1.1309-4.3906-1.397v-1.397h9.1803c0.79825-7.4507,1.2639-16.298,1.397-26.543h-0.39914c-0.93138,7.1846-3.1267,13.371-6.5859,18.56-3.5923,5.3219-8.3821,9.8456-14.369,13.571l-0.79829-0.99786c4.1245-3.8584,7.5172-8.4486,10.178-13.77,2.6609-5.3219,4.3906-11.109,5.1889-17.363h-0.39915c-0.93137,5.0558-2.9936,9.7125-6.1867,13.97-2.5279,3.3262-5.588,6.3863-9.1803,9.1803l-0.79829-0.99787c2.794-3.4592,4.7897-6.6524,5.9872-9.5795,1.3305-3.1931,2.5944-7.3842,3.7919-12.573h-0.19957c-2.1288,3.3262-4.4571,6.3863-6.985,9.1803l-1.1974-0.59871c1.5966-3.1931,2.6609-5.8541,3.1932-7.9829h-5.1889v10.777l6.1867-1.5966,0.19957,0.99786-6.3863,3.7919v17.762l-6.3863,1.1974v-15.766l-3.9914,2.5944-0.39915,0.99787c-0.2661,0.79829-0.59872,1.1974-0.99786,1.1974-0.39915,0-0.79829-0.46566-1.1974-1.397l-2.1953-6.1867,8.7812-2.1953v-12.174h-2.5944c-1.9957,4.7898-3.7254,8.116-5.1889,9.9786l-1.1974-0.59872c0.79829-3.3262,1.3305-6.2532,1.5966-8.7812,0.26609-2.3948,0.39914-5.588,0.39915-9.5795l6.985,1.397zm-0.79829,7.9829c-0.66525,1.8627-1.1309,3.2597-1.397,4.191h2.1953v-4.3906z"/>
    <path style="" d="m665.41,287.24,0,1.1974-6.7855,0,0,8.382,0.59872,0,1.5966-2.5944,4.3906,2.5944c0.66521,0.39917,0.99783,0.79831,0.99786,1.1974-0.00003,0.66527-0.26613,1.0644-0.79829,1.1974l-0.79829,0.19957v28.339l-5.1889,0.99786v-2.3949h-11.575v2.5944l-5.1889,1.1974v-35.524l4.3906,2.1953h0.79829v-8.382h-5.7876l-0.59871-1.397h15.766l2.9936-3.5923zm20.756-0.19957c0.93129,0.53223,1.397,0.9979,1.397,1.397-0.00005,0.39918-0.26614,0.7318-0.79829,0.99786l-0.79829,0.39915v16.365l-6.7854,1.1974v-3.5923h-5.7876v17.163c-0.00004,0.93134,0.13301,1.53,0.39914,1.7962,0.26606,0.2661,0.66521,0.39914,1.1974,0.39914h5.3884c1.1974,0,1.9957-0.79828,2.3949-2.3949l1.5966-6.3863h1.397c-0.26614,3.5923-0.00005,5.7876,0.79829,6.5859,0.66519,0.66524,1.4635,1.0644,2.3949,1.1974-0.3992,2.661-1.0644,4.4571-1.9957,5.3884-0.79833,0.79829-2.0623,1.1974-3.7919,1.1974h-11.376c-1.8627,0-3.1267-0.33262-3.7919-0.99786-0.66527-0.66524-0.99789-2.0622-0.99786-4.191v-24.348l6.3863,3.1932h5.7876v-13.77h-12.773l-0.79829-1.397h13.571l1.9957-3.3927zm-33.927,9.779,1.9957,0,0-8.382-1.9957,0zm-4.3906,14.768c0.79828-2.5279,1.1974-5.721,1.1974-9.5795v-3.7919h-1.1974zm4.3906-9.5795c-0.00001,3.1932-0.33263,5.5215-0.99786,6.985-0.66525,1.4635-1.7962,2.9936-3.3927,4.5902v2.3949h11.575v-4.7897h-3.1932c-1.3305,0.00002-1.9957-0.66522-1.9957-1.9957v-10.976h-1.9957zm5.588,3.3927c-0.00002,0.66526,0.26607,0.99788,0.79828,0.99786h0.79829v-8.1825h-1.5966zm-9.9786,19.558,11.575,0,0-7.5837-11.575,0z"/>
    <path style="" d="m716.1,285.05c0.79826,0.13308,1.1974,0.39918,1.1974,0.79829-0.00003,0.53223-0.26612,0.93137-0.79829,1.1974l-0.99786,0.39914c-0.79831,1.8627-1.6631,3.6589-2.5944,5.3884h16.564l3.7919-4.5902,5.7876,4.7897v1.1974h-26.743c-1.4636,2.9271-3.1266,5.7211-4.9893,8.382l1.9957,1.1974h5.3884v-8.1825l7.5838,0.59872c0.9313,0.13308,1.397,0.4657,1.397,0.99786-0.00003,0.66527-0.4657,1.1309-1.397,1.397l-0.79829,0.19958v4.9893h5.9872l1.9957-3.5923,5.9872,3.7919c0.53215,0.26612,0.79824,0.66526,0.79829,1.1974-0.00005,0.66526-0.33267,1.0644-0.99786,1.1974l-0.79829,0.19957v14.369c-0.00005,1.5966-0.79833,2.7275-2.3949,3.3927-1.8627,0.79828-3.3262,1.1974-4.3906,1.1974-0.93137,0-1.397-0.46567-1.397-1.397-0.00004-1.4635-0.13308-2.3949-0.39914-2.794-0.53223-0.66523-1.5966-1.1974-3.1932-1.5966v-1.397h4.9893v-13.172h-6.1867v23.949l-6.7855,1.1974v-25.146h-5.7876v19.558l-6.7854,1.1974v-17.163c-2.661,2.794-5.3885,5.1889-8.1825,7.1846l-0.99786-1.1974c2.794-3.0601,5.2554-6.3198,7.3842-9.779s3.8584-7.0515,5.1889-10.777h-12.174l-0.59872-1.397h13.172c1.0644-3.0601,1.9292-6.2532,2.5944-9.5795z"/>
    <path style="" d="m763.6,283.85,7.5838,0.79829c1.0644,0.13309,1.5965,0.46571,1.5966,0.99786-0.00003,0.53223-0.39917,0.93138-1.1974,1.1974l-1.1974,0.39914v4.3906h11.974l2.3949-2.5944,5.1889,3.5923c0.53214,0.26613,0.79824,0.66527,0.79829,1.1974-0.00005,0.66527-0.46572,0.99789-1.397,0.99786h-0.79828l-5.1889,2.9936,1.1974,0.99786v0.99786h-17.961l-5.7876,6.7854,16.165-0.19957c-1.7297-1.5966-3.7919-2.927-6.1867-3.9914l0.39915-1.1974c6.1202,1.1975,10.045,2.5279,11.775,3.9914,1.4635,1.1974,2.1952,2.5944,2.1953,4.191-0.00004,2.5279-0.86486,3.7919-2.5944,3.7919-1.3305,0.00002-2.2619-0.73175-2.794-2.1953-0.39918-0.79827-0.93137-1.7296-1.5966-2.794l-25.346,3.9914-0.19958,0.79829c-0.13305,0.66525-0.46567,0.99787-0.99786,0.99786-0.39915,0.00001-0.73177-0.39913-0.99786-1.1974l-2.1953-6.1867h8.7812l1.9957-6.7854h-8.382c-0.5322,0.93136-1.4635,1.397-2.794,1.397-1.1974,0.00003-2.1953-0.39912-2.9936-1.1974-0.66524-0.66521-0.99786-1.4635-0.99786-2.3949,0-1.7296,1.1974-2.9936,3.5923-3.7919,1.5966-0.53216,2.4614-2.0622,2.5944-4.5902h1.397c0.13304,0.66528,0.26609,1.4636,0.39915,2.3949h11.575zm-11.974,14.569,24.947,0,2.794-3.3927,1.9957,1.397,1.397-3.3927-30.535,0c0.13304,1.9958-0.0665,3.7919-0.59872,5.3884zm11.974,12.773,7.5838,0.79829c1.0644,0.13306,1.5965,0.46568,1.5966,0.99786-0.00003,0.39916-0.39917,0.73178-1.1974,0.99786l-1.1974,0.39915v2.5944h7.9829l2.794-3.3927,4.9893,3.7919v0.99786h-15.766v7.7833h11.176l3.1932-3.7919,5.1889,3.9914v1.1974h-45.502l-0.59872-1.397h19.758v-7.7833h-14.17l-0.59872-1.397h14.768z"/>
   </g>
  </g>
 </g>
</svg>
