<?xml version="1.0" encoding="UTF-8" standalone="no"?>
<!-- Created with Inkscape (http://www.inkscape.org/) -->
<svg id="svg2" xmlns:rdf="http://www.w3.org/1999/02/22-rdf-syntax-ns#" xmlns="http://www.w3.org/2000/svg" height="100%" width="100%" version="1.1" xmlns:cc="http://creativecommons.org/ns#" xmlns:dc="http://purl.org/dc/elements/1.1/" viewBox="0 0 679.1 236.09">
 <metadata id="metadata4">
  <rdf:RDF>
   <cc:Work rdf:about="">
    <dc:format>image/svg+xml</dc:format>
    <dc:type rdf:resource="http://purl.org/dc/dcmitype/StillImage"/>
    <dc:title/>
   </cc:Work>
  </rdf:RDF>
 </metadata>
 <g id="g6" transform="translate(68.124626,54.25263)">
  <g id="g8" transform="matrix(2.343588,0,0,2.343588,-162.68498,-174.95419)">
   <g id="g10" style="word-spacing:0px;letter-spacing:0px;" font-family="HGSKyokashotai" font-size="53.61953735px" font-style="normal" font-stretch="normal" font-variant="normal" font-weight="normal" line-height="125%" fill="#000">
    <path id="path12" d="m47.708,95.417,0-26.602,8.5053,0,0-2.3525-8.5053,0,0-1.4477c-0.07038-3.0198,0.38705-5.591,1.3723-7.7136,0.98524-2.1225,2.9205-3.2309,5.8059-3.3252,0.95633,0.0076,1.7581,0.09806,2.4053,0.27144,0.64718,0.17346,1.1926,0.38459,1.6362,0.63337l0.96514-2.2922c-0.46625-0.28271-1.1172-0.53154-1.9529-0.74648-0.83572-0.21485-1.7732-0.32795-2.8125-0.33931-1.3346,0.0026-2.5863,0.22374-3.755,0.66353-1.1687,0.43988-2.2093,1.0833-3.1216,1.9303-1.2278,1.1776-2.12,2.6831-2.6768,4.5166-0.55672,1.8335-0.83068,3.9875-0.82188,6.4619v1.3874h-4.4034v2.3525h4.4034v26.602z"/>
    <path id="path14" d="m105.08,95.417,2.8954,0-2.8954-40.656-3.4986,0-10.255,24.309c-1.1436,2.6717-2.1289,5.0645-2.9557,7.1782-0.82693,2.1138-1.5106,4.0239-2.0509,5.7305h-0.12064c-0.598-1.833-1.297-3.821-2.094-5.964-0.796-2.142-1.706-4.477-2.729-7.005l-9.772-24.249h-3.378l-3.2573,40.656h2.8954l1.4477-18.579c0.26892-3.4194,0.48507-6.805,0.64845-10.157,0.16336-3.3516,0.28903-6.2394,0.37701-8.6636h0.12064c0.66101,2.1502,1.4653,4.4852,2.4128,7.0048,0.94753,2.5197,2.0534,5.3523,3.3177,8.4977l8.8069,21.897h2.2319l9.4101-22.198c1.2868-3.0537,2.4229-5.8134,3.4081-8.2791,0.98521-2.4656,1.88-4.7729,2.6843-6.9219h0.12064c0.0138,2.2822,0.12185,5.1072,0.32422,8.4751,0.20229,3.368,0.41593,6.6152,0.64092,9.7419z"/>
    <path id="path16" d="m141.5,80.94c0.0578-0.22996,0.093-0.47878,0.10557-0.74648,0.0125-0.26766,0.0176-0.62205,0.0151-1.0632,0.0432-1.3807-0.251-3.1099-0.88248-5.1876-0.63154-2.0777-1.8596-3.941-3.6841-5.5898-1.8246-1.6488-4.5048-2.5201-8.0406-2.6139-4.1923,0.04904-7.6306,1.4741-10.315,4.2753-2.6843,2.8012-4.0717,6.6844-4.1622,11.65,0.0566,4.2715,1.4062,7.7324,4.0491,10.383,2.6428,2.6504,6.2395,4.0151,10.79,4.0943,3.0336-0.05278,5.3962-0.32423,7.0877-0.81434s2.7873-0.8822,3.2875-1.1763l-0.78418-2.3525c-0.89228,0.44487-2.0484,0.85204-3.4685,1.2215-1.4201,0.36947-3.3604,0.56551-5.821,0.58813-3.5188,0.000002-6.4192-1.0556-8.7013-3.1669-2.2822-2.1112-3.4634-5.2781-3.5439-9.5006zm-23.887-2.3525c0.2639-2.3613,1.2592-4.651,2.9859-6.8691,1.7267-2.218,4.411-3.4069,8.0529-3.5665,2.8578,0.07301,5.004,0.75144,6.4387,2.0353,1.4346,1.2839,2.3834,2.7353,2.8463,4.3543,0.46281,1.619,0.66537,2.9677,0.60768,4.046z"/>
    <path id="path18" d="m172.87,66.463-0.18096,5.3686-0.12065,0c-0.64596-1.4678-1.8725-2.83-3.6796-4.0868-1.8071-1.2567-4.3004-1.9252-7.4798-2.0057-3.8229,0.0415-7.1556,1.4213-9.9982,4.1395s-4.3356,6.526-4.4788,11.423c0.0591,3.7814,1.3283,7.0463,3.8078,9.7947,2.4794,2.7484,5.8147,4.1886,10.006,4.3205,3.0135-0.06409,5.4766-0.705,7.3894-1.9227,1.9126-1.2177,3.29-2.6277,4.132-4.23h0.12064v4.2225c-0.0616,4.3657-1.175,7.5175-3.3403,9.4553s-5.013,2.8879-8.543,2.8502c-2.105-0.0176-3.9573-0.28402-5.5571-0.79926-1.5998-0.51525-2.9846-1.1738-4.1546-1.9755l-1.0858,2.3525c1.312,0.96262,2.8954,1.6764,4.7503,2.1414,1.8549,0.46497,3.7097,0.6962,5.5646,0.6937,1.7945,0.0213,3.6645-0.2325,5.6099-0.76156,1.9453-0.52908,3.6946-1.4615,5.2479-2.7974,1.3735-1.1775,2.4568-2.8489,3.2498-5.0142,0.79294-2.1653,1.1976-4.9979,1.214-8.4977v-17.674c-0.001-1.1737,0.0163-2.3399,0.0528-3.4986,0.0364-1.1586,0.0993-2.3249,0.1885-3.4986zm-0.48257,16.468c-0.003,0.54919-0.0578,1.0946-0.16588,1.6362-0.10811,0.54164-0.25388,1.0418-0.43733,1.5005-0.82442,2.0308-2.1465,3.6846-3.9661,4.9614-1.8197,1.2768-3.8958,1.9353-6.2282,1.9755-4.0239-0.14075-6.9847-1.4276-8.8823-3.8606-1.8976-2.4329-2.8376-5.1675-2.82-8.2037,0.0591-3.9108,1.1624-7.0073,3.3101-9.2895,2.1477-2.2821,4.9853-3.4483,8.5128-3.4986,2.6101,0.04778,4.7942,0.72137,6.5524,2.0208,1.7581,1.2994,2.9922,2.9382,3.7022,4.9162,0.14952,0.44992,0.25759,0.92243,0.32423,1.4175,0.0666,0.49516,0.0993,1.028,0.098,1.5985z"/>
    <path id="path20" d="m206.2,95.417c-0.17848-1.1737-0.30415-2.34-0.37701-3.4986-0.0729-1.1587-0.1081-2.3249-0.10556-3.4986v-10.496c0.0473-1.5937-0.16796-3.3258-0.64566-5.1966-0.47776-1.8707-1.5017-3.4867-3.0719-4.848s-3.9704-2.0747-7.2006-2.1403c-1.4113-0.01631-2.947,0.18225-4.607,0.59567-1.6601,0.41348-3.3013,1.1398-4.9237,2.1791l0.96514,2.1112c1.2215-0.83944,2.5486-1.4527,3.9812-1.8398,1.4326-0.38703,2.8803-0.57805,4.3431-0.57305,2.532,0.04732,4.3848,0.62297,5.5585,1.727,1.1736,1.104,1.9183,2.3321,2.2341,3.6841,0.31573,1.352,0.45276,2.4237,0.41108,3.2149v0.66353c-6.7283-0.04522-11.685,0.88975-14.869,2.8049-3.1845,1.9152-4.7629,4.5392-4.7352,7.8719-0.0264,1.8624,0.68992,3.6268,2.1489,5.2932s3.8191,2.5561,7.0802,2.6692c2.6654-0.07666,4.8898-0.66228,6.673-1.7569s3.0575-2.2382,3.8229-3.4308h0.12064l0.48257,4.4638zm-3.4383-9.2895c-0.00002,0.24381-0.0302,0.51023-0.0905,0.79926-0.0603,0.28905-0.15083,0.58563-0.27145,0.88974-0.55799,1.3811-1.6287,2.6906-3.2121,3.9284s-3.7701,1.8989-6.5599,1.9831c-1.7418,0.0025-3.2197-0.50016-4.4336-1.508-1.214-1.0079-1.8473-2.536-1.9001-4.5844,0.0614-2.2069,0.9171-3.8788,2.567-5.0156s3.7254-1.8882,6.2265-2.2542c2.5011-0.36601,5.0591-0.49633,7.6742-0.39097z"/>
    <path id="path22" d="m215.86,95.417,2.9557,0,0-17.674c0.005-0.46244,0.0553-0.92491,0.1508-1.3874,0.0955-0.46244,0.20609-0.86458,0.33177-1.2064,0.69996-1.8963,1.924-3.5024,3.672-4.8182,1.748-1.3157,3.8015-2.0019,6.1603-2.0585,3.2825,0.09051,5.63,1.1612,7.0425,3.2121s2.1012,4.5392,2.066,7.4647v16.468h2.9557v-16.468c-0.0901-3.9421-0.86835-6.8621-2.3346-8.76-1.4664-1.8979-3.0801-3.1289-4.8413-3.693-1.7612-0.56409-3.1293-0.81654-4.1041-0.75736-2.678,0.04904-4.9828,0.68995-6.9143,1.9227-1.9316,1.2328-3.3466,2.7635-4.2451,4.592h-0.12065l-0.24128-5.7908h-2.7748c0.0892,1.1738,0.15206,2.34,0.18851,3.4986,0.0364,1.1587,0.054,2.3249,0.0528,3.4986z"/>
    <path id="path24" d="m275.81,80.94c0.0578-0.22996,0.093-0.47878,0.10556-0.74648,0.0125-0.26766,0.0176-0.62205,0.0151-1.0632,0.0432-1.3807-0.25099-3.1099-0.88248-5.1876-0.63154-2.0777-1.8596-3.941-3.6841-5.5898-1.8246-1.6488-4.5048-2.5201-8.0406-2.6139-4.1923,0.04904-7.6306,1.4741-10.315,4.2753-2.6843,2.8012-4.0717,6.6844-4.1622,11.65,0.0566,4.2715,1.4062,7.7324,4.0491,10.383,2.6428,2.6504,6.2395,4.0151,10.79,4.0943,3.0336-0.05278,5.3962-0.32423,7.0877-0.81434s2.7873-0.8822,3.2875-1.1763l-0.78417-2.3525c-0.89228,0.44487-2.0484,0.85204-3.4685,1.2215-1.4201,0.36947-3.3604,0.56551-5.821,0.58813-3.5188,0.000002-6.4192-1.0556-8.7013-3.1669-2.2822-2.1112-3.4634-5.2781-3.5439-9.5006zm-23.887-2.3525c0.2639-2.3613,1.2592-4.651,2.9859-6.8691,1.7267-2.218,4.411-3.4069,8.0529-3.5665,2.8578,0.07301,5.004,0.75144,6.4387,2.0353,1.4346,1.2839,2.3834,2.7353,2.8463,4.3543,0.46281,1.619,0.66537,2.9677,0.60768,4.046z"/>
   </g>
   <g id="g26" transform="matrix(0.83703555,0,0,0.83703555,58.056563,11.502425)">
    <path id="path28" stroke-linejoin="round" d="m284.24,52.961,28.199,0c6.4326,0,11.611,5.1786,11.611,11.611v28.199c0,6.4326-5.1786,11.611-11.611,11.611h-28.199c-6.4326,0-11.611-5.1786-11.611-11.611v-28.199c0-6.4326,5.1786-11.611,11.611-11.611z" stroke="#000" stroke-miterlimit="4" stroke-width="1.96543276" fill="none"/>
    <g id="g30" style="word-spacing:0px;letter-spacing:0px;" font-family="HGSKyokashotai" font-size="50.6968956px" font-style="normal" font-stretch="normal" font-variant="normal" font-weight="normal" line-height="125%" fill="#000">
     <path id="path32" d="m286.65,95.725c1.2226,0.86738,2.7697,1.5565,4.6411,2.0675,1.8714,0.51092,3.7464,0.77232,5.6249,0.78421,4.5614-0.11288,7.886-1.2274,9.9737-3.3436,2.0876-2.1162,3.1166-4.5567,3.0869-7.3216-0.0107-3.0453-0.93038-5.4098-2.759-7.0935s-4.5021-3.0643-8.0203-4.142c-3.081-0.96836-5.3029-2.1114-6.6658-3.4291s-2.0306-2.9883-2.0033-5.0118c-0.0535-1.6219,0.59528-3.1974,1.9463-4.7266s3.725-2.349,7.122-2.4596c1.8952,0.03687,3.4945,0.27689,4.7979,0.72005,1.3034,0.44323,2.2326,0.8686,2.7875,1.2761l1.0836-2.3384c-0.75216-0.50494-1.8572-0.94933-3.3151-1.3332-1.4579-0.38375-3.2046-0.58574-5.2399-0.60598-3.5907,0.05826-6.4614,0.99693-8.612,2.816-2.1506,1.8192-3.2533,4.1694-3.3079,7.0507-0.0321,2.4845,0.80203,4.5734,2.5023,6.2665,1.7003,1.6932,4.4593,3.1404,8.277,4.3417,3.1808,0.99691,5.4312,2.197,6.7513,3.6002,1.3201,1.4033,1.9593,3.1879,1.9178,5.354-0.0274,2.4061-0.91375,4.3381-2.6592,5.796-1.7455,1.4579-4.186,2.2065-7.3216,2.2457-1.8619-0.01188-3.599-0.27328-5.2114-0.78421-1.6124-0.51092-3.0501-1.2001-4.3131-2.0675z"/>
    </g>
   </g>
  </g>
  <g id="g34" style="word-spacing:0px;letter-spacing:0px;" font-family="HGSKyokashotai" font-size="29.07247353px" font-style="normal" font-stretch="normal" font-variant="normal" font-weight="normal" line-height="125%" fill="#000">
   <path id="path36" style="" d="m152.81,92.863c0.30283,0.000021,0.45425,0.18929,0.45426,0.56782-0.00001,0.30286-0.15143,0.45428-0.45426,0.45426h-7.6088c-0.22713,0.00002-0.3407,0.15144-0.34069,0.45426v7.3817h7.041c0.30283,0.00001,0.45425,0.18928,0.45426,0.56782-0.00001,0.30285-0.15143,0.45427-0.45426,0.45426h-7.041v9.0851c-0.00001,0.45426-0.18928,0.68139-0.56783,0.68139s-0.56782-0.22713-0.56782-0.68139v-17.716c0-0.83278,0.30284-1.2492,0.90852-1.2492z"/>
   <path id="path38" style="" d="m155.76,99.79c0-0.45424,0.18927-0.68137,0.56782-0.68139,0.37855,0.000015,0.56782,0.22714,0.56783,0.68139v1.7035c0.37854-0.60567,0.71923-1.0599,1.0221-1.3628,0.68139-0.68138,1.4006-1.0221,2.1577-1.0221,0.8328,0.000015,1.5142,0.265,2.0442,0.79495,0.37854,0.37856,0.45425,0.71925,0.22712,1.0221s-0.56782,0.26499-1.0221-0.11357c-0.45427-0.37853-0.90853-0.56781-1.3628-0.56782-0.52997,0.00001-1.0599,0.265-1.5899,0.79495-0.83281,0.83282-1.3249,1.7035-1.4763,2.612v8.1766c-0.00001,0.45426-0.18928,0.68139-0.56783,0.68139s-0.56782-0.22713-0.56782-0.68139z"/>
   <path id="path40" style="" d="m169.39,100.02c-0.83281,0.00001-1.552,0.30285-2.1577,0.90852-1.0599,1.0599-1.5899,2.6877-1.5899,4.8833s0.52997,3.8233,1.5899,4.8833c0.60567,0.60568,1.3249,0.90852,2.1577,0.90851,0.8328,0.00001,1.552-0.30283,2.1577-0.90851,1.0599-1.0599,1.5899-2.6877,1.5899-4.8833-0.00001-2.1956-0.52998-3.8233-1.5899-4.8833-0.60569-0.60567-1.3249-0.90851-2.1577-0.90852zm0-1.0221c1.2114,0.000014,2.2334,0.41642,3.0662,1.2492,1.2113,1.2114,1.817,3.0662,1.817,5.5646-0.00001,2.4984-0.60569,4.3533-1.817,5.5647-0.83281,0.8328-1.8549,1.2492-3.0662,1.2492-1.2114,0-2.2334-0.4164-3.0662-1.2492-1.2114-1.2114-1.817-3.0662-1.817-5.5647,0-2.4984,0.60567-4.3533,1.817-5.5646,0.8328-0.83279,1.8549-1.2492,3.0662-1.2492z"/>
   <path id="path42" style="" d="m176.77,99.79c0-0.45424,0.15141-0.68137,0.45425-0.68139,0.45426,0.000015,0.68139,0.22714,0.68139,0.68139v2.1577c0.30284-0.60567,0.71924-1.1735,1.2492-1.7035,0.75709-0.75708,1.6278-1.1356,2.612-1.1356,0.98422,0.000015,1.817,0.34071,2.4984,1.0221,0.8328,0.83281,1.2492,2.1956,1.2492,4.0883v7.6088c-0.00001,0.45426-0.15143,0.68139-0.45425,0.68139-0.45427,0-0.6814-0.22713-0.68139-0.68139v-7.7224c-0.00001-1.5899-0.30285-2.6877-0.90852-3.2934-0.45426-0.45424-1.0599-0.68137-1.817-0.68138-0.7571,0.00001-1.4763,0.3407-2.1577,1.0221-1.0599,1.06-1.5899,2.1199-1.5899,3.1798v7.4952c0,0.45426-0.22713,0.68139-0.68139,0.68139-0.30284,0-0.45425-0.22713-0.45425-0.68139z"/>
   <path id="path44" style="" d="m190.06,99.109,0-2.9527c-0.00001-0.45424,0.18927-0.68137,0.56782-0.68139,0.37854,0.000018,0.56781,0.22715,0.56782,0.68139v2.9527h1.9306c0.30283,0.000015,0.45425,0.15143,0.45426,0.45426-0.00001,0.37856-0.15143,0.56784-0.45426,0.56783h-1.9306v11.697c-0.00001,0.45426-0.18928,0.68139-0.56782,0.68139-0.37855,0-0.56783-0.22713-0.56782-0.68139v-11.697h-1.9306c-0.30284,0.00001-0.45426-0.18926-0.45426-0.56783,0-0.30282,0.15142-0.45424,0.45426-0.45426z"/>
   <path id="path46" style="" d="m197.21,94.68c0.15142,0.15144,0.22713,0.34071,0.22713,0.56782,0,0.30286-0.0757,0.52998-0.22713,0.68139-0.15142,0.15144-0.3407,0.22714-0.56782,0.22713-0.22713,0.000017-0.41641-0.07569-0.56782-0.22713-0.15142-0.1514-0.22713-0.37853-0.22713-0.68139,0-0.22711,0.0757-0.41638,0.22713-0.56782,0.15141-0.1514,0.34069-0.22711,0.56782-0.22713,0.22712,0.000019,0.4164,0.07573,0.56782,0.22713zm-1.1356,5.1104c-0.00001-0.45424,0.18927-0.68137,0.56782-0.68139,0.37854,0.000015,0.56782,0.22714,0.56782,0.68139v12.038c0,0.45426-0.18928,0.68139-0.56782,0.68139-0.37855,0-0.56783-0.22713-0.56782-0.68139z"/>
   <path id="path48" style="" d="m204.26,99.109c1.0599,0.000015,2.0063,0.41642,2.8391,1.2492,1.0599,1.06,1.5899,2.5363,1.5899,4.429-0.00001,0.75711-0.37856,1.1356-1.1356,1.1356h-6.7003c0,2.2713,0.45425,3.8233,1.3628,4.6561,0.60567,0.60567,1.2871,0.90851,2.0442,0.90851,0.75709,0,1.4385-0.30284,2.0442-0.90851,0.45425-0.45426,0.8328-1.1735,1.1356-2.1577,0.15141-0.30283,0.37854-0.41639,0.68139-0.34069,0.37854,0.15142,0.4921,0.45426,0.34069,0.90851-0.30285,1.0599-0.7571,1.8549-1.3628,2.3849-0.7571,0.75709-1.7035,1.1356-2.8391,1.1356-1.0599,0-2.0063-0.4164-2.8391-1.2492-1.1356-1.1356-1.7035-3.0284-1.7035-5.6782-0.00001-2.4227,0.56782-4.2019,1.7035-5.3375,0.75709-0.75708,1.7035-1.1356,2.8391-1.1356zm-2.0442,1.9306c-0.83281,0.83282-1.2871,2.1199-1.3628,3.8612h6.3596c0.22712,0.00001,0.34069-0.15141,0.3407-0.45426-0.00001-1.4385-0.41641-2.5741-1.2492-3.4069-0.60569-0.60566-1.2492-0.9085-1.9306-0.90851-0.83281,0.00001-1.552,0.30285-2.1577,0.90851z"/>
   <path id="path50" style="" d="m211.18,99.79c0-0.45424,0.18928-0.68137,0.56783-0.68139,0.37854,0.000015,0.56781,0.22714,0.56782,0.68139v1.7035c0.37854-0.60567,0.71923-1.0599,1.0221-1.3628,0.68138-0.68138,1.4006-1.0221,2.1577-1.0221,0.8328,0.000015,1.5142,0.265,2.0442,0.79495,0.37854,0.37856,0.45425,0.71925,0.22713,1.0221-0.22714,0.30285-0.56783,0.26499-1.0221-0.11357-0.45427-0.37853-0.90852-0.56781-1.3628-0.56782-0.52997,0.00001-1.0599,0.265-1.5899,0.79495-0.8328,0.83282-1.3249,1.7035-1.4763,2.612v8.1766c-0.00001,0.45426-0.18928,0.68139-0.56782,0.68139-0.37855,0-0.56783-0.22713-0.56783-0.68139z"/>
   <path id="path52" style="" d="m231.17,92.863c0.60567,0.000021,0.98422,0.41642,1.1356,1.2492l4.429,17.148,4.3154-17.148c0.22712-0.83278,0.68137-1.2492,1.3628-1.2492,0.68137,0.000021,1.0221,0.45428,1.0221,1.3628v17.602c-0.00001,0.45426-0.15143,0.68139-0.45426,0.68139-0.45427,0-0.6814-0.22713-0.68138-0.68139v-17.148c-0.00002-0.22711-0.0379-0.26496-0.11357-0.11356l-4.3154,16.921c-0.15143,0.68139-0.52998,1.0221-1.1356,1.0221-0.60568,0-0.98423-0.34069-1.1356-1.0221l-4.3154-16.808c-0.0757-0.1514-0.11357-0.1514-0.11357,0v17.148c0,0.45426-0.18927,0.68139-0.56782,0.68139s-0.56782-0.22713-0.56782-0.68139v-17.375c0-1.0599,0.37854-1.5899,1.1356-1.5899z"/>
   <path id="path54" style="" d="m250.48,99.109c1.0599,0.000015,2.0063,0.41642,2.8391,1.2492,1.0599,1.06,1.5899,2.5363,1.5899,4.429-0.00001,0.75711-0.37856,1.1356-1.1356,1.1356h-6.7003c0,2.2713,0.45425,3.8233,1.3628,4.6561,0.60567,0.60567,1.2871,0.90851,2.0442,0.90851,0.75709,0,1.4385-0.30284,2.0442-0.90851,0.45425-0.45426,0.83279-1.1735,1.1356-2.1577,0.15141-0.30283,0.37854-0.41639,0.68139-0.34069,0.37853,0.15142,0.4921,0.45426,0.34069,0.90851-0.30285,1.0599-0.75711,1.8549-1.3628,2.3849-0.75711,0.75709-1.7035,1.1356-2.8391,1.1356-1.0599,0-2.0063-0.4164-2.8391-1.2492-1.1356-1.1356-1.7035-3.0284-1.7035-5.6782,0-2.4227,0.56782-4.2019,1.7035-5.3375,0.75709-0.75708,1.7035-1.1356,2.8391-1.1356zm-2.0442,1.9306c-0.83281,0.83282-1.2871,2.1199-1.3628,3.8612h6.3596c0.22712,0.00001,0.34069-0.15141,0.34069-0.45426,0-1.4385-0.41641-2.5741-1.2492-3.4069-0.60569-0.60566-1.2492-0.9085-1.9306-0.90851-0.83281,0.00001-1.552,0.30285-2.1577,0.90851z"/>
   <path id="path56" style="" d="m261.72,100.13c-0.68139,0.00001-1.3249,0.30285-1.9306,0.90851-1.1356,1.1356-1.7035,2.7634-1.7035,4.8833-0.00001,2.1199,0.4921,3.6719,1.4763,4.6561,0.60567,0.60567,1.3249,0.90851,2.1577,0.90851,0.75709,0,1.4763-0.34069,2.1577-1.0221,0.60566-0.60567,0.98421-1.2492,1.1356-1.9306v-5.224c-0.15143-0.8328-0.52998-1.552-1.1356-2.1577-0.6814-0.68137-1.4006-1.0221-2.1577-1.0221zm-0.22712-1.0221c1.2113,0.000015,2.1956,0.37856,2.9527,1.1356,0.22712,0.22714,0.41639,0.49212,0.56782,0.79495v-1.2492c-0.00001-0.45424,0.18927-0.68137,0.56782-0.68139,0.37854,0.000015,0.56781,0.22714,0.56782,0.68139v11.584c-0.00001,1.8927-0.45426,3.2934-1.3628,4.2019-0.90852,0.90851-1.9684,1.3628-3.1798,1.3628-1.4385,0-2.6877-0.52997-3.7476-1.5899-0.37855-0.37855-0.68139-0.7571-0.90852-1.1356-0.15142-0.30283-0.11356-0.56782,0.11357-0.79495,0.22712-0.22712,0.49211-0.18927,0.79495,0.11357,0.30283,0.45426,0.60567,0.8328,0.90851,1.1356,0.8328,0.83281,1.7792,1.2492,2.8391,1.2492,0.8328,0,1.552-0.30284,2.1577-0.90851,0.8328-0.83281,1.2492-2.0442,1.2492-3.6341v-0.90852c-0.15143,0.30284-0.37856,0.60568-0.68139,0.90852-0.7571,0.75709-1.7035,1.1356-2.8391,1.1356s-2.1199-0.4164-2.9527-1.2492c-1.0599-1.0599-1.5899-2.8391-1.5899-5.3375s0.64353-4.3912,1.9306-5.6782c0.75709-0.75708,1.6278-1.1356,2.612-1.1356z"/>
   <path id="path58" style="" d="m272.85,100.13c-0.7571,0.00001-1.4763,0.3407-2.1577,1.0221-0.98422,0.98424-1.4763,2.4984-1.4763,4.5426,0,2.347,0.49211,4.0126,1.4763,4.9968,0.52997,0.52997,1.1356,0.79495,1.817,0.79495,0.8328,0,1.5899-0.34069,2.2713-1.0221,0.75709-0.75709,1.1735-1.4763,1.2492-2.1577v-5.224c-0.30285-0.75709-0.71925-1.4006-1.2492-1.9306-0.68139-0.68137-1.3249-1.0221-1.9306-1.0221zm-0.11357-1.0221c1.0599,0.000015,1.9306,0.37856,2.612,1.1356,0.22712,0.22714,0.45425,0.52998,0.68139,0.90851v-1.3628c-0.00001-0.45424,0.18926-0.68137,0.56782-0.68139,0.37854,0.000015,0.56781,0.22714,0.56782,0.68139v12.151c-0.00001,0.45426-0.18928,0.68138-0.56782,0.68138-0.37856,0-0.56783-0.22712-0.56782-0.68138v-1.4763c-0.0757,0.22713-0.26499,0.49212-0.56782,0.79495-0.90853,0.83281-1.9306,1.2492-3.0662,1.2492-0.98423,0-1.8549-0.37855-2.612-1.1356-1.1356-1.1356-1.7035-3.0284-1.7035-5.6782,0-2.2713,0.60568-4.0126,1.817-5.224,0.90851-0.9085,1.8549-1.3628,2.8391-1.3628z"/>
   <path id="path60" style="" d="m280.23,99.79c0-0.45424,0.15142-0.68137,0.45426-0.68139,0.45425,0.000015,0.68138,0.22714,0.68138,0.68139v2.1577c0.30284-0.60567,0.71924-1.1735,1.2492-1.7035,0.75709-0.75708,1.6278-1.1356,2.612-1.1356,0.98422,0.000015,1.817,0.34071,2.4984,1.0221,0.83279,0.83281,1.2492,2.1956,1.2492,4.0883v7.6088c-0.00002,0.45426-0.15143,0.68139-0.45426,0.68139-0.45427,0-0.6814-0.22713-0.68139-0.68139v-7.7224c-0.00001-1.5899-0.30285-2.6877-0.90851-3.2934-0.45427-0.45424-1.0599-0.68137-1.817-0.68138-0.7571,0.00001-1.4763,0.3407-2.1577,1.0221-1.0599,1.06-1.5899,2.1199-1.5899,3.1798v7.4952c0,0.45426-0.22713,0.68139-0.68138,0.68139-0.30284,0-0.45426-0.22713-0.45426-0.68139z"/>
   <path id="path62" style="" d="m295.45,99.109c1.0599,0.000015,2.0063,0.41642,2.8391,1.2492,1.0599,1.06,1.5899,2.5363,1.5899,4.429-0.00001,0.75711-0.37856,1.1356-1.1356,1.1356h-6.7003c-0.00001,2.2713,0.45425,3.8233,1.3628,4.6561,0.60567,0.60567,1.2871,0.90851,2.0442,0.90851,0.75709,0,1.4385-0.30284,2.0442-0.90851,0.45425-0.45426,0.8328-1.1735,1.1356-2.1577,0.15141-0.30283,0.37854-0.41639,0.68138-0.34069,0.37854,0.15142,0.49211,0.45426,0.3407,0.90851-0.30285,1.0599-0.75711,1.8549-1.3628,2.3849-0.75711,0.75709-1.7035,1.1356-2.8391,1.1356-1.0599,0-2.0063-0.4164-2.8391-1.2492-1.1356-1.1356-1.7035-3.0284-1.7035-5.6782,0-2.4227,0.56782-4.2019,1.7035-5.3375,0.75709-0.75708,1.7035-1.1356,2.8391-1.1356zm-2.0442,1.9306c-0.83281,0.83282-1.2871,2.1199-1.3628,3.8612h6.3596c0.22712,0.00001,0.34068-0.15141,0.34069-0.45426-0.00001-1.4385-0.41641-2.5741-1.2492-3.4069-0.60568-0.60566-1.2492-0.9085-1.9306-0.90851-0.83281,0.00001-1.552,0.30285-2.1577,0.90851z"/>
   <path id="path64" style="" d="m316.68,92.863c1.5142,0.000021,2.7634,0.49213,3.7476,1.4763,0.68138,0.6814,1.1356,1.4764,1.3628,2.3849-0.00001,0.37856-0.11358,0.60569-0.3407,0.68139-0.30285,0.07573-0.56783-0.07569-0.79495-0.45426-0.30284-0.75708-0.71925-1.4006-1.2492-1.9306-0.75711-0.75708-1.6656-1.1356-2.7256-1.1356-1.1356,0.00002-2.0442,0.34071-2.7255,1.0221-0.7571,0.75711-1.1356,1.7413-1.1356,2.9527,0,0.98424,0.26498,1.7413,0.79495,2.2713,0.60568,0.60568,1.4006,1.0599,2.3849,1.3628,1.5142,0.45427,2.5741,0.79496,3.1798,1.0221,0.75708,0.30285,1.4006,0.71925,1.9306,1.2492,0.83279,0.83282,1.2492,1.9306,1.2492,3.2934-0.00001,1.7413-0.45427,3.0662-1.3628,3.9748-0.98424,0.98423-2.347,1.4763-4.0883,1.4763-1.5899,0-2.8391-0.45426-3.7476-1.3628-0.7571-0.7571-1.3249-1.8549-1.7035-3.2934-0.0757-0.52996,0.0378-0.8328,0.34069-0.90851,0.37855-0.0757,0.64353,0.11357,0.79495,0.56782,0.37855,1.2871,0.83281,2.1956,1.3628,2.7255,0.8328,0.83281,1.817,1.2492,2.9527,1.2492,1.3628,0,2.4227-0.37855,3.1798-1.1356,0.75709-0.7571,1.1356-1.8549,1.1356-3.2934-0.00002-0.98422-0.30285-1.7792-0.90852-2.3848-0.52998-0.52996-1.0221-0.87065-1.4763-1.0221-0.90852-0.37854-2.0063-0.75708-3.2934-1.1356-1.1356-0.37854-1.9684-0.8328-2.4984-1.3628-0.90851-0.9085-1.3628-2.0063-1.3628-3.2934,0-1.4385,0.45426-2.612,1.3628-3.5205,0.98422-0.9842,2.1956-1.4763,3.6341-1.4763z"/>
   <path id="path66" style="" d="m329.18,100.02c-0.83281,0.00001-1.552,0.30285-2.1577,0.90852-1.0599,1.0599-1.5899,2.6877-1.5899,4.8833-0.00001,2.1956,0.52996,3.8233,1.5899,4.8833,0.60567,0.60568,1.3249,0.90852,2.1577,0.90851,0.8328,0.00001,1.552-0.30283,2.1577-0.90851,1.0599-1.0599,1.5899-2.6877,1.5899-4.8833-0.00001-2.1956-0.52997-3.8233-1.5899-4.8833-0.60568-0.60567-1.3249-0.90851-2.1577-0.90852zm0-1.0221c1.2113,0.000014,2.2334,0.41642,3.0662,1.2492,1.2113,1.2114,1.817,3.0662,1.817,5.5646-0.00001,2.4984-0.60569,4.3533-1.817,5.5647-0.83282,0.8328-1.8549,1.2492-3.0662,1.2492-1.2114,0-2.2334-0.4164-3.0662-1.2492-1.2114-1.2114-1.817-3.0662-1.817-5.5647,0-2.4984,0.60568-4.3533,1.817-5.5646,0.8328-0.83279,1.8549-1.2492,3.0662-1.2492z"/>
   <path id="path68" style="" d="m340.53,92.863c0.60567,0.000021,1.1356,0.22715,1.5899,0.68139,0.22713,0.22715,0.4164,0.52999,0.56783,0.90852,0.22712,0.52998,0.15141,0.87068-0.22713,1.0221-0.30285,0.07573-0.56783-0.11355-0.79495-0.56782-0.15143-0.30282-0.30285-0.52995-0.45426-0.68139-0.22713-0.22711-0.45426-0.34067-0.68139-0.34069-0.22713,0.00002-0.45426,0.11358-0.68138,0.34069-0.30284,0.30286-0.45426,0.71926-0.45426,1.2492v3.7476h2.1577c0.30283,0.000014,0.45425,0.15143,0.45426,0.45426-0.00001,0.37856-0.15143,0.56783-0.45426,0.56782h-2.1577v11.697c0,0.45426-0.18928,0.68138-0.56782,0.68138-0.37855,0-0.56783-0.22712-0.56782-0.68138v-11.697h-1.817c-0.30284,0.00001-0.45426-0.18926-0.45426-0.56782,0-0.30282,0.15142-0.45424,0.45426-0.45426h1.817v-3.7476c-0.00001-0.83279,0.26498-1.5142,0.79495-2.0442,0.37854-0.37853,0.87065-0.5678,1.4763-0.56782z"/>
   <path id="path70" style="" d="m347.35,99.109,0-2.9527c0-0.45424,0.18927-0.68137,0.56782-0.68139,0.37855,0.000018,0.56782,0.22715,0.56782,0.68139v2.9527h1.9306c0.30283,0.000015,0.45425,0.15143,0.45426,0.45426-0.00001,0.37856-0.15143,0.56784-0.45426,0.56783h-1.9306v11.697c0,0.45426-0.18927,0.68139-0.56782,0.68139s-0.56782-0.22713-0.56782-0.68139v-11.697h-1.9306c-0.30284,0.00001-0.45426-0.18926-0.45426-0.56783,0-0.30282,0.15142-0.45424,0.45426-0.45426z"/>
   <path id="path72" style="" d="m353.25,99.109c0.45426-0.07569,0.71924,0.15143,0.79495,0.68139l2.2713,10.902,2.7255-10.561c0.15142-0.68138,0.49211-1.0221,1.0221-1.0221,0.52996,0.000015,0.87065,0.34071,1.0221,1.0221l2.7256,10.561,2.2713-10.902c0.0757-0.52995,0.30283-0.75708,0.68139-0.68139,0.37853,0.07572,0.52995,0.34071,0.45426,0.79495l-2.612,11.811c-0.15143,0.52997-0.41642,0.79495-0.79495,0.79495-0.37856,0-0.64355-0.26498-0.79495-0.79495l-2.9527-11.243-3.0662,11.243c-0.15143,0.52997-0.37856,0.79495-0.68139,0.79495-0.37855,0-0.64353-0.26498-0.79495-0.79495l-2.612-11.811c-0.0757-0.37853,0.0378-0.64352,0.34069-0.79495z"/>
   <path id="path74" style="" d="m374.03,100.13c-0.7571,0.00001-1.4763,0.3407-2.1577,1.0221-0.98423,0.98424-1.4763,2.4984-1.4763,4.5426,0,2.347,0.49211,4.0126,1.4763,4.9968,0.52996,0.52997,1.1356,0.79495,1.817,0.79495,0.8328,0,1.5899-0.34069,2.2713-1.0221,0.75709-0.75709,1.1735-1.4763,1.2492-2.1577v-5.224c-0.30284-0.75709-0.71925-1.4006-1.2492-1.9306-0.68139-0.68137-1.3249-1.0221-1.9306-1.0221zm-0.11356-1.0221c1.0599,0.000015,1.9306,0.37856,2.612,1.1356,0.22712,0.22714,0.45425,0.52998,0.68138,0.90851v-1.3628c-0.00001-0.45424,0.18927-0.68137,0.56782-0.68139,0.37854,0.000015,0.56782,0.22714,0.56783,0.68139v12.151c-0.00001,0.45426-0.18929,0.68138-0.56783,0.68138-0.37855,0-0.56783-0.22712-0.56782-0.68138v-1.4763c-0.0757,0.22713-0.26499,0.49212-0.56782,0.79495-0.90852,0.83281-1.9306,1.2492-3.0662,1.2492-0.98423,0-1.8549-0.37855-2.612-1.1356-1.1356-1.1356-1.7035-3.0284-1.7035-5.6782,0-2.2713,0.60567-4.0126,1.817-5.224,0.90851-0.9085,1.8549-1.3628,2.8391-1.3628z"/>
   <path id="path76" style="" d="m381.42,99.79c0-0.45424,0.18927-0.68137,0.56782-0.68139,0.37854,0.000015,0.56782,0.22714,0.56782,0.68139v1.7035c0.37855-0.60567,0.71924-1.0599,1.0221-1.3628,0.68138-0.68138,1.4006-1.0221,2.1577-1.0221,0.8328,0.000015,1.5142,0.265,2.0442,0.79495,0.37854,0.37856,0.45425,0.71925,0.22713,1.0221-0.22714,0.30285-0.56783,0.26499-1.0221-0.11357-0.45426-0.37853-0.90852-0.56781-1.3628-0.56782-0.52997,0.00001-1.0599,0.265-1.5899,0.79495-0.83281,0.83282-1.3249,1.7035-1.4763,2.612v8.1766c0,0.45426-0.18928,0.68139-0.56782,0.68139-0.37855,0-0.56782-0.22713-0.56782-0.68139z"/>
   <path id="path78" style="" d="m394.7,99.109c1.0599,0.000015,2.0063,0.41642,2.8391,1.2492,1.0599,1.06,1.5899,2.5363,1.5899,4.429-0.00001,0.75711-0.37856,1.1356-1.1356,1.1356h-6.7003c0,2.2713,0.45425,3.8233,1.3628,4.6561,0.60567,0.60567,1.2871,0.90851,2.0442,0.90851,0.75709,0,1.4385-0.30284,2.0442-0.90851,0.45425-0.45426,0.8328-1.1735,1.1356-2.1577,0.15141-0.30283,0.37854-0.41639,0.68139-0.34069,0.37854,0.15142,0.4921,0.45426,0.34069,0.90851-0.30285,1.0599-0.7571,1.8549-1.3628,2.3849-0.7571,0.75709-1.7035,1.1356-2.8391,1.1356-1.0599,0-2.0063-0.4164-2.8391-1.2492-1.1356-1.1356-1.7035-3.0284-1.7035-5.6782,0-2.4227,0.56782-4.2019,1.7035-5.3375,0.75709-0.75708,1.7035-1.1356,2.8391-1.1356zm-2.0442,1.9306c-0.83281,0.83282-1.2871,2.1199-1.3628,3.8612h6.3596c0.22712,0.00001,0.34069-0.15141,0.3407-0.45426-0.00001-1.4385-0.41641-2.5741-1.2492-3.4069-0.60568-0.60566-1.2492-0.9085-1.9306-0.90851-0.83281,0.00001-1.552,0.30285-2.1577,0.90851z"/>
  </g>
  <g id="g80" style="word-spacing:0px;letter-spacing:0px;" font-family="HGSHeiseiKakugothictaiW3" font-size="62.5281105px" font-style="normal" font-stretch="normal" font-variant="normal" font-weight="normal" line-height="125%" fill="#000">
   <path id="path82" d="m69.714,162.7,0-4.2515-18.947,0,0,4.2515zm0,5.5662,0-4.3144-18.947,0,0,4.3144zm1.2499,0,24.511,0c-0.000056,4.5428-0.56266,7.8669-1.6878,9.9723-1.1253,2.1054-2.918,3.1581-5.3783,3.1581-2.2085,0-4.9805-0.10432-8.316-0.31294l0.12594-1.1888c3.3342,0.20863,6.0642,0.31295,8.19,0.31295,0.79249,0,1.4804-0.12499,2.0637-0.37496,0.58322-0.24998,1.1668-0.72926,1.7508-1.4378,0.58386-0.70858,1.053-1.8131,1.4073-3.3136,0.35424-1.5005,0.55237-3.3766,0.59441-5.6282h-44.707v-17.758h43.206v1.2499h-21.759v4.2534h19.884v1.2499h-19.884v4.2515h19.884v1.2518h-19.884zm-20.822-22.698,11.943,0,0-4.8774-11.943,0zm0,1.2499,0,2.1257-1.2499,0,0-9.5029,14.443,0,0,7.3771zm-6.6272,34.203c2.3763-2.9183,4.3978-6.1489,6.0643-9.6918l1.1258,0.56293c-1.7925,3.7096-3.8768,7.0235-6.2532,9.9418zm14.632-8.8789,1.1239-0.43698c1.2098,3.4182,2.0437,6.4192,2.5017,9.0029l-1.1869,0.18891c-0.50124-2.6677-1.3141-5.586-2.4387-8.7548zm11.692-0.24997,1.0629-0.56293c1.4591,2.627,2.6893,5.149,3.6905,7.566l-1.1258,0.43889c-1.0012-2.3764-2.2104-4.857-3.6275-7.442zm11.693-0.18701,0.93693-0.8129c1.6257,1.9171,3.2725,3.9805,4.9403,6.1902l-0.9999,0.74992c-1.7098-2.2504-3.3356-4.2928-4.8774-6.1272zm-11.818-18.76-18.947,0,0,4.2534,18.947,0zm1.8758-22.385,0,1.2518-7.692,0,0,2.7516-1.1869,0,0-2.7516-9.1918,0,0,2.7516-1.2518,0,0-2.7516-7.94,0,0-1.2518,7.94,0,0-3.3756,1.2518,0,0,3.3756,9.1918,0,0-3.3756,1.1869,0,0,3.3756zm-29.692,12.13c3.3343-3.0429,5.6267-6.3358,6.8772-9.8788l1.1888,0.37591c-0.16666,0.54198-0.54194,1.3962-1.1258,2.5627h19.884c-0.16668,2.7937-0.32284,4.9407-0.46846,6.4412-0.14569,1.5005-0.33301,2.8448-0.56197,4.033-0.22901,1.1882-0.5833,2.0011-1.0629,2.4387-0.47962,0.43764-1.0114,0.75027-1.5953,0.93788-0.58394,0.18767-1.4178,0.28149-2.5017,0.28146h-4.5644v-1.2518h4.5644c0.87648,0.00003,1.4919-0.0416,1.8462-0.12499,0.35426-0.0833,0.75022-0.28111,1.1879-0.59345,0.43759-0.31228,0.73972-0.91655,0.9064-1.8128,0.16662-0.89619,0.33327-2.0217,0.49995-3.3766,0.16662-1.3548,0.31228-3.2617,0.43698-5.7208h-19.195c-1.4592,2.4591-3.2726,4.6472-5.4403,6.5642zm33.64-7.5031,0.9999-0.68695c1.9603,3.001,4.3367,5.6477,7.1291,7.94,3.4602-2.6257,6.1068-5.7729,7.94-9.4418h-16.256c-1.3765,2.5011-3.0443,4.7941-5.0033,6.8791l-0.87396-0.87586c3.2096-3.4182,5.6063-7.4197,7.1901-12.005l1.1888,0.37401c-0.50126,1.5432-1.1272,3.0233-1.8777,4.4404h20.572v1.1869h-3.5645c-1.9172,4.0442-4.6891,7.4624-8.316,10.255,3.4182,2.585,7.337,4.5861,11.756,6.0032l-0.37592,1.1888c-4.7528-1.5838-8.9006-3.7305-12.443-6.4402-3.7936,2.6677-8.4203,4.6058-13.88,5.8143l-0.24998-1.1888c5.1687-1.1245,9.5454-2.9373,13.13-5.4384-2.7097-2.2516-5.0651-4.92-7.0661-8.0049z"/>
   <path id="path84" d="m147.19,162.83,0.063-0.063c-2.8763-4.2108-5.315-8.4209-7.3161-12.63-10.63,1.2086-20.906,1.8128-30.827,1.8128v-1.2499c9.5461,0.00002,19.634-0.58389,30.264-1.7517-1.2506-2.7503-2.4801-5.918-3.6886-9.5029-7.7537,0.83328-15.153,1.2499-22.198,1.2499v-1.2499c6.9204,0.00003,14.194-0.41723,21.822-1.2518-1.0419-3.5009-1.8548-7.0024-2.4387-10.505l1.2518-0.24998c0.58261,3.6689,1.3955,7.2124,2.4387,10.631,5.1687-0.62585,10.358-1.4184,15.569-2.3776l0.24997,1.2518c-4.4602,0.83329-9.6085,1.6042-15.445,2.3127,0.95916,3.127,2.1893,6.2952,3.6905,9.5048,5.8352-0.70855,11.337-1.5214,16.506-2.4387l0.24997,1.2499c-5.3354,0.95922-10.734,1.7518-16.195,2.3776,2.5022,5.2514,5.3162,9.9615,8.4419,14.13l-0.8129,0.93884c-3.7516-1.9591-6.9717-3.3244-9.6603-4.096-2.6887-0.77153-5.6168-1.1573-8.7844-1.1573-8.3376,0.00001-12.506,2.814-12.506,8.4419-0.00002,3.3343,1.5526,5.9393,4.6579,7.8151s7.3886,2.8136,12.85,2.8136c3.6688,0,8.0042-0.41662,13.006-1.2499l0.24997,1.2499c-5.086,0.83452-9.5048,1.2518-13.256,1.2518-5.8773-0.00001-10.473-1.0527-13.787-3.1581-3.3139-2.1054-4.9709-5.0128-4.9709-8.7224-0.00001-1.0838,0.16664-2.1156,0.49995-3.0951,0.33328-0.97953,0.94804-2.0007,1.8443-3.0636,0.89621-1.0629,2.3239-1.9174,4.283-2.5637,1.9591-0.64623,4.3354-0.96935,7.1291-0.96937,2.959,0.00002,5.689,0.32314,8.19,0.96937,2.501,0.64626,5.3773,1.7613,8.6289,3.3451z"/>
   <path id="path86" d="m187.58,170.08c-0.00002-2.459,0.96934-4.4286,2.9081-5.9088,1.9387-1.4801,4.5129-2.2202,7.7225-2.2202,2.7923,0.00001,5.9186,0.93822,9.3788,2.8146-0.00004-3.1269-0.0834-7.3167-0.24997-12.569-0.00005-0.70856-0.021-1.6464-0.063-2.8136s-0.0732-2.2195-0.0935-3.1571c-0.0204-0.93753-0.0306-1.8236-0.0305-2.6581-6.8785,0.58394-13.403,0.8759-19.572,0.87586v-1.2499c6.1698,0.00003,12.694-0.29192,19.572-0.87587-0.00004-4.9613,0.14562-9.0671,0.43698-12.317l1.2499,0.12403c-0.29137,3.2096-0.43703,7.2322-0.43698,12.068,4.586-0.37524,8.8795-0.87519,12.88-1.4998l0.12594,1.2499c-4.1269,0.62592-8.4623,1.1265-13.006,1.5018-0.00005,0.83329,0.0104,1.7292,0.0315,2.6877,0.0209,0.95859,0.0521,2.032,0.0935,3.2201,0.0413,1.1882,0.062,2.1366,0.062,2.8451,0.16661,5.5033,0.24993,9.922,0.24998,13.256,3.6268,2.0838,7.5246,5.1477,11.693,9.1918l-0.87587,0.87587c-3.9602-3.7515-7.5661-6.6278-10.818-8.6289-0.0408,4.1675-0.91567,7.1997-2.6247,9.0964-1.7092,1.8968-4.3772,2.8451-8.004,2.8451-3.2936,0-5.8888-0.78141-7.7855-2.3442-1.8968-1.5628-2.8452-3.699-2.8451-6.4087zm-11.88,8.9418c-2.0838-7.7117-3.1256-15.695-3.1256-23.949-0.00001-8.2542,1.0419-16.237,3.1256-23.949l1.2518,0.37592c-2.085,7.8784-3.1276,15.736-3.1276,23.573-0.00001,7.837,1.0425,15.695,3.1276,23.573l-1.2518,0.37591zm31.89-12.819c-3.6269-2.0011-6.7532-3.0016-9.3788-3.0016-2.9183,0.00002-5.211,0.6151-6.8781,1.8452-1.6672,1.2302-2.5007,2.9081-2.5007,5.0338-0.00002,2.3344,0.83354,4.1685,2.5007,5.5023,1.6671,1.3338,3.9598,2.0008,6.8781,2.0008,3.3342,0,5.7309-0.87555,7.1901-2.6266,1.4591-1.7511,2.1887-4.6271,2.1887-8.628z"/>
   <path id="path88" d="m238.66,160.57,39.767,0,0-14.069-39.767,0zm0,15.945,39.767,0,0-14.695-39.767,0zm0,1.2499,0,3.6275-1.2518,0,0-50.837,42.271,0,0,50.837-1.2518,0,0-3.6275zm39.767-32.514,0-13.443-39.767,0,0,13.443z"/>
   <path id="path90" d="m296.38,158.82c-0.00001-7.0031,2.5322-12.714,7.5966-17.133,5.0644-4.4187,11.599-6.6281,19.603-6.6282,6.5438,0.00004,11.879,1.8653,16.006,5.5958,4.1268,3.7306,6.1902,8.5351,6.1902,14.414-0.00005,5.96-1.7925,11.118-5.3773,15.475-3.5849,4.3564-8.1284,6.9099-13.63,7.6605l-0.12595-1.2518c5.1699-0.70858,9.443-3.1263,12.819-7.2531,3.3762-4.1268,5.0643-9.0035,5.0644-14.63-0.00006-5.5452-1.949-10.058-5.8468-13.539-3.8979-3.4805-8.9311-5.2208-15.1-5.2209-0.87526,0.00005-1.5215,0.021-1.9387,0.063-1.5838,12.297-3.7411,21.717-6.4717,28.262-2.7307,6.5452-5.8674,9.8177-9.4103,9.8177-2.2517,0.00001-4.3778-1.5425-6.3782-4.6274s-3.0007-6.7531-3.0006-11.005zm23.948-22.385c-6.7945,0.58268-12.276,2.9272-16.445,7.0336-4.1688,4.1065-6.2532,9.2236-6.2532,15.352,0,4.0009,0.89622,7.3978,2.6887,10.191,1.7924,2.793,3.6059,4.1895,5.4403,4.1895,0.75055,0.00001,1.5113-0.19781,2.2822-0.59345,0.77089-0.39563,1.7399-1.344,2.9072-2.8451,1.1672-1.5011,2.2615-3.5022,3.2831-6.0032,1.0215-2.501,2.0949-6.1066,3.2201-10.817,1.1252-4.7101,2.084-10.212,2.8766-16.507z"/>
   <path id="path92" d="m361.85,154.13,0,10.755,19.008,0,0-10.755zm0-1.1888,19.008,0,0-10.129-19.008,0zm-5.1903-16.882,0-1.1888,18.571,0c-1.5011-2.8343-2.9603-5.3766-4.3774-7.6271l1.0018-0.68887c1.4998,2.3344,3.0836,5.1064,4.7514,8.316h14.006c1.8764-2.959,3.4398-5.7099,4.6904-8.253l1.1239,0.49995c-1.3332,2.7517-2.7714,5.336-4.3145,7.753h18.447v1.1888zm3.9385,5.5033,21.511,0,0,33.39c-0.00003,2.459-0.22934,4.0012-0.68791,4.6264-0.45864,0.62525-1.6675,0.93788-3.6266,0.93788-0.62592,0-2.9813-0.10431-7.0661-0.31294l0.063-1.2499c4.0848,0.20863,6.4192,0.31295,7.0031,0.31295,1.5418,0,2.4377-0.17715,2.6877-0.53144,0.24995-0.35429,0.37493-1.6153,0.37496-3.783v-8.8789h-19.008v14.756h-1.2518zm29.764,29.449,0-28.199,1.1888,0,0,28.199zm15.632-30.638,1.1888,0,0,34.892c-0.00006,2.3344-0.28152,3.8454-0.84438,4.533-0.56298,0.68758-1.8036,1.0314-3.722,1.0314-1.7925,0-4.3558-0.10432-7.6901-0.31295l0.063-1.2499c3.2922,0.20863,5.8346,0.31294,7.6271,0.31295,1.543-0.00001,2.4918-0.21913,2.8461-0.65738,0.35424-0.43825,0.53138-1.6573,0.53144-3.6571z"/>
   <path id="path94" d="m438.63,166.95c-0.00003-1.7924,0.86502-3.8453,2.5952-6.1587,1.7301-2.3134,4.0746-4.5953,7.0336-6.8457l0.74992,0.9999c-3.085,2.3344-5.3777,4.5749-6.8781,6.7217-1.5005,2.1467-2.2508,3.9077-2.2507,5.2829-0.00002,1.9604,1.386,3.7013,4.158,5.2228s6.3886,2.2822,10.85,2.2822c4.2095,0.00001,8.7529-0.62525,13.63-1.8758l0.24998,1.2499c-5.0021,1.2505-9.6289,1.8758-13.88,1.8758-4.6281,0-8.4947-0.83357-11.6-2.5007s-4.658-3.7518-4.6579-6.2542zm3.1256-27.511c8.2129,0.00003,16.737-0.62586,25.574-1.8777l0.12594,1.2518c-8.8796,1.2506-17.446,1.8758-25.7,1.8758zm-15.006,39.58c-2.0838-7.7117-3.1256-15.695-3.1256-23.949-0.00001-8.2542,1.0419-16.237,3.1256-23.949l1.2499,0.37592c-2.0838,7.8784-3.1257,15.736-3.1256,23.573-0.00001,7.837,1.0419,15.695,3.1256,23.573l-1.2499,0.37591z"/>
   <path id="path96" d="m485.84,167.26c-1.4592,1.4592-2.1887,3.2309-2.1887,5.3153-0.00001,2.0844,0.72956,3.8562,2.1887,5.3153s3.2306,2.1887,5.3144,2.1887c2.0837-0.00001,3.8552-0.72958,5.3144-2.1887,1.4591-1.4591,2.1887-3.2309,2.1887-5.3153-0.00002-2.0844-0.72959-3.8562-2.1887-5.3153-1.4592-1.4591-3.2306-2.1887-5.3144-2.1887-2.0838,0.00001-3.8552,0.72958-5.3144,2.1887zm-0.87777,11.506c-1.7085-1.7098-2.5627-3.7735-2.5627-6.1912s0.85456-4.4811,2.5637-6.1902,3.7728-2.5637,6.1912-2.5637c2.4183,0.00001,4.4817,0.85457,6.1902,2.5637s2.5627,3.7725,2.5627,6.1902c-0.00002,2.4177-0.85426,4.4811-2.5627,6.1902-1.7085,1.7091-3.7719,2.5637-6.1902,2.5637-2.4184,0-4.4824-0.85424-6.1921-2.5627z"/>
  </g>
 </g>
</svg>
