<?xml version="1.0" encoding="UTF-8" standalone="no"?>
<!-- Created with Inkscape (http://www.inkscape.org/) -->
<svg xmlns:rdf="http://www.w3.org/1999/02/22-rdf-syntax-ns#" xmlns="http://www.w3.org/2000/svg" viewBox="0 0 400 200" version="1.1" xmlns:cc="http://creativecommons.org/ns#" xmlns:dc="http://purl.org/dc/elements/1.1/" preserveAspectRatio="xMidYMid meet">
 <defs></defs>
 <metadata>
  <rdf:RDF>
   <cc:Work rdf:about="">
    <dc:format>image/svg+xml</dc:format>
    <dc:type rdf:resource="http://purl.org/dc/dcmitype/StillImage"/>
    <dc:title/>
   </cc:Work>
  </rdf:RDF>
 </metadata>
 <g transform="translate(1.9811109e-6,-852.36215)">
  <g transform="matrix(1.6129034,0,0,1.6528416,-547.61933,479.0539)">
   <rect height="120.99" width="248" y="225.87" x="339.52" fill="#bb1916"/>
   <g transform="translate(-241.96871,-62.652497)" fill="#FFF">
    <path d="m692.09,300.8c-0.21396,0.0172-0.45595,0.10541-0.75,0.25-0.65166,0.32041-0.71875,0.95163-0.71875,5.5312,0,2.8314,0.10109,5.2382,0.25,5.375,0.55589,0.51073,1.7499,0.21992,2.1875-0.53125,0.28633-0.49154,0.39719-2.4676,0.3125-5.4062-0.11522-3.9979-0.3541-5.2931-1.2812-5.2188z"/>
    <path d="m671.12,295.51c-7.5473-0.00025-17.873,0.205-26.688,0.5625-11.49,0.466-50.576,1.6841-54.219,1.6875-1.3386,0.001-2.6084,1.1816-2.9688,2.75-0.14687,0.63918-0.79153,1.9052-1.4375,2.8125-1.63,2.2894-1.6231,4.5382,0.0312,6.7812,0.66598,0.90299,1.2139,1.8797,1.2188,2.1875,0.005,0.30781,0.35115,1.102,0.78125,1.75,0.73372,1.1055,0.96066,1.1944,3.75,1.4062,1.6351,0.12419,11.306,0.40508,21.469,0.625,10.162,0.21991,23.483,0.61408,29.625,0.875,6.1422,0.26091,17.337,0.50179,24.875,0.53125,12.993,0.0508,13.764-0.0117,14.5-0.6875,1.3288-1.2208,1.7666-4.4422,1.5625-11.562-0.1941-6.7697-0.61755-8.7106-1.9688-9.375-0.4889-0.2404-4.6611-0.34349-10.531-0.34375zm0.8125,0.90625c5.2854-0.0334,8.3002,0.0729,8.6562,0.3125,1.9577,1.3169,2.1244,18.589,0.1875,19.719-0.75567,0.4408-23.414,0.28597-34.844-0.25-5.4721-0.25659-18.534-0.64872-29.031-0.875-22.691-0.48911-27.219-0.72462-27.75-1.3125-0.2178-0.24111-0.63475-1.8731-0.90625-3.6562-0.53511-3.5143-0.0408-9.9582,0.84375-10.938,0.66313-0.73411,2.9104-0.88781,20.906-1.3125,8.934-0.21084,23.017-0.61211,31.281-0.90625,13.338-0.47476,23.861-0.73829,30.656-0.78125zm-85.281,7.6562c0.11516,0,0.20427,0.0393,0.28125,0.125,0.077,0.0857,0.14244,0.20708,0.1875,0.40625,0.0901,0.39835,0.125,1.0754,0.125,2.0938,0,1.0183-0.0349,1.6642-0.125,2.0625-0.0451,0.19917-0.11053,0.32051-0.1875,0.40625-0.077,0.0857-0.16609,0.125-0.28125,0.125-0.0884,0-0.19676-0.0324-0.28125-0.0937-0.0845-0.0614-0.14365-0.13563-0.21875-0.25-0.15019-0.22875-0.29519-0.57792-0.375-0.96875-0.0898-0.43995-0.13037-0.89399-0.125-1.3438,0.005-0.44976,0.0732-0.8703,0.15625-1.25,0.0831-0.3797,0.2004-0.70772,0.34375-0.9375,0.0717-0.11489,0.13529-0.21881,0.21875-0.28125,0.0835-0.0624,0.18819-0.0937,0.28125-0.0937z"/>
    <path d="m702.32,300.8c-0.21396,0.0172-0.45595,0.10541-0.75,0.25-0.65166,0.32041-0.71875,0.95163-0.71875,5.5312,0,2.8314,0.10109,5.2382,0.25,5.375,0.55589,0.51073,1.7499,0.21992,2.1875-0.53125,0.28633-0.49154,0.39719-2.4676,0.3125-5.4062-0.11522-3.9979-0.3541-5.2931-1.2812-5.2188z"/>
    <path d="m712.55,300.8c-0.21396,0.0172-0.45595,0.10541-0.75,0.25-0.65166,0.32041-0.71875,0.95163-0.71875,5.5312,0,2.8314,0.10109,5.2382,0.25,5.375,0.55589,0.51073,1.7499,0.21992,2.1875-0.53125,0.28633-0.49154,0.39719-2.4676,0.3125-5.4062-0.11522-3.9979-0.3541-5.2931-1.2812-5.2188z"/>
    <path d="m722.78,300.8c-0.21396,0.0172-0.45595,0.10541-0.75,0.25-0.65166,0.32041-0.71875,0.95163-0.71875,5.5312,0,2.8314,0.10109,5.2382,0.25,5.375,0.55589,0.51073,1.7499,0.21992,2.1875-0.53125,0.28633-0.49154,0.39719-2.4676,0.3125-5.4062-0.11522-3.9979-0.3541-5.2931-1.2812-5.2188z"/>
    <path d="m733.01,300.8c-0.21396,0.0172-0.45595,0.10541-0.75,0.25-0.65166,0.32041-0.71875,0.95163-0.71875,5.5312,0,2.8314,0.10109,5.2382,0.25,5.375,0.55589,0.51073,1.7499,0.21992,2.1875-0.53125,0.28633-0.49154,0.39719-2.4676,0.3125-5.4062-0.11522-3.9979-0.3541-5.2931-1.2812-5.2188z"/>
    <path d="m753.47,300.8c-0.21396,0.0172-0.45595,0.10541-0.75,0.25-0.65166,0.32041-0.71875,0.95163-0.71875,5.5312,0,2.8314,0.10109,5.2382,0.25,5.375,0.55589,0.51073,1.7499,0.21992,2.1875-0.53125,0.28633-0.49154,0.39719-2.4676,0.3125-5.4062-0.11522-3.9979-0.3541-5.2931-1.2812-5.2188z"/>
    <path d="m773.93,300.8c-0.21396,0.0172-0.45595,0.10541-0.75,0.25-0.65166,0.32041-0.71875,0.95163-0.71875,5.5312,0,2.8314,0.10109,5.2382,0.25,5.375,0.55589,0.51073,1.7499,0.21992,2.1875-0.53125,0.28633-0.49154,0.39719-2.4676,0.3125-5.4062-0.11522-3.9979-0.3541-5.2931-1.2812-5.2188z"/>
    <path d="m784.16,300.8c-0.21396,0.0172-0.45595,0.10541-0.75,0.25-0.65166,0.32041-0.71875,0.95163-0.71875,5.5312,0,2.8314,0.10109,5.2382,0.25,5.375,0.55589,0.51073,1.7499,0.21992,2.1875-0.53125,0.28633-0.49154,0.39719-2.4676,0.3125-5.4062-0.11522-3.9979-0.3541-5.2931-1.2812-5.2188z"/>
    <path d="m794.39,300.8c-0.21396,0.0172-0.45595,0.10541-0.75,0.25-0.65166,0.32041-0.71875,0.95163-0.71875,5.5312,0,2.8314,0.10109,5.2382,0.25,5.375,0.55589,0.51073,1.7499,0.21992,2.1875-0.53125,0.28633-0.49154,0.39719-2.4676,0.3125-5.4062-0.11522-3.9979-0.3541-5.2931-1.2812-5.2188z"/>
    <path d="m804.62,300.8c-0.21396,0.0172-0.45595,0.10541-0.75,0.25-0.65166,0.32041-0.71875,0.95163-0.71875,5.5312,0,2.8314,0.10109,5.2382,0.25,5.375,0.55589,0.51073,1.7499,0.21992,2.1875-0.53125,0.28633-0.49154,0.39719-2.4676,0.3125-5.4062-0.11522-3.9979-0.3541-5.2931-1.2812-5.2188z"/>
    <path d="m814.85,300.8c-0.21396,0.0172-0.45595,0.10541-0.75,0.25-0.65166,0.32041-0.71875,0.95163-0.71875,5.5312,0,2.8314,0.10109,5.2382,0.25,5.375,0.55589,0.51073,1.7499,0.21992,2.1875-0.53125,0.28633-0.49154,0.39719-2.4676,0.3125-5.4062-0.11522-3.9979-0.3541-5.2931-1.2812-5.2188z"/>
    <path d="m743.24,300.8c-0.21396,0.0172-0.45595,0.10541-0.75,0.25-0.65166,0.32041-0.71875,0.95163-0.71875,5.5312,0,2.8314,0.10109,5.2382,0.25,5.375,0.55589,0.51073,1.7499,0.21992,2.1875-0.53125,0.28633-0.49154,0.39719-2.4676,0.3125-5.4062-0.11522-3.9979-0.3541-5.2931-1.2812-5.2188z"/>
    <path d="m763.7,300.8c-0.21396,0.0172-0.45595,0.10541-0.75,0.25-0.65166,0.32041-0.71875,0.95163-0.71875,5.5312,0,2.8314,0.10109,5.2382,0.25,5.375,0.55589,0.51073,1.7499,0.21992,2.1875-0.53125,0.28633-0.49154,0.39719-2.4676,0.3125-5.4062-0.11522-3.9979-0.3541-5.2931-1.2812-5.2188z"/>
    <path d="m825.08,300.8c-0.21396,0.0172-0.45595,0.10541-0.75,0.25-0.65166,0.32041-0.71875,0.95163-0.71875,5.5312,0,2.8314,0.10109,5.2382,0.25,5.375,0.55589,0.51073,1.7499,0.21992,2.1875-0.53125,0.28633-0.49154,0.39719-2.4676,0.3125-5.4062-0.11522-3.9979-0.3541-5.2931-1.2812-5.2188z"/>
   </g>
   <g transform="matrix(-1,0,0,-1,1169.0166,636.37686)" fill="#FFF">
    <path d="m692.09,300.8c-0.21396,0.0172-0.45595,0.10541-0.75,0.25-0.65166,0.32041-0.71875,0.95163-0.71875,5.5312,0,2.8314,0.10109,5.2382,0.25,5.375,0.55589,0.51073,1.7499,0.21992,2.1875-0.53125,0.28633-0.49154,0.39719-2.4676,0.3125-5.4062-0.11522-3.9979-0.3541-5.2931-1.2812-5.2188z"/>
    <path d="m671.12,295.51c-7.5473-0.00025-17.873,0.205-26.688,0.5625-11.49,0.466-50.576,1.6841-54.219,1.6875-1.3386,0.001-2.6084,1.1816-2.9688,2.75-0.14687,0.63918-0.79153,1.9052-1.4375,2.8125-1.63,2.2894-1.6231,4.5382,0.0312,6.7812,0.66598,0.90299,1.2139,1.8797,1.2188,2.1875,0.005,0.30781,0.35115,1.102,0.78125,1.75,0.73372,1.1055,0.96066,1.1944,3.75,1.4062,1.6351,0.12419,11.306,0.40508,21.469,0.625,10.162,0.21991,23.483,0.61408,29.625,0.875,6.1422,0.26091,17.337,0.50179,24.875,0.53125,12.993,0.0508,13.764-0.0117,14.5-0.6875,1.3288-1.2208,1.7666-4.4422,1.5625-11.562-0.1941-6.7697-0.61755-8.7106-1.9688-9.375-0.4889-0.2404-4.6611-0.34349-10.531-0.34375zm0.8125,0.90625c5.2854-0.0334,8.3002,0.0729,8.6562,0.3125,1.9577,1.3169,2.1244,18.589,0.1875,19.719-0.75567,0.4408-23.414,0.28597-34.844-0.25-5.4721-0.25659-18.534-0.64872-29.031-0.875-22.691-0.48911-27.219-0.72462-27.75-1.3125-0.2178-0.24111-0.63475-1.8731-0.90625-3.6562-0.53511-3.5143-0.0408-9.9582,0.84375-10.938,0.66313-0.73411,2.9104-0.88781,20.906-1.3125,8.934-0.21084,23.017-0.61211,31.281-0.90625,13.338-0.47476,23.861-0.73829,30.656-0.78125zm-85.281,7.6562c0.11516,0,0.20427,0.0393,0.28125,0.125,0.077,0.0857,0.14244,0.20708,0.1875,0.40625,0.0901,0.39835,0.125,1.0754,0.125,2.0938,0,1.0183-0.0349,1.6642-0.125,2.0625-0.0451,0.19917-0.11053,0.32051-0.1875,0.40625-0.077,0.0857-0.16609,0.125-0.28125,0.125-0.0884,0-0.19676-0.0324-0.28125-0.0937-0.0845-0.0614-0.14365-0.13563-0.21875-0.25-0.15019-0.22875-0.29519-0.57792-0.375-0.96875-0.0898-0.43995-0.13037-0.89399-0.125-1.3438,0.005-0.44976,0.0732-0.8703,0.15625-1.25,0.0831-0.3797,0.2004-0.70772,0.34375-0.9375,0.0717-0.11489,0.13529-0.21881,0.21875-0.28125,0.0835-0.0624,0.18819-0.0937,0.28125-0.0937z"/>
    <path d="m702.32,300.8c-0.21396,0.0172-0.45595,0.10541-0.75,0.25-0.65166,0.32041-0.71875,0.95163-0.71875,5.5312,0,2.8314,0.10109,5.2382,0.25,5.375,0.55589,0.51073,1.7499,0.21992,2.1875-0.53125,0.28633-0.49154,0.39719-2.4676,0.3125-5.4062-0.11522-3.9979-0.3541-5.2931-1.2812-5.2188z"/>
    <path d="m712.55,300.8c-0.21396,0.0172-0.45595,0.10541-0.75,0.25-0.65166,0.32041-0.71875,0.95163-0.71875,5.5312,0,2.8314,0.10109,5.2382,0.25,5.375,0.55589,0.51073,1.7499,0.21992,2.1875-0.53125,0.28633-0.49154,0.39719-2.4676,0.3125-5.4062-0.11522-3.9979-0.3541-5.2931-1.2812-5.2188z"/>
    <path d="m722.78,300.8c-0.21396,0.0172-0.45595,0.10541-0.75,0.25-0.65166,0.32041-0.71875,0.95163-0.71875,5.5312,0,2.8314,0.10109,5.2382,0.25,5.375,0.55589,0.51073,1.7499,0.21992,2.1875-0.53125,0.28633-0.49154,0.39719-2.4676,0.3125-5.4062-0.11522-3.9979-0.3541-5.2931-1.2812-5.2188z"/>
    <path d="m733.01,300.8c-0.21396,0.0172-0.45595,0.10541-0.75,0.25-0.65166,0.32041-0.71875,0.95163-0.71875,5.5312,0,2.8314,0.10109,5.2382,0.25,5.375,0.55589,0.51073,1.7499,0.21992,2.1875-0.53125,0.28633-0.49154,0.39719-2.4676,0.3125-5.4062-0.11522-3.9979-0.3541-5.2931-1.2812-5.2188z"/>
    <path d="m753.47,300.8c-0.21396,0.0172-0.45595,0.10541-0.75,0.25-0.65166,0.32041-0.71875,0.95163-0.71875,5.5312,0,2.8314,0.10109,5.2382,0.25,5.375,0.55589,0.51073,1.7499,0.21992,2.1875-0.53125,0.28633-0.49154,0.39719-2.4676,0.3125-5.4062-0.11522-3.9979-0.3541-5.2931-1.2812-5.2188z"/>
    <path d="m773.93,300.8c-0.21396,0.0172-0.45595,0.10541-0.75,0.25-0.65166,0.32041-0.71875,0.95163-0.71875,5.5312,0,2.8314,0.10109,5.2382,0.25,5.375,0.55589,0.51073,1.7499,0.21992,2.1875-0.53125,0.28633-0.49154,0.39719-2.4676,0.3125-5.4062-0.11522-3.9979-0.3541-5.2931-1.2812-5.2188z"/>
    <path d="m784.16,300.8c-0.21396,0.0172-0.45595,0.10541-0.75,0.25-0.65166,0.32041-0.71875,0.95163-0.71875,5.5312,0,2.8314,0.10109,5.2382,0.25,5.375,0.55589,0.51073,1.7499,0.21992,2.1875-0.53125,0.28633-0.49154,0.39719-2.4676,0.3125-5.4062-0.11522-3.9979-0.3541-5.2931-1.2812-5.2188z"/>
    <path d="m794.39,300.8c-0.21396,0.0172-0.45595,0.10541-0.75,0.25-0.65166,0.32041-0.71875,0.95163-0.71875,5.5312,0,2.8314,0.10109,5.2382,0.25,5.375,0.55589,0.51073,1.7499,0.21992,2.1875-0.53125,0.28633-0.49154,0.39719-2.4676,0.3125-5.4062-0.11522-3.9979-0.3541-5.2931-1.2812-5.2188z"/>
    <path d="m804.62,300.8c-0.21396,0.0172-0.45595,0.10541-0.75,0.25-0.65166,0.32041-0.71875,0.95163-0.71875,5.5312,0,2.8314,0.10109,5.2382,0.25,5.375,0.55589,0.51073,1.7499,0.21992,2.1875-0.53125,0.28633-0.49154,0.39719-2.4676,0.3125-5.4062-0.11522-3.9979-0.3541-5.2931-1.2812-5.2188z"/>
    <path d="m814.85,300.8c-0.21396,0.0172-0.45595,0.10541-0.75,0.25-0.65166,0.32041-0.71875,0.95163-0.71875,5.5312,0,2.8314,0.10109,5.2382,0.25,5.375,0.55589,0.51073,1.7499,0.21992,2.1875-0.53125,0.28633-0.49154,0.39719-2.4676,0.3125-5.4062-0.11522-3.9979-0.3541-5.2931-1.2812-5.2188z"/>
    <path d="m743.24,300.8c-0.21396,0.0172-0.45595,0.10541-0.75,0.25-0.65166,0.32041-0.71875,0.95163-0.71875,5.5312,0,2.8314,0.10109,5.2382,0.25,5.375,0.55589,0.51073,1.7499,0.21992,2.1875-0.53125,0.28633-0.49154,0.39719-2.4676,0.3125-5.4062-0.11522-3.9979-0.3541-5.2931-1.2812-5.2188z"/>
    <path d="m763.7,300.8c-0.21396,0.0172-0.45595,0.10541-0.75,0.25-0.65166,0.32041-0.71875,0.95163-0.71875,5.5312,0,2.8314,0.10109,5.2382,0.25,5.375,0.55589,0.51073,1.7499,0.21992,2.1875-0.53125,0.28633-0.49154,0.39719-2.4676,0.3125-5.4062-0.11522-3.9979-0.3541-5.2931-1.2812-5.2188z"/>
    <path d="m825.08,300.8c-0.21396,0.0172-0.45595,0.10541-0.75,0.25-0.65166,0.32041-0.71875,0.95163-0.71875,5.5312,0,2.8314,0.10109,5.2382,0.25,5.375,0.55589,0.51073,1.7499,0.21992,2.1875-0.53125,0.28633-0.49154,0.39719-2.4676,0.3125-5.4062-0.11522-3.9979-0.3541-5.2931-1.2812-5.2188z"/>
   </g>
   <g font-size="55.84194565px" font-weight="normal" transform="translate(-2.8432741,1.8482426)" font-stretch="normal" font-variant="normal" font-family="HGPMinchoB" font-style="normal" fill="#f9f9f9">
    <g style="writing-mode:lr-tb;letter-spacing:0px;word-spacing:0px;" line-height="125%">
     <path d="m368.89,259.49c1.4542,0.43631,1.2361,1.2361-0.6544,2.3994v7.8528h4.3626l3.4901-3.4901,4.1445,3.272c0.58166,0.58172,0.43624,1.0907-0.43626,1.5269h-11.561v7.4165h6.3258l3.4901-3.4901,4.1445,3.272c0.58165,0.58171,0.43623,1.0907-0.43627,1.5269h-13.524v6.544h5.017l2.6176-3.0539,4.1445,4.1445c1.1633,1.4542,0.65437,2.3995-1.5269,2.8357v10.907c-0.00003,1.018-1.2361,2.1086-3.7082,3.272-1.3088,0.43627-1.9632,0.21813-1.9632-0.6544v-1.3088c-0.00003-0.29084-0.0727-0.50898-0.21814-0.6544-0.72713-0.43626-1.9632-1.018-3.7082-1.7451-0.72713-0.43626-0.58171-0.65439,0.43626-0.6544,2.0359,0.00001,3.4901,0.00001,4.3627,0,0.29081-0.14541,0.43624-0.36355,0.43626-0.6544v-11.125h-5.8896v21.595l-1.0907,0.6544c-1.7451,0.87252-2.8357,0.79981-3.272-0.21814v-22.031h-5.4533v17.451l-1.0907,0.6544c-1.7451,0.87253-2.8357,0.79981-3.272-0.21814v-21.595l4.7989,2.3995h5.017v-6.544h-13.306v-1.3088h13.306v-7.4165h-6.1077c-2.0359,2.763-3.7083,4.799-5.017,6.1077-0.87254,0.72713-1.0907,0.58171-0.6544-0.43627,2.3267-5.0897,3.781-9.9614,4.3626-14.615l5.4533,1.7451c1.1634,0.58172,0.7998,1.3088-1.0907,2.1813-0.72712,1.1634-1.5269,2.3995-2.3995,3.7083h5.4533v-10.907zm30.757,2.3994c1.5996,0.43631,1.3814,1.2361-0.6544,2.3995v41.445c-0.00005,1.4542-1.4543,2.6903-4.3626,3.7082-1.1634,0.29084-1.7451,0.0727-1.7451-0.6544l-0.21814-1.7451c-0.00004-0.29084-0.0727-0.50898-0.21813-0.6544-1.8905-0.7271-3.781-1.3815-5.6714-1.9632-0.58172-0.43626-0.4363-0.6544,0.43627-0.6544,4.0718,0.14543,6.3258,0.14543,6.7621,0,0.43622,0,0.65435-0.14542,0.6544-0.43626v-42.1zm-10.688,4.5808c1.5996,0.4363,1.3815,1.2361-0.6544,2.3995v27.485l-1.0907,0.65439c-1.7451,0.87254-2.8358,0.79983-3.272-0.21813v-30.975z"/>
    </g>
    <g style="writing-mode:lr-tb;letter-spacing:0px;word-spacing:0px;" line-height="125%">
     <path d="m427.26,261.35c2.4722,1.1634,2.254,2.1087-0.6544,2.8357-1.3088,3.781-2.6903,6.9803-4.1445,9.5978l0.87253,0.43627c1.4542,0.72713,1.2361,1.4542-0.65439,2.1813v32.502l-1.0907,0.6544c-2.1813,0.87252-3.4901,0.87252-3.9264,0v-27.267c-2.1813,3.1993-4.4354,5.8169-6.7621,7.8528-1.018,0.5817-1.2361,0.36356-0.65439-0.6544,5.9623-8.7253,9.9614-18.832,11.997-30.32zm15.487,0.6544c2.0359,1.3088,1.5996,2.2541-1.3088,2.8357-1.1634,2.6176-2.3268,4.8717-3.4901,6.7621h14.615l4.3626-4.3626,5.017,4.1445c0.58164,0.58172,0.50893,1.0907-0.21813,1.5269h-18.978v9.3797h8.5072l3.4901-3.4901,4.1445,3.272c0.58163,0.58171,0.43621,1.0907-0.43627,1.5269h-15.706v9.1616h8.5072l3.4901-3.4901,4.1445,3.272c0.58163,0.5817,0.43621,1.0907-0.43627,1.5269h-15.706v14.397l-1.0907,0.6544c-2.1814,0.87253-3.4902,0.87253-3.9264,0v-36.21h-0.43626c-3.1993,5.526-6.9076,9.816-11.125,12.87-0.87255,0.43629-1.018,0.21815-0.43627-0.65439,5.3806-6.8348,9.2343-15.487,11.561-25.958z"/>
    </g>
    <g style="writing-mode:lr-tb;letter-spacing:0px;word-spacing:0px;" line-height="125%">
     <path d="m502.53,261.35c1.745,0.72715,1.3088,1.4543-1.3088,2.1813l-0.87253,1.3088h7.1984l1.7451-2.6176,4.3626,4.3626c0.43622,1.1634-0.21818,1.5997-1.9632,1.3088l-5.017,5.017h5.8896l2.1813-2.6176,3.4901,3.4901c1.1633,1.1634,0.79977,1.9632-1.0907,2.3995v7.4165l-0.87253,0.43627c-1.7451,0.87255-2.6904,0.87255-2.8357,0v-2.1813h-6.544c-1.7451,1.5997-3.4902,2.9812-5.2352,4.1445,2.3267,2.1813,3.9263,4.4354,4.7989,6.7621l8.289-6.3258,2.8357,2.8357c0.87247,1.3088,0.3635,1.7451-1.5269,1.3088l-8.9434,3.272c4.2172,4.2172,9.1615,7.7074,14.833,10.47-1.4543,0.43626-2.9085,1.5269-4.3626,3.272-3.3448-2.763-6.6894-6.544-10.034-11.343,0.2908,1.1634,0.43622,2.1813,0.43626,3.0539-0.14546,3.9264-0.72715,6.6167-1.7451,8.0709s-2.3268,2.3994-3.9264,2.8357c-1.4542,0.29084-2.1814-0.00001-2.1813-0.87253-0.00004-0.87254-0.0728-1.4542-0.21814-1.7451-0.72714-0.43627-2.3268-1.1634-4.7989-2.1813-0.58172-0.58169-0.4363-0.87253,0.43626-0.87253l4.3626,0.6544c1.5996,0.14542,2.6176,0,3.0539-0.43627,1.0179-0.87253,1.4542-3.1266,1.3088-6.7621-5.5261,3.9264-11.925,7.1257-19.196,9.5978-0.58171,0.14542-0.94526,0.14542-1.0907,0-0.14543-0.14543-0.00001-0.36356,0.43627-0.6544,3.6355-1.8905,6.6167-3.5628,8.9434-5.017,2.6176-1.5996,6.1077-4.2172,10.47-7.8528l-0.43626-2.6176c-6.6894,5.2352-13.088,8.7253-19.196,10.47-0.58171,0.14542-0.94526,0.14542-1.0907,0-0.14543-0.14542,0.0727-0.43626,0.6544-0.87253,6.544-3.0538,12.579-7.2711,18.105-12.652-0.4363-0.58167-0.87257-1.0906-1.3088-1.5269-4.9444,3.3447-10.107,5.8896-15.487,7.6346-0.43628,0.00001-0.65442-0.0727-0.6544-0.21813-0.00002-0.14541,0.21812-0.36354,0.6544-0.6544,6.2531-3.0538,11.488-6.9802,15.706-11.779h-4.7989v2.3995l-0.87253,0.43626c-1.7451,0.87255-2.6903,0.87255-2.8357,0v-8.9434c-1.4542,1.4542-2.8357,2.763-4.1445,3.9264l2.6176,3.272c0.43624,0.58171,0.50895,1.0907,0.21813,1.5269-0.43629,0.29087-1.2361,0.43629-2.3995,0.43627l-7.4165,5.4533v15.487c-0.14543,1.1634-0.87254,2.1086-2.1813,2.8357-1.8905,0.87253-2.8357,0.79982-2.8357-0.21813-0.00001-1.018-0.14543-1.6724-0.43626-1.9632-0.87254-0.43626-2.1086-0.87253-3.7083-1.3088-1.1634-0.58169-1.0907-0.87253,0.21813-0.87253h3.9264c0.87252,0,1.3088-0.29084,1.3088-0.87253v-21.377h-7.6346v-1.3088h15.051l1.7451-2.6176,0.65439,0.65439c4.508-5.526,7.8528-11.997,10.034-19.414zm4.1445,19.196,6.7621,0,0-6.3258-6.7621,0zm-17.014-14.833c0.58167,0.4363,0.72709,0.87257,0.43627,1.3088-0.43629,0.29088-1.3088,0.43631-2.6176,0.43627l-5.8896,4.7989c0.87251,1.1634,1.3815,2.1086,1.5269,2.8357,0.29083,1.4542-0.00001,2.5449-0.87253,3.272-1.1634,0.58171-2.0359,0.43629-2.6176-0.43627-1.1634-3.6355-3.1266-6.4712-5.8896-8.5072-0.14543-0.14538-0.21814-0.29081-0.21813-0.43626-0.00001-0.14539,0.14542-0.2181,0.43627-0.21814,2.4722,0.58173,4.5808,1.3816,6.3258,2.3995l3.0539-5.8896h-13.088v-1.3088h13.524l1.7451-2.3995zm-8.5072,23.122,4.1445-6.7621-4.1445,0zm18.541-22.686c-2.0359,2.9085-3.6356,5.1625-4.7989,6.7621h9.1616l3.272-6.7621h-7.6346zm-3.7082,14.397,6.9802,0,0-6.3258-6.9802,0z"/>
    </g>
    <g style="writing-mode:lr-tb;letter-spacing:0px;word-spacing:0px;" line-height="125%">
     <path d="m557.74,259.6c2.3267,0.58173,2.3994,1.6724,0.21813,3.272v3.9264h14.833l2.1813-3.272,5.017,5.017c1.3088,1.5997,1.0179,2.4722-0.87253,2.6176-0.87258,0.00003-1.7451,0.00003-2.6176,0-1.7451,1.1634-3.4902,2.3268-5.2352,3.4901-0.72715,0.58172-0.87257,0.4363-0.43627-0.43626,0.87249-2.0359,1.6723-4.0718,2.3995-6.1077h-34.029c-0.00001,0.72715-0.00001,1.3816,0,1.9632-0.29086,4.7989-1.9632,7.1984-5.017,7.1984-1.5996,0.00003-2.5449-0.8725-2.8357-2.6176,0-1.1633,0.58169-2.1086,1.7451-2.8357,2.6176-1.745,4.0718-4.2172,4.3627-7.4165,0.14541-1.4542,0.43625-1.4542,0.87253,0,0.29083,0.87257,0.50896,1.6724,0.6544,2.3995h13.96v-7.6346zm15.487,17.887c0.58164,0.58171,0.43622,1.0907-0.43626,1.5269h-14.833v11.561h9.816l3.4901-3.4901,4.1445,3.272c0.58164,0.5817,0.43622,1.0907-0.43627,1.5269h-17.014v11.779c3.4901,0.43626,7.1256,0.6544,10.907,0.6544,5.0897-0.14543,9.5251-0.43627,13.306-0.87253-1.5997,1.3088-2.7631,2.9811-3.4901,5.017-6.544,0.29083-12.652,0.29083-18.323,0-7.562-0.58169-13.306-4.7989-17.232-12.652-2.6176,5.6715-6.544,10.325-11.779,13.96-1.4542,0.7271-1.6724,0.50897-0.65439-0.6544,6.3985-7.4165,9.7432-15.851,10.034-25.303l5.6714,1.3088c1.5996,0.72712,1.3088,1.6724-0.87253,2.8357-0.43628,1.7451-1.018,3.781-1.7451,6.1077,2.3267,3.9264,5.3806,6.6894,9.1616,8.289v-23.34h-14.179v-1.3088h26.83l3.4901-3.4901z"/>
    </g>
   </g>
  </g>
 </g>
</svg>
