<?xml version="1.0" encoding="UTF-8" standalone="no"?>
<!-- Created with Inkscape (http://www.inkscape.org/) -->
<svg xmlns:rdf="http://www.w3.org/1999/02/22-rdf-syntax-ns#" xmlns="http://www.w3.org/2000/svg" height="100%" width="100%" version="1.1" xmlns:cc="http://creativecommons.org/ns#" xmlns:dc="http://purl.org/dc/elements/1.1/" viewBox="0 0 685.78398 85.577024">
 <metadata>
  <rdf:RDF>
   <cc:Work rdf:about="">
    <dc:format>image/svg+xml</dc:format>
    <dc:type rdf:resource="http://purl.org/dc/dcmitype/StillImage"/>
    <dc:title/>
   </cc:Work>
  </rdf:RDF>
 </metadata>
 <g style="letter-spacing:0px;word-spacing:0px;" font-weight="normal" font-size="125.18695831px" font-style="normal" font-stretch="normal" line-height="125%" font-variant="normal" font-family="HGPKyokashotai" fill="#F60">
  <path style="" d="M1.956,0.48901c1.9561-0.32592,3.0971,0.4891,3.4231,2.4451l12.225,75.797,12.226-73.352c0.652-3.26,2.282-4.89,4.89-4.8901,2.608,0.00009,4.238,1.6301,4.89,4.8901l11.736,73.352,12.715-75.797c0.32594-1.956,1.304-2.771,2.9341-2.4451,1.304,0.3261,1.956,1.1411,1.956,2.4451l-13.693,78.242c-0.32607,2.6081-1.6301,3.9121-3.9121,3.9121-2.2821,0.000004-3.5861-1.304-3.9121-3.9121l-12.714-75.308-13.203,75.308c-0.32604,2.6081-1.6301,3.9121-3.9121,3.9121-2.2821,0.000004-3.5861-1.304-3.9121-3.9121l-13.204-77.753c-0.32601-1.63,0.163-2.608,1.467-2.9341z"/>
  <path style="" d="m84.599,8.3132c0.652,0.65209,0.97801,1.4671,0.97802,2.4451-0.000012,1.3041-0.32602,2.2821-0.97802,2.9341-0.65203,0.65209-1.467,0.9781-2.4451,0.97802-0.97803,0.000074-1.793-0.32593-2.4451-0.97802-0.65202-0.65194-0.97803-1.63-0.97802-2.9341-0.000005-0.97794,0.326-1.793,0.97802-2.4451,0.65201-0.65193,1.467-0.97794,2.4451-0.97802,0.97801,0.0000811,1.793,0.32609,2.4451,0.97802zm-4.8901,22.006c-0.000006-1.956,0.81501-2.934,2.4451-2.9341,1.63,0.000061,2.445,0.97808,2.4451,2.9341v51.835c-0.000011,1.9561-0.81503,2.9341-2.4451,2.9341-1.63,0.000004-2.4451-0.97802-2.4451-2.9341z"/>
  <path style="" d="m97.802,30.319c-0.000006-1.956,0.65201-2.934,1.956-2.9341,1.956,0.000061,2.9341,0.97808,2.9341,2.9341v9.2912c1.304-2.608,3.0971-5.0531,5.3791-7.3352,3.26-3.26,7.0091-4.8901,11.247-4.8901,4.2381,0.000061,7.8242,1.4671,10.758,4.4011,3.586,3.5861,5.3791,9.4543,5.3791,17.604v32.764c-0.00004,1.9561-0.65205,2.9341-1.956,2.9341-1.9561,0.000004-2.9341-0.97802-2.9341-2.9341v-33.253c-0.00004-6.8461-1.3041-11.573-3.9121-14.181-1.9561-1.956-4.5641-2.934-7.8242-2.9341-3.2601,0.000056-6.3572,1.4671-9.2912,4.4011-4.5641,4.5642-6.8462,9.1283-6.8462,13.692v32.275c-0.00001,1.9561-0.97803,2.9341-2.9341,2.9341-1.304,0.000004-1.9561-0.97802-1.956-2.9341z"/>
  <path style="" d="m181.91,85.577c-1.6301,0.000003-2.4451-0.97802-2.4451-2.9341v-7.8242c-3.9121,6.8462-8.9652,10.269-15.159,10.269-4.5641,0.000004-8.6392-1.793-12.225-5.3791-5.5421-5.5421-8.3132-13.855-8.3132-24.94,0-9.7802,2.6081-17.278,7.8242-22.495,3.2601-3.26,7.3352-4.8901,12.225-4.8901,6.5201,0.000061,11.736,4.0752,15.648,12.225v-36.187c-0.00004-1.956,0.81498-2.934,2.4451-2.9341,1.63,0.00008802,2.445,0.97811,2.445,2.9341v79.22c-0.00004,1.9561-0.81506,2.9341-2.445,2.9341zm-17.11-4.89c6.1941,0.000008,11.084-4.4011,14.67-13.203v-19.56c-3.9121-10.758-8.9652-16.137-15.159-16.137-3.2601,0.000056-6.1942,1.3041-8.8022,3.9121-4.5641,4.5642-6.8462,10.921-6.8462,19.071-0.00001,9.7803,2.282,16.952,6.8462,21.517,2.934,2.9341,6.0311,4.4011,9.2912,4.4011z"/>
  <path style="" d="m216.14,31.297c-3.5861,0.000057-6.6832,1.3041-9.2912,3.9121-4.5641,4.5642-6.8462,11.573-6.8462,21.027-0.00001,9.4542,2.282,16.463,6.8462,21.027,2.608,2.6081,5.7051,3.9121,9.2912,3.9121,3.586,0.000007,6.6831-1.304,9.2912-3.9121,4.5641-4.5641,6.8461-11.573,6.8462-21.027-0.00004-9.4542-2.2821-16.463-6.8462-21.027-2.6081-2.608-5.7052-3.912-9.2912-3.9121zm0-4.4011c5.2161,0.000062,9.6172,1.7931,13.203,5.3791,5.2161,5.2162,7.8241,13.203,7.8242,23.962-0.00005,10.758-2.6081,18.745-7.8242,23.962-3.5861,3.5861-7.9872,5.3791-13.203,5.3791-5.2161,0.000003-9.6172-1.793-13.203-5.3791-5.2161-5.2161-7.8242-13.203-7.8242-23.962,0-10.758,2.6081-18.745,7.8242-23.962,3.5861-3.586,7.9872-5.3791,13.203-5.3791z"/>
  <path style="" d="m247.44,27.385c1.956-0.32595,3.0971,0.65208,3.4231,2.9341l9.7802,46.945,11.736-45.478c0.65199-2.934,2.119-4.401,4.4011-4.4011,2.282,0.000061,3.749,1.4671,4.4011,4.4011l11.736,45.478,9.7802-46.945c0.32594-2.282,1.304-3.26,2.9341-2.9341,1.63,0.32607,2.282,1.4671,1.956,3.4231l-11.247,50.857c-0.65207,2.2821-1.7931,3.4231-3.4231,3.4231-1.6301,0.000004-2.7711-1.141-3.4231-3.4231l-12.714-48.412-13.203,48.412c-0.65203,2.2821-1.6301,3.4231-2.9341,3.4231-1.63,0.000004-2.7711-1.141-3.4231-3.4231l-11.27-50.857c-0.32601-1.63,0.163-2.771,1.467-3.4231z"/>
  <path style="" d="m331.4,3.4231c-0.00001-1.956,0.81501-2.934,2.4451-2.9341,1.63,0.00008802,2.445,0.97811,2.445,2.9341v35.698h39.61v-35.698c-0.00005-1.956,0.81497-2.934,2.4451-2.9341,1.63,0.00008802,2.445,0.97811,2.445,2.9341v78.731c-0.00005,1.9561-0.81507,2.9341-2.445,2.9341-1.6301,0.000004-2.4451-0.97802-2.4451-2.9341v-38.632h-39.61v38.632c-0.00001,1.9561-0.81503,2.9341-2.445,2.9341-1.63,0.000004-2.4451-0.97802-2.4451-2.9341z"/>
  <path style="" d="m398.88,8.3132c0.652,0.65209,0.97801,1.4671,0.97802,2.4451-0.00001,1.3041-0.32602,2.2821-0.97802,2.9341-0.65203,0.65209-1.467,0.9781-2.4451,0.97802-0.97803,0.000074-1.793-0.32593-2.4451-0.97802-0.65202-0.65194-0.97803-1.63-0.97802-2.9341-0.00001-0.97794,0.326-1.793,0.97802-2.4451,0.65201-0.65193,1.467-0.97794,2.4451-0.97802,0.97801,0.0000811,1.793,0.32609,2.4451,0.97802zm-4.8901,22.006c0-1.956,0.81502-2.934,2.4451-2.9341,1.63,0.000061,2.445,0.97808,2.4451,2.9341v51.835c-0.00001,1.9561-0.81503,2.9341-2.4451,2.9341-1.63,0.000004-2.4451-0.97802-2.4451-2.9341z"/>
  <path style="" d="m447.78,85.577c-1.6301,0.000003-2.4451-0.97802-2.4451-2.9341v-7.8242c-3.9121,6.8462-8.9652,10.269-15.159,10.269-4.5641,0.000004-8.6392-1.793-12.225-5.3791-5.5421-5.5421-8.3132-13.855-8.3132-24.94,0-9.7802,2.6081-17.278,7.8242-22.495,3.2601-3.26,7.3352-4.8901,12.225-4.8901,6.5201,0.000061,11.736,4.0752,15.648,12.225v-36.187c-0.00004-1.956,0.81498-2.934,2.4451-2.9341,1.63,0.00008802,2.445,0.97811,2.4451,2.9341v79.22c-0.00005,1.9561-0.81506,2.9341-2.4451,2.9341zm-17.115-4.8901c6.1941,0.000008,11.084-4.4011,14.67-13.203v-19.56c-3.9121-10.758-8.9652-16.137-15.159-16.137-3.2601,0.000056-6.1942,1.3041-8.8022,3.9121-4.5641,4.5642-6.8462,10.921-6.8462,19.071-0.00001,9.7803,2.282,16.952,6.8462,21.517,2.934,2.9341,6.0311,4.4011,9.2912,4.4011z"/>
  <path style="" d="m480.55,27.385c4.5641,0.000061,8.6392,1.7931,12.225,5.3791,4.5641,4.5642,6.8461,10.921,6.8462,19.071-0.00004,3.2601-1.6301,4.8901-4.8901,4.8901h-28.852c-0.00001,9.7803,1.956,16.463,5.8681,20.049,2.608,2.6081,5.5421,3.9121,8.8022,3.9121,3.26,0.000008,6.1941-1.304,8.8022-3.9121,1.956-1.956,3.586-5.0531,4.8901-9.2912,0.65197-1.304,1.63-1.793,2.9341-1.467,1.63,0.65204,2.119,1.9561,1.467,3.9121-1.3041,4.5641-3.2601,7.9872-5.8681,10.269-3.2601,3.2601-7.3352,4.8901-12.225,4.8901-4.5641,0.000004-8.6392-1.793-12.225-5.3791-4.8901-4.8901-7.3352-13.04-7.3352-24.451,0-10.432,2.445-18.093,7.3352-22.984,3.2601-3.26,7.3352-4.8901,12.225-4.8901zm-8.8022,8.3132c-3.5861,3.5861-5.5421,9.1283-5.8681,16.626h27.385c0.97799,0.000036,1.467-0.65198,1.467-1.956-0.00004-6.1941-1.7931-11.084-5.3791-14.67-2.6081-2.608-5.3792-3.912-8.3132-3.9121-3.5861,0.000056-6.6832,1.3041-9.2912,3.9121z"/>
  <path style="" d="m566.47,0.48901c1.304,0.00008802,1.956,0.6521,1.956,1.956-0.00005,1.6301-0.65207,2.4451-1.956,2.4451h-19.56v77.264c-0.00003,1.9561-0.81505,2.9341-2.4451,2.9341-1.6301,0.000004-2.4451-0.97802-2.445-2.9341v-77.264h-19.56c-1.304,0.0000836-1.956-0.81493-1.956-2.4451-0.00001-1.3039,0.65201-1.956,1.956-1.956z"/>
  <path style="" d="m597.76,31.297c-3.5861,0.000057-6.6832,1.3041-9.2912,3.9121-4.5641,4.5642-6.8462,11.573-6.8462,21.027-0.00001,9.4542,2.282,16.463,6.8462,21.027,2.608,2.6081,5.7051,3.9121,9.2912,3.9121,3.5861,0.000007,6.6831-1.304,9.2912-3.9121,4.5641-4.5641,6.8461-11.573,6.8462-21.027-0.00004-9.4542-2.2821-16.463-6.8462-21.027-2.6081-2.608-5.7052-3.912-9.2912-3.9121zm0-4.4011c5.2161,0.000062,9.6172,1.7931,13.203,5.3791,5.2161,5.2162,7.8241,13.203,7.8242,23.962-0.00005,10.758-2.6081,18.745-7.8242,23.962-3.5861,3.5861-7.9872,5.3791-13.203,5.3791-5.2161,0.000003-9.6172-1.793-13.203-5.3791-5.2161-5.2161-7.8242-13.203-7.8242-23.962-0.00001-10.758,2.608-18.745,7.8242-23.962,3.5861-3.586,7.9872-5.3791,13.203-5.3791z"/>
  <path style="" d="m648.13,31.297c-3.5861,0.000057-6.6832,1.3041-9.2912,3.9121-4.5641,4.5642-6.8462,11.573-6.8462,21.027-0.00001,9.4542,2.282,16.463,6.8462,21.027,2.608,2.6081,5.7051,3.9121,9.2912,3.9121,3.586,0.000007,6.6831-1.304,9.2912-3.9121,4.5641-4.5641,6.8461-11.573,6.8462-21.027-0.00004-9.4542-2.2821-16.463-6.8462-21.027-2.6081-2.608-5.7052-3.912-9.2912-3.9121zm0-4.4011c5.2161,0.000062,9.6172,1.7931,13.203,5.3791,5.2161,5.2162,7.8241,13.203,7.8242,23.962-0.00004,10.758-2.6081,18.745-7.8242,23.962-3.5861,3.5861-7.9872,5.3791-13.203,5.3791-5.2162,0.000003-9.6172-1.793-13.203-5.3791-5.2161-5.2161-7.8242-13.203-7.8242-23.962,0-10.758,2.608-18.745,7.8242-23.962,3.5861-3.586,7.9872-5.3791,13.203-5.3791z"/>
  <path style="" d="m680.89,3.4231c-0.00001-1.956,0.81501-2.934,2.445-2.9341,1.63,0.00008802,2.445,0.97811,2.4451,2.9341v78.731c-0.00001,1.9561-0.81503,2.9341-2.4451,2.9341-1.63,0.000004-2.4451-0.97802-2.445-2.9341z"/>
 </g>
</svg>
